<?xml version="1.0" standalone="no"?>
<!DOCTYPE svg PUBLIC "-//W3C//DTD SVG 1.1//EN" "http://www.w3.org/Graphics/SVG/1.1/DTD/svg11.dtd" >
<svg xmlns="http://www.w3.org/2000/svg" xmlns:xlink="http://www.w3.org/1999/xlink" version="1.1">
<metadata>
Created by FontForge 20170910 at Mon May 31 16:39:28 2010
 By jimmywarting
Spaced and kerned with iKern.
</metadata>
<defs>
<font id="MuseoSlab-900Italic" horiz-adv-x="600" >
  <font-face 
    font-family="Museo Slab 900"
    font-weight="400"
    font-style="italic"
    font-stretch="normal"
    units-per-em="1000"
    panose-1="2 0 0 0 0 0 0 0 0 0"
    ascent="750"
    descent="-250"
    x-height="515"
    cap-height="715"
    bbox="-191 -248 1229 918"
    underline-thickness="50"
    underline-position="-100"
    stemh="78"
    stemv="99"
    unicode-range="U+0020-FB04"
  />
<missing-glyph horiz-adv-x="510" 
d="M-53 0v700h500v-700h-500zM197 395l170 255h-340zM397 95v510l-170 -255zM-3 95l170 255l-170 255v-510zM27 50h340l-170 255z" />
    <glyph glyph-name="fi" unicode="fi" horiz-adv-x="720" 
d="M39 0l76 390h-70l24 125h70l4 21c32 169 186 191 265 191c19 0 32 -1 43 -2l17 -2l-28 -136l-11 2c-7 1 -16 1 -28 1c-24 0 -76 -1 -84 -50l-5 -25h354l-63 -322c-3 -11 -4 -22 -4 -33c0 -23 11 -36 39 -36c4 0 9 1 13 1h6l-24 -125l-15 -2c-11 -1 -22 -1 -37 -1
c-79 0 -161 7 -161 119c0 19 3 39 8 64l41 210h-181l-76 -390h-173zM508 580l26 135h169l-26 -135h-169z" />
    <glyph glyph-name="fl" unicode="fl" horiz-adv-x="726" 
d="M39 0l76 390h-70l24 125h70l3 14c32 155 168 207 319 207c68 0 127 -8 171 -17c26 -5 50 -11 72 -18l-96 -496c-3 -15 -5 -28 -5 -39c0 -24 11 -33 39 -33c7 0 11 1 15 1h6l-27 -136l-15 -2c-11 -1 -22 -1 -37 -1c-79 0 -160 16 -160 130c0 20 2 42 7 65l80 411l-21 3
c-13 2 -29 3 -50 3c-71 0 -114 -26 -125 -77l-3 -15h106l-24 -125h-106l-76 -390h-173z" />
    <glyph glyph-name="f_f" unicode="ff" horiz-adv-x="756" 
d="M39 0l76 390h-70l24 125h70l4 21c32 169 186 191 265 191c19 0 32 -1 43 -2l17 -2l-28 -136l-11 2c-7 1 -16 1 -28 1c-24 0 -76 -1 -84 -50l-5 -25h192l4 21c32 169 186 191 265 191c19 0 32 -1 43 -2l17 -2l-28 -136l-11 2c-7 1 -16 1 -28 1c-24 0 -76 -1 -84 -50
l-5 -25h106l-24 -125h-106l-76 -390h-173l76 390h-192l-76 -390h-173z" />
    <glyph glyph-name="f_f_i" unicode="ffi" horiz-adv-x="1085" 
d="M39 0l76 390h-70l24 125h70l4 21c32 169 186 191 265 191c19 0 32 -1 43 -2l17 -2l-28 -136l-11 2c-7 1 -16 1 -28 1c-24 0 -76 -1 -84 -50l-5 -25h192l4 21c32 169 186 191 265 191c19 0 32 -1 43 -2l17 -2l-28 -136l-11 2c-7 1 -16 1 -28 1c-24 0 -76 -1 -84 -50
l-5 -25h354l-63 -322c-3 -11 -4 -22 -4 -33c0 -23 11 -36 39 -36c4 0 9 1 13 1h6l-24 -125l-15 -2c-11 -1 -22 -1 -37 -1c-79 0 -161 7 -161 119c0 19 3 39 8 64l41 210h-181l-76 -390h-173l76 390h-192l-76 -390h-173zM873 580l26 135h169l-26 -135h-169z" />
    <glyph glyph-name="f_f_l" unicode="ffl" horiz-adv-x="1091" 
d="M39 0l76 390h-70l24 125h70l4 21c32 169 186 191 265 191c19 0 32 -1 43 -2l17 -2l-28 -136l-11 2c-7 1 -16 1 -28 1c-24 0 -76 -1 -84 -50l-5 -25h192l3 14c32 155 168 207 319 207c68 0 127 -8 171 -17c26 -5 50 -11 72 -18l-96 -496c-3 -15 -5 -28 -5 -39
c0 -24 11 -33 39 -33c7 0 11 1 15 1h6l-27 -136l-15 -2c-11 -1 -22 -1 -37 -1c-79 0 -160 16 -160 130c0 20 2 42 7 65l80 411l-21 3c-13 2 -29 3 -50 3c-71 0 -114 -26 -125 -77l-3 -15h106l-24 -125h-106l-76 -390h-173l76 390h-192l-76 -390h-173z" />
    <glyph glyph-name="f_j" unicode="fj" horiz-adv-x="694" 
d="M39 0l76 390h-70l24 125h70l4 21c32 169 186 191 265 191c19 0 32 -1 43 -2l17 -2l-28 -136l-11 2c-7 1 -16 1 -28 1c-24 0 -76 -1 -84 -50l-5 -25h356l-100 -516c-35 -176 -188 -207 -266 -207c-19 0 -33 0 -44 1l-17 2l26 132c1 -1 3 -1 6 -1h16c35 0 94 7 105 66
l77 398h-183l-76 -390h-173zM510 580l26 135h169l-26 -135h-169z" />
    <glyph glyph-name=".notdef" horiz-adv-x="510" 
d="M-53 0v700h500v-700h-500zM197 395l170 255h-340zM397 95v510l-170 -255zM-3 95l170 255l-170 255v-510zM27 50h340l-170 255z" />
    <glyph glyph-name=".null" horiz-adv-x="0" 
 />
    <glyph glyph-name="CR" horiz-adv-x="250" 
 />
    <glyph glyph-name="space" unicode=" " horiz-adv-x="250" 
 />
    <glyph glyph-name="numbersign" unicode="#" horiz-adv-x="705" 
d="M42 0l66 180h-97l42 120h98l36 95h-96l43 120h96l74 200h137l-74 -200h108l74 200h137l-74 -200h102l-43 -120h-102l-36 -95h100l-43 -120h-100l-66 -180h-137l66 180h-108l-66 -180h-137zM288 300h108l36 95h-108z" />
    <glyph glyph-name="dollar" unicode="$" horiz-adv-x="574" 
d="M-2 104l95 113c13 -11 28 -22 44 -31c27 -16 66 -32 107 -32c44 0 104 18 104 62c0 93 -267 83 -267 276c0 123 112 207 233 218l18 105h109l-18 -109c59 -9 99 -29 126 -45c16 -9 29 -19 39 -30l-87 -121c-14 10 -29 19 -46 26c-28 13 -64 25 -100 25
c-44 0 -99 -21 -99 -63c0 -93 269 -82 269 -272c0 -115 -101 -214 -245 -222l-16 -103h-109l18 110c-63 12 -106 36 -134 56c-17 12 -30 24 -41 37z" />
    <glyph glyph-name="percent" unicode="%" horiz-adv-x="880" 
d="M249 382c-98 0 -165 65 -165 154c0 99 98 191 202 191c99 0 166 -69 166 -158c0 -100 -102 -187 -203 -187zM34 0l674 715h159l-674 -715h-159zM262 502c31 0 62 26 62 61c0 25 -19 44 -50 44s-62 -30 -62 -62c0 -25 19 -43 50 -43zM452 142c0 99 98 191 202 191
c99 0 166 -69 166 -158c0 -100 -102 -187 -203 -187c-98 0 -165 65 -165 154zM580 151c0 -25 19 -43 50 -43s62 26 62 61c0 25 -19 44 -50 44s-62 -30 -62 -62z" />
    <glyph glyph-name="ampersand" unicode="&#x26;" horiz-adv-x="682" 
d="M16 194c0 78 68 160 156 187v2c-11 6 -22 14 -31 25c-16 19 -31 46 -31 90c0 165 146 229 267 229c29 0 56 -4 76 -9c12 -3 23 -6 32 -10l-64 -130l-11 2c-7 1 -16 2 -27 2c-45 0 -99 -29 -99 -89c0 -33 19 -59 60 -59h87l18 93h172l-18 -93h89l-28 -140h-89l-13 -74
c-29 -153 -133 -232 -293 -232c-161 0 -253 87 -253 206zM200 207c0 -37 30 -65 75 -65c67 0 108 37 117 88l12 64h-98c-44 0 -106 -19 -106 -87z" />
    <glyph glyph-name="quotesingle" unicode="'" horiz-adv-x="229" 
d="M88 490l47 240h125l-47 -240h-125z" />
    <glyph glyph-name="parenleft" unicode="(" horiz-adv-x="358" 
d="M248 -95h-137c-35 80 -59 172 -59 276c0 211 61 400 214 569h147c-143 -176 -211 -370 -211 -573c0 -93 14 -184 46 -272z" />
    <glyph glyph-name="parenright" unicode=")" horiz-adv-x="360" 
d="M105 -95h-147c143 176 211 370 211 573c0 93 -14 184 -46 272h137c35 -80 59 -172 59 -276c0 -211 -60 -399 -214 -569z" />
    <glyph glyph-name="asterisk" unicode="*" horiz-adv-x="495" 
d="M192 309l-110 90l92 86l1 2l-101 21l73 140l93 -45l11 112h152l-34 -112l112 46l20 -146l-120 -25l-1 -2l59 -80l-131 -88l-40 98h-2z" />
    <glyph glyph-name="plus" unicode="+" horiz-adv-x="630" 
d="M189 0l43 222h-205l25 130h205l43 223h136l-43 -223h205l-25 -130h-205l-43 -222h-136z" />
    <glyph glyph-name="comma" unicode="," horiz-adv-x="300" 
d="M60 166h169l-167 -277h-129z" />
    <glyph glyph-name="hyphen" unicode="-" horiz-adv-x="454" 
d="M53 212l29 150h314l-29 -150h-314z" />
    <glyph glyph-name="period" unicode="." horiz-adv-x="286" 
d="M5 0l31 164h164l-31 -164h-164z" />
    <glyph glyph-name="slash" unicode="/" horiz-adv-x="475" 
d="M-33 -42l408 792h154l-409 -792h-153z" />
    <glyph glyph-name="zero" unicode="0" horiz-adv-x="638" 
d="M49 238c0 182 80 489 329 489c175 0 237 -101 237 -248c0 -180 -82 -491 -330 -491c-175 0 -236 103 -236 250zM230 246c0 -63 15 -103 59 -103c96 0 144 215 144 326c0 63 -16 103 -60 103c-97 0 -143 -217 -143 -326z" />
    <glyph glyph-name="one" unicode="1" horiz-adv-x="543" 
d="M-4 0l26 140h152l60 305c3 15 5 27 8 38l4 17h-2l-9 -12c-7 -7 -15 -17 -27 -26l-54 -43l-83 113l234 183h151l-111 -575h152l-28 -140h-473z" />
    <glyph glyph-name="two" unicode="2" horiz-adv-x="608" 
d="M500 0h-501c0 344 397 369 397 511c0 43 -32 61 -67 61s-66 -20 -89 -41c-13 -12 -26 -26 -37 -41l-116 92c20 27 43 52 70 73c47 36 112 72 196 72c115 0 232 -68 232 -194c0 -215 -353 -301 -373 -393h165l17 85h150z" />
    <glyph glyph-name="three" unicode="3" horiz-adv-x="592" 
d="M-4 79l92 122c12 -11 26 -20 41 -29c27 -15 63 -29 104 -29c71 0 119 43 119 95c0 39 -37 67 -98 67c-8 0 -17 0 -24 -1c-4 -1 -8 -1 -12 -1l-21 80l153 164c9 9 17 16 24 21l12 8v2c-5 0 -10 0 -15 -1c-9 -1 -20 -2 -31 -2h-85l-15 -75h-150l42 215h472l-24 -124
l-168 -177c61 -21 125 -71 125 -162c0 -126 -113 -264 -306 -264c-76 0 -135 23 -175 46c-23 13 -43 28 -60 45z" />
    <glyph glyph-name="four" unicode="4" horiz-adv-x="634" 
d="M-2 173l19 106l356 436h219l-79 -407h85l-26 -135h-85l-34 -173h-173l34 173h-316zM202 308h138l34 173c3 15 7 33 12 48l9 26h-4c-4 -7 -8 -15 -13 -22c-8 -13 -18 -29 -31 -44l-145 -179v-2z" />
    <glyph glyph-name="five" unicode="5" horiz-adv-x="594" 
d="M-6 82l95 117c12 -11 26 -20 41 -28c27 -15 61 -28 101 -28c67 0 127 39 127 102c0 52 -40 75 -100 75c-29 0 -55 -4 -74 -11c-11 -3 -21 -7 -30 -11l-92 38l106 379h417l-42 -215h-150l15 75h-116l-24 -87l-9 -25c-2 -4 -3 -8 -4 -11h2l18 3c11 2 26 3 43 3
c124 0 223 -77 223 -211c0 -145 -142 -259 -314 -259c-76 0 -134 23 -173 47c-23 14 -43 30 -60 47z" />
    <glyph glyph-name="six" unicode="6" horiz-adv-x="626" 
d="M42 258c0 209 161 469 424 469c51 0 90 -8 118 -17c17 -5 31 -11 42 -17l-64 -141c-9 4 -18 7 -29 10c-19 5 -43 10 -72 10c-91 0 -153 -54 -188 -123h2c21 16 65 25 102 25c136 0 203 -101 203 -209c0 -137 -107 -277 -279 -277c-139 0 -259 90 -259 270zM220 253
c0 -61 43 -110 94 -110c54 0 87 56 87 109c0 43 -22 81 -91 81c-67 0 -90 -33 -90 -80z" />
    <glyph glyph-name="seven" unicode="7" horiz-adv-x="573" 
d="M9 0l373 538c9 13 16 21 23 28l10 10v2c-5 0 -10 0 -15 -1c-9 -1 -22 -2 -37 -2h-123l-15 -75h-150l42 215h519l-24 -122l-415 -593h-188z" />
    <glyph glyph-name="eight" unicode="8" horiz-adv-x="620" 
d="M21 182c0 90 65 152 145 205c-35 31 -56 68 -56 119c0 107 92 221 263 221c132 0 230 -70 230 -179c0 -96 -80 -162 -114 -194c43 -31 71 -76 71 -133c0 -112 -109 -233 -293 -233c-160 0 -246 91 -246 194zM379 414c9 11 50 58 50 107c0 37 -21 56 -63 56
c-47 0 -84 -26 -84 -69c0 -46 45 -69 97 -94zM201 208c0 -43 26 -70 79 -70c46 0 100 24 100 76c0 54 -60 76 -114 103c-25 -22 -65 -60 -65 -109z" />
    <glyph glyph-name="nine" unicode="9" horiz-adv-x="623" 
d="M25 22l64 141c9 -4 18 -7 29 -10c19 -5 41 -10 68 -10c92 0 154 54 189 126h-2c-21 -16 -65 -25 -102 -25c-135 0 -204 100 -204 206c0 137 107 277 279 277c139 0 259 -90 259 -270c0 -209 -161 -469 -424 -469c-48 0 -87 8 -114 17c-16 5 -30 11 -42 17zM338 385
c67 0 89 34 89 77c0 61 -43 110 -94 110c-53 0 -87 -56 -87 -109c0 -40 21 -78 92 -78z" />
    <glyph glyph-name="colon" unicode=":" horiz-adv-x="308" 
d="M83 351l32 164h164l-32 -164h-164zM14 0l32 164h164l-32 -164h-164z" />
    <glyph glyph-name="semicolon" unicode=";" horiz-adv-x="315" 
d="M98 351l32 164h158l-32 -164h-158zM-66 -111l127 277h169l-167 -277h-129z" />
    <glyph glyph-name="less" unicode="&#x3c;" horiz-adv-x="630" 
d="M39 234v107l504 223v-145l-330 -131v-2l330 -130v-145z" />
    <glyph glyph-name="equal" unicode="=" horiz-adv-x="630" 
d="M59 337v130h506v-130h-506zM59 107v130h506v-130h-506z" />
    <glyph glyph-name="greater" unicode="&#x3e;" horiz-adv-x="630" 
d="M83 11v145l330 130v2l-330 131v145l504 -223v-107z" />
    <glyph glyph-name="question" unicode="?" horiz-adv-x="515" 
d="M123 221l9 50c24 145 205 171 205 253c0 29 -25 49 -60 49c-27 0 -52 -10 -71 -21c-11 -7 -22 -14 -32 -22l-79 127c18 14 38 26 60 37c39 19 90 36 150 36c109 0 214 -62 214 -180c0 -177 -207 -212 -223 -293l-7 -36h-166zM85 0l29 150h158l-29 -150h-158z" />
    <glyph glyph-name="at" unicode="@" horiz-adv-x="841" 
d="M16 188c0 228 201 427 469 427c179 0 257 -88 257 -201c0 -23 -3 -43 -7 -64l-33 -173h74l-23 -119h-268c-140 0 -209 78 -209 163c0 96 81 195 268 195h44c1 1 1 2 1 3v5c0 36 -65 56 -122 56c-159 0 -280 -155 -280 -293c0 -104 69 -189 210 -189l-25 -128
c-211 0 -356 124 -356 318zM448 229c0 -31 16 -52 55 -52h39l26 134h-37c-52 0 -83 -42 -83 -82z" />
    <glyph glyph-name="A" unicode="A" horiz-adv-x="734" 
d="M-46 0l25 130h58l309 585h204l81 -585h59l-25 -130h-294l25 130h62l-8 95h-184l-46 -95h62l-26 -130h-302zM330 361h107l-11 132c-3 23 -2 41 -1 54c1 7 1 14 1 21h-4c-1 -7 -3 -14 -6 -21c-5 -13 -11 -31 -22 -54z" />
    <glyph glyph-name="B" unicode="B" horiz-adv-x="710" 
d="M-8 0l25 130h79l89 455h-80l25 130h304c51 0 92 -3 128 -14c76 -23 120 -78 120 -153c0 -71 -40 -136 -111 -172v-2c64 -24 86 -79 86 -140c0 -106 -69 -179 -159 -214c-43 -15 -92 -20 -140 -20h-366zM335 438h90c49 0 77 40 77 81c0 19 -5 36 -17 45
c-10 7 -26 11 -47 11h-77zM277 140h95c25 0 51 8 68 21c23 19 37 47 37 78c0 36 -20 59 -63 59h-106z" />
    <glyph glyph-name="C" unicode="C" horiz-adv-x="738" 
d="M43 305c0 230 193 422 433 422c95 0 293 -29 269 -140l-23 -116h-158l10 52c8 45 -63 54 -101 54c-159 0 -245 -145 -245 -263c0 -96 50 -176 163 -176c52 0 110 13 118 54l10 52h160l-20 -106c-21 -117 -181 -150 -280 -150c-198 0 -336 129 -336 317z" />
    <glyph glyph-name="D" unicode="D" horiz-adv-x="788" 
d="M-7 0l25 130h79l88 455h-79l25 130h301c64 0 113 -7 161 -23c113 -40 175 -129 175 -266c0 -174 -103 -339 -263 -400c-52 -19 -101 -26 -161 -26h-351zM278 140h62c42 0 79 8 111 24c84 42 137 143 137 249c0 77 -27 124 -78 147c-25 11 -51 15 -86 15h-62z" />
    <glyph glyph-name="E" unicode="E" horiz-adv-x="661" 
d="M-8 0l25 130h79l89 455h-80l25 130h551l-41 -211h-150l14 71h-142l-28 -145h209l-28 -140h-209l-29 -150h154l14 71h150l-41 -211h-562z" />
    <glyph glyph-name="F" unicode="F" horiz-adv-x="611" 
d="M-8 0l25 130h79l89 455h-80l25 130h533l-41 -211h-150l12 61h-124l-30 -155h210l-28 -140h-210l-27 -140h90l-25 -130h-348z" />
    <glyph glyph-name="G" unicode="G" horiz-adv-x="770" 
d="M43 304c0 232 196 423 444 423c97 0 298 -29 274 -140l-23 -116h-158l10 52c8 45 -66 54 -106 54c-167 0 -256 -145 -256 -266c0 -96 42 -173 178 -173c50 0 127 12 135 52l10 49h-116l26 130h275l-46 -232c-21 -112 -183 -149 -303 -149c-208 0 -344 129 -344 316z" />
    <glyph glyph-name="H" unicode="H" horiz-adv-x="875" 
d="M-7 0l25 130h79l88 455h-79l25 130h339l-25 -130h-80l-31 -160h256l31 160h-80l25 130h339l-25 -130h-80l-89 -455h80l-25 -130h-339l25 130h80l30 155h-256l-30 -155h80l-25 -130h-338z" />
    <glyph glyph-name="I" unicode="I" horiz-adv-x="440" 
d="M-7 0l25 130h79l88 455h-79l25 130h339l-25 -130h-81l-88 -455h80l-25 -130h-338z" />
    <glyph glyph-name="J" unicode="J" horiz-adv-x="581" 
d="M-7 177c0 25 4 47 8 66l8 29h169l-6 -26c-3 -15 -7 -33 -7 -50c0 -39 21 -53 48 -53c35 0 60 22 71 75l72 367h-94l25 130h343l-25 -130h-70l-73 -375c-30 -150 -138 -222 -255 -222c-109 0 -214 65 -214 189z" />
    <glyph glyph-name="K" unicode="K" horiz-adv-x="752" 
d="M-7 0l25 130h79l88 455h-79l25 130h311l-25 -130h-53l-29 -151h56l134 151h-49l25 130h292l-25 -130h-60l-193 -215v-2c5 -3 9 -8 13 -13c7 -9 15 -22 22 -41l45 -137c11 -35 17 -49 52 -49c7 0 13 0 20 1c4 1 8 1 12 1l-24 -130c-19 -3 -58 -3 -74 -3
c-108 0 -138 56 -154 108l-47 156c-7 22 -23 33 -49 33h-23l-32 -164h75l-25 -130h-333z" />
    <glyph glyph-name="L" unicode="L" horiz-adv-x="634" 
d="M-6 0l25 130h79l87 445h-80l27 140h339l-27 -140h-81l-84 -435h154l21 105h150l-48 -245h-562z" />
    <glyph glyph-name="M" unicode="M" horiz-adv-x="987" 
d="M-19 0l25 130h77l122 455h-78l25 130h276l51 -354c4 -23 5 -40 6 -53c1 -7 1 -14 0 -21h2c2 7 5 14 8 21c7 13 15 30 26 53l189 354h286l-25 -130h-78l-56 -455h78l-25 -130h-321l25 130h71l33 257c3 15 7 35 12 51l8 29h-4c-4 -9 -8 -18 -11 -27c-7 -15 -14 -34 -23 -49
l-145 -261h-150l-43 261c-3 15 -4 34 -4 49v27h-4l-3 -29c-3 -16 -5 -36 -9 -51l-67 -257h71l-25 -130h-320z" />
    <glyph glyph-name="N" unicode="N" horiz-adv-x="858" 
d="M-8 0l25 130h79l89 455h-80l25 130h256l153 -386c7 -15 10 -31 13 -46c2 -8 3 -16 3 -24h4c0 9 1 18 2 27c2 17 5 33 8 50l49 249h-84l25 130h343l-25 -130h-80l-114 -585h-176l-155 385c-5 15 -9 30 -12 45c-2 8 -3 16 -4 24h-4c0 -9 -1 -17 -2 -26
c-3 -15 -4 -34 -7 -50l-48 -248h84l-25 -130h-342z" />
    <glyph glyph-name="O" unicode="O" horiz-adv-x="818" 
d="M43 307c0 228 201 420 429 420c194 0 327 -132 327 -312c0 -232 -204 -427 -430 -427c-195 0 -326 135 -326 319zM223 317c0 -104 64 -174 157 -174c117 0 238 114 238 261c0 101 -65 168 -158 168c-120 0 -237 -111 -237 -255z" />
    <glyph glyph-name="P" unicode="P" horiz-adv-x="686" 
d="M-7 0l25 130h80l89 455h-80l25 130h335c47 0 80 -4 115 -16c69 -27 120 -97 120 -193c0 -113 -70 -216 -170 -256c-37 -15 -80 -19 -124 -19h-111l-20 -101h81l-25 -130h-340zM324 371h82c23 0 42 5 59 14c35 20 57 63 57 111c0 28 -8 52 -25 65c-13 9 -29 14 -50 14h-83
z" />
    <glyph glyph-name="Q" unicode="Q" horiz-adv-x="818" 
d="M43 307c0 228 199 420 419 420c204 0 337 -132 337 -312c0 -115 -46 -202 -111 -274l60 -61l-110 -102l-59 70c-56 -39 -116 -60 -200 -60c-205 0 -336 135 -336 319zM223 317c0 -104 65 -174 158 -174c31 0 64 8 93 23l-82 92l108 100l79 -90c24 39 39 85 39 136
c0 101 -65 168 -158 168c-120 0 -237 -111 -237 -255z" />
    <glyph glyph-name="R" unicode="R" horiz-adv-x="741" 
d="M-7 0l25 130h80l89 455h-80l25 130h341c41 0 82 -3 117 -18c60 -27 104 -84 104 -172c0 -82 -40 -193 -152 -233v-3l15 -16c8 -11 16 -24 23 -41l20 -55c12 -33 18 -49 51 -49c7 0 13 0 20 1c3 1 7 1 10 1l-24 -130c-19 -3 -55 -3 -71 -3c-106 0 -138 56 -154 108
l-37 113c-7 22 -23 33 -49 33h-44l-24 -121h74l-25 -130h-334zM328 391h75c63 0 111 38 111 110c0 26 -7 45 -21 57c-13 11 -33 17 -60 17h-69z" />
    <glyph glyph-name="S" unicode="S" horiz-adv-x="630" 
d="M20 174l15 80h160l-10 -49c-11 -48 50 -62 103 -62c77 0 106 40 106 75c0 92 -301 66 -301 281c0 159 144 228 299 228c88 0 248 -26 224 -149l-19 -94h-160l9 46c8 34 -35 42 -75 42c-60 0 -99 -19 -99 -62c0 -100 302 -63 302 -283c0 -158 -145 -239 -309 -239
c-103 0 -272 46 -245 186z" />
    <glyph glyph-name="T" unicode="T" horiz-adv-x="698" 
d="M120 0l25 130h80l87 445h-86l-19 -101h-150l47 241h649l-47 -241h-150l19 101h-84l-87 -445h80l-25 -130h-339z" />
    <glyph glyph-name="U" unicode="U" horiz-adv-x="824" 
d="M96 212c0 19 3 45 11 86l56 287h-80l25 130h339l-25 -130h-80l-55 -287c-7 -37 -10 -48 -10 -65c0 -60 38 -90 105 -90c44 0 81 14 108 41c19 21 32 47 38 79l62 322h-80l25 130h339l-25 -130h-80l-63 -327c-19 -95 -65 -170 -133 -217c-53 -35 -118 -53 -194 -53
c-152 0 -283 73 -283 224z" />
    <glyph glyph-name="V" unicode="V" horiz-adv-x="732" 
d="M216 0l-90 585h-60l25 130h311l-25 -130h-70l33 -314c3 -17 2 -37 1 -52l-2 -26h4l8 26c5 15 12 35 21 52l155 314h-70l25 130h321l-25 -130h-60l-318 -585h-184z" />
    <glyph glyph-name="W" unicode="W" horiz-adv-x="1036" 
d="M158 0l-28 585h-60l25 130h312l-25 -130h-83l4 -317c0 -17 -1 -36 -2 -51l-3 -24h4c2 8 4 16 7 24c5 15 11 34 19 51l197 447h138l23 -447c1 -19 1 -36 0 -51l-2 -24h4c1 8 3 16 6 24c4 15 10 34 17 51l128 317h-83l25 130h322l-25 -130h-60l-256 -585h-197l-20 366
c-1 19 0 38 1 53l3 26h-4l-8 -26c-5 -15 -12 -34 -20 -53l-162 -366h-197z" />
    <glyph glyph-name="X" unicode="X" horiz-adv-x="726" 
d="M-23 0l25 130h57l224 242l-122 213h-65l25 130h297l-25 -130h-62l52 -92c5 -9 9 -16 12 -23l5 -10h2l8 9c5 7 12 15 20 24l81 92h-57l25 130h291l-25 -130h-57l-221 -239l124 -216h63l-25 -130h-297l25 130h64l-53 93c-5 9 -10 18 -13 25l-5 11h-2l-9 -11
c-7 -7 -13 -14 -21 -25l-82 -93h59l-25 -130h-293z" />
    <glyph glyph-name="Y" unicode="Y" horiz-adv-x="671" 
d="M108 0l25 130h80l32 163l-118 292h-61l25 130h289l-25 -130h-60l47 -132c4 -11 6 -18 7 -25l2 -10h2c1 3 3 7 6 10c4 7 10 14 17 25l99 132h-60l25 130h302l-25 -130h-61l-232 -292l-32 -163h80l-25 -130h-339z" />
    <glyph glyph-name="Z" unicode="Z" horiz-adv-x="664" 
d="M-7 0l21 110l381 432c10 11 19 20 26 25l13 9v2c-5 0 -9 0 -14 -1c-8 -1 -18 -2 -29 -2h-133l-20 -101h-150l47 241h549l-21 -108l-383 -434c-8 -9 -17 -17 -26 -24c-5 -3 -9 -7 -13 -10v-2l14 2c8 1 18 1 29 1h150l21 105h150l-48 -245h-564z" />
    <glyph glyph-name="bracketleft" unicode="[" horiz-adv-x="365" 
d="M8 -95l165 845h246l-24 -120h-102l-117 -605h102l-24 -120h-246z" />
    <glyph glyph-name="backslash" unicode="\" horiz-adv-x="461" 
d="M224 -42l-103 792h138l103 -792h-138z" />
    <glyph glyph-name="bracketright" unicode="]" horiz-adv-x="364" 
d="M-19 25h102l117 605h-102l24 120h246l-165 -845h-245z" />
    <glyph glyph-name="asciicircum" unicode="^" horiz-adv-x="630" 
d="M0 241l203 474h107l203 -474h-145l-112 300l-111 -300h-145z" />
    <glyph glyph-name="underscore" unicode="_" horiz-adv-x="586" 
d="M-63 0h596l-25 -130h-595z" />
    <glyph glyph-name="grave" unicode="`" horiz-adv-x="484" 
d="M191 761l-122 150h171l87 -150h-136z" />
    <glyph glyph-name="a" unicode="a" horiz-adv-x="583" 
d="M-9 124c0 150 203 196 335 196h7l2 11c1 7 2 14 2 19c0 31 -29 42 -64 42s-70 -11 -101 -23c-17 -7 -34 -15 -51 -24l-35 125c21 11 44 21 68 29c41 15 96 28 153 28c85 0 201 -33 201 -159c0 -59 -35 -162 -35 -208c0 -23 11 -36 39 -36c4 0 9 1 13 1h6l-24 -125
c-3 -1 -7 -1 -13 -2c-11 -1 -25 -1 -52 -1c-54 0 -122 2 -140 76h-2c-12 -16 -26 -30 -43 -42c-28 -21 -69 -43 -121 -43c-76 0 -145 43 -145 136zM161 153c0 -27 13 -41 39 -41c48 0 99 58 110 99l3 12h-16c-37 0 -136 -10 -136 -70z" />
    <glyph glyph-name="b" unicode="b" horiz-adv-x="646" 
d="M15 0l114 590h-70l24 125h243l-38 -194c-3 -13 -4 -25 -7 -33c-1 -5 -3 -9 -4 -13h2c35 33 87 52 135 52c125 0 199 -88 199 -224c0 -187 -141 -315 -282 -315c-55 0 -113 18 -145 63h-2c0 -3 0 -5 -1 -8c-1 -5 0 -13 -3 -21l-4 -22h-161zM228 221c0 -49 25 -90 81 -90
c59 0 129 58 129 159c0 56 -30 91 -81 91c-53 0 -129 -58 -129 -160z" />
    <glyph glyph-name="c" unicode="c" horiz-adv-x="576" 
d="M15 219c0 147 126 308 334 308c88 0 230 -31 208 -141l-14 -72h-147l6 28c5 24 -22 41 -65 41c-93 0 -147 -83 -147 -151c0 -51 29 -101 113 -101c47 0 85 15 116 30c17 9 33 18 48 29l44 -127c-17 -13 -36 -26 -58 -37c-39 -19 -95 -38 -168 -38
c-179 0 -270 106 -270 231z" />
    <glyph glyph-name="d" unicode="d" horiz-adv-x="674" 
d="M17 209c0 191 136 318 289 318c43 0 100 -8 129 -51h2c0 3 0 5 1 8l2 15l17 91h-69l24 125h243l-101 -522c-3 -11 -4 -22 -4 -33c0 -23 11 -36 39 -36c4 0 9 1 13 1h6l-24 -125l-15 -2c-11 -1 -23 -1 -42 -1c-68 0 -132 1 -148 76h-2c-36 -51 -101 -85 -160 -85
c-127 0 -200 86 -200 221zM192 222c0 -56 30 -91 81 -91c55 0 128 62 128 159c0 49 -24 91 -80 91c-59 0 -129 -58 -129 -159z" />
    <glyph glyph-name="e" unicode="e" horiz-adv-x="563" 
d="M17 213c0 179 127 314 297 314c146 0 220 -83 220 -202c0 -23 -4 -48 -9 -67c-3 -11 -6 -22 -10 -32h-324v-3c0 -3 -1 -4 -1 -7c0 -52 40 -85 101 -85c39 0 76 13 105 26c17 7 33 16 48 26l44 -128c-18 -12 -38 -23 -60 -33c-37 -17 -88 -34 -148 -34
c-176 0 -263 104 -263 225zM212 321h152c0 3 0 5 1 8c1 4 1 9 1 12c0 32 -20 56 -55 56c-51 0 -83 -35 -99 -76z" />
    <glyph glyph-name="f" unicode="f" horiz-adv-x="391" 
d="M39 0l76 390h-70l24 125h70l4 21c32 169 186 191 265 191c19 0 32 -1 43 -2l17 -2l-28 -136l-11 2c-7 1 -16 1 -28 1c-24 0 -76 -1 -84 -50l-5 -25h106l-24 -125h-106l-76 -390h-173z" />
    <glyph glyph-name="g" unicode="g" horiz-adv-x="657" 
d="M-7 -157l66 119c10 -7 22 -12 36 -17c24 -8 60 -16 105 -16c72 0 120 25 139 104c3 13 4 21 7 28l3 10h-1c-35 -36 -71 -56 -126 -56c-136 0 -200 97 -200 216c0 144 100 296 275 296c59 0 93 -16 116 -33c13 -10 22 -21 28 -34h2v4c0 2 1 6 2 11c3 15 25 40 64 40h158
l-25 -125h-38c-15 0 -23 -6 -25 -19l-65 -329c-37 -187 -180 -252 -308 -252c-71 0 -123 13 -159 26c-21 7 -39 16 -54 27zM197 246c0 -49 23 -87 79 -87c76 0 119 84 119 149c0 60 -39 75 -83 75c-72 0 -115 -62 -115 -137z" />
    <glyph glyph-name="h" unicode="h" horiz-adv-x="676" 
d="M15 0l114 590h-69l24 125h243l-45 -231c-2 -11 -5 -22 -8 -31c-2 -5 -4 -9 -5 -13h2c13 17 29 31 46 44c31 23 75 43 132 43c85 0 150 -48 150 -144c0 -63 -36 -184 -36 -223c0 -23 11 -36 39 -36c4 0 9 1 13 1h6l-24 -125c-3 -1 -8 -1 -14 -2c-11 -1 -24 -1 -47 -1
c-68 0 -151 8 -151 119c0 59 34 176 34 211c0 24 -10 43 -49 43c-72 0 -123 -72 -139 -152l-43 -218h-173z" />
    <glyph glyph-name="i" unicode="i" horiz-adv-x="367" 
d="M152 580l26 135h169l-26 -135h-169zM64 116c0 19 3 39 8 64l41 210h-70l24 125h243l-63 -322c-3 -11 -4 -22 -4 -33c0 -23 11 -36 39 -36c4 0 9 1 13 1h6l-24 -125l-15 -2c-11 -1 -22 -1 -37 -1c-79 0 -161 7 -161 119z" />
    <glyph glyph-name="j" unicode="j" horiz-adv-x="343" 
d="M155 580l26 135h169l-26 -135h-169zM39 -8l77 398h-71l24 125h244l-100 -516c-35 -176 -188 -207 -266 -207c-19 0 -33 0 -44 1l-17 2l26 132c1 -1 3 -1 6 -1h16c35 0 94 7 105 66z" />
    <glyph glyph-name="k" unicode="k" horiz-adv-x="611" 
d="M15 0l114 590h-70l24 125h243l-76 -392h50l71 67h-51l24 125h265l-24 -125h-49l-123 -118v-2c3 -3 7 -7 10 -12c7 -8 13 -19 20 -36l27 -60c11 -24 23 -37 51 -37h28l-24 -125c-17 -3 -44 -3 -64 -3c-113 0 -122 49 -144 98l-32 78c-7 17 -16 27 -33 27h-26l-39 -200
h-172z" />
    <glyph glyph-name="l" unicode="l" horiz-adv-x="339" 
d="M37 125c0 20 2 42 7 65l78 400h-70l24 125h243l-98 -510c-3 -15 -5 -28 -5 -39c0 -24 11 -33 39 -33c7 0 11 1 15 1h6l-27 -136l-15 -2c-11 -1 -22 -1 -37 -1c-79 0 -160 16 -160 130z" />
    <glyph glyph-name="m" unicode="m" horiz-adv-x="982" 
d="M39 0l72 369c3 14 -3 21 -18 21h-48l24 125h163c43 0 62 -18 62 -46c0 -12 -4 -29 -8 -41h2c15 19 31 35 49 50c31 25 75 49 126 49c56 0 110 -33 121 -105h2c37 57 97 105 177 105c79 0 141 -47 141 -145c0 -60 -36 -182 -36 -222c0 -23 11 -36 39 -36c4 0 9 1 13 1h6
l-24 -125c-3 -1 -8 -1 -14 -2c-11 -1 -24 -1 -47 -1c-68 0 -151 8 -151 119c0 56 35 181 35 216c0 24 -7 38 -39 38c-61 0 -104 -72 -120 -157l-42 -213h-173l60 305c3 12 4 22 4 31c0 21 -9 34 -37 34c-71 0 -110 -84 -126 -167l-40 -203h-173z" />
    <glyph glyph-name="n" unicode="n" horiz-adv-x="700" 
d="M39 0l72 368c3 15 -3 22 -18 22h-48l24 125h164c41 0 61 -16 61 -47c0 -13 -3 -26 -8 -40h2c13 19 29 35 47 50c31 25 78 49 139 49c84 0 149 -47 149 -145c0 -64 -36 -181 -36 -222c0 -23 11 -36 39 -36c4 0 9 1 13 1h6l-24 -125c-3 -1 -8 -1 -14 -2
c-11 -1 -24 -1 -47 -1c-68 0 -151 8 -151 119c0 59 34 176 34 211c0 24 -10 43 -49 43c-72 0 -123 -72 -139 -152l-43 -218h-173z" />
    <glyph glyph-name="o" unicode="o" horiz-adv-x="635" 
d="M16 219c0 181 159 308 331 308c148 0 257 -91 257 -231c0 -182 -161 -308 -331 -308c-147 0 -257 91 -257 231zM191 227c0 -60 39 -95 95 -95c69 0 143 59 143 153c0 61 -39 98 -94 98c-68 0 -144 -62 -144 -156z" />
    <glyph glyph-name="p" unicode="p" horiz-adv-x="671" 
d="M2 -200l109 568c2 15 -4 22 -17 22h-48l24 125h159c45 0 58 -18 58 -38c0 -6 -1 -12 -3 -17l-3 -9h2c39 49 95 76 156 76c124 0 199 -88 199 -224c0 -187 -141 -315 -282 -315c-52 0 -100 17 -135 54h-2l-2 -12c-1 -8 -2 -19 -5 -32l-37 -198h-173zM254 222
c0 -51 24 -91 80 -91c60 0 129 58 129 159c0 56 -29 91 -80 91c-53 0 -129 -58 -129 -159z" />
    <glyph glyph-name="q" unicode="q" horiz-adv-x="646" 
d="M17 209c0 191 136 318 289 318c65 0 111 -20 139 -60h2v7c0 6 1 13 3 22l4 19h162l-115 -593h70l-24 -122h-243l39 202c3 13 4 24 7 32c1 5 3 9 4 12h-2c-21 -21 -67 -58 -135 -58c-127 0 -200 86 -200 221zM192 222c0 -56 30 -91 81 -91c55 0 128 62 128 159
c0 49 -24 91 -80 91c-59 0 -129 -58 -129 -159z" />
    <glyph glyph-name="r" unicode="r" horiz-adv-x="464" 
d="M41 0l71 368c3 11 -1 22 -18 22h-48l25 125h163c41 0 62 -16 62 -47c0 -15 -7 -49 -14 -72h2c33 70 105 128 178 128c11 0 18 0 21 -1s6 -1 9 -1l-33 -170l-9 2c-7 1 -14 1 -25 1c-51 0 -152 -35 -176 -171l-35 -184h-173z" />
    <glyph glyph-name="s" unicode="s" horiz-adv-x="517" 
d="M-5 130l10 52h145l-4 -18c-8 -38 47 -45 79 -45c51 0 66 17 66 34c0 65 -233 38 -233 202c0 123 126 172 249 172c90 0 199 -33 183 -124l-11 -58h-145l3 20c5 28 -29 31 -50 31c-41 0 -61 -10 -61 -31c0 -72 235 -31 235 -194c0 -115 -110 -183 -258 -183
c-88 0 -229 34 -208 142z" />
    <glyph glyph-name="t" unicode="t" horiz-adv-x="409" 
d="M65 160c0 11 2 25 5 40l38 190h-70l24 125h76l27 139h166l-27 -139h109l-24 -125h-109l-34 -179c-3 -9 -3 -22 -3 -27c0 -43 38 -51 76 -51c9 0 16 0 19 1s5 1 8 1l-27 -137l-15 -2c-9 -1 -20 -1 -31 -1c-113 0 -208 46 -208 165z" />
    <glyph glyph-name="u" unicode="u" horiz-adv-x="702" 
d="M65 131c0 16 2 37 6 57l39 202h-70l25 125h243l-59 -302c-3 -11 -4 -22 -4 -29c0 -29 15 -44 45 -44c71 0 123 79 137 147l20 103h-70l25 125h243l-63 -322c-3 -11 -4 -22 -4 -33c0 -23 11 -36 39 -36c4 0 9 1 13 1h6l-24 -125l-17 -2c-11 -1 -27 -1 -50 -1
c-55 0 -128 3 -139 95h-2c-43 -60 -102 -104 -186 -104s-153 44 -153 143z" />
    <glyph glyph-name="v" unicode="v" horiz-adv-x="624" 
d="M152 0l-67 390h-58l25 125h269l-25 -125h-46l23 -186c3 -15 2 -33 2 -46c0 -7 0 -15 -1 -22h4c2 7 4 15 7 22c5 13 12 31 20 46l95 186h-46l25 125h279l-25 -125h-58l-219 -390h-204z" />
    <glyph glyph-name="w" unicode="w" horiz-adv-x="876" 
d="M111 0l-22 390h-59l25 125h269l-25 -125h-51l3 -179c1 -15 -1 -32 -2 -45l-3 -23h4c1 8 3 16 6 23c4 13 8 30 15 45l131 304h148l11 -304c1 -15 1 -32 -2 -45l-3 -23h4c1 8 3 16 6 23l15 45l73 179h-51l25 125h279l-25 -125h-59l-174 -390h-200l-11 238c-1 16 0 33 1 46
l3 22h-4c-1 -7 -3 -15 -6 -22c-4 -13 -9 -30 -16 -46l-105 -238h-200z" />
    <glyph glyph-name="x" unicode="x" horiz-adv-x="575" 
d="M-24 0l24 125h57l131 139l-60 109c-7 13 -15 17 -34 17h-43l25 125h112c37 0 51 -6 66 -39l29 -66c4 -9 8 -18 11 -27l4 -13h2l9 13c5 8 12 18 20 27l88 105h164l-25 -125h-51l-132 -139l52 -89c15 -23 22 -37 50 -37h33l-24 -125c-17 -3 -39 -3 -54 -3
c-104 0 -120 50 -144 98l-6 12c-4 9 -8 18 -11 27l-4 13h-2l-8 -13c-5 -8 -13 -16 -21 -27l-89 -107h-169z" />
    <glyph glyph-name="y" unicode="y" horiz-adv-x="628" 
d="M-80 -168l74 119c6 -4 13 -8 20 -11c13 -7 34 -11 61 -11c36 0 73 10 93 42l3 5l-89 414h-58l24 125h278l-24 -125h-50l26 -191c3 -15 2 -32 1 -45l-2 -22h4l8 22c5 13 12 28 21 45l98 191h-47l24 125h272l-24 -125h-53l-251 -435c-75 -129 -163 -165 -257 -165
c-48 0 -85 10 -112 21c-15 7 -29 14 -40 21z" />
    <glyph glyph-name="z" unicode="z" horiz-adv-x="555" 
d="M-15 0l20 106l270 255c11 9 19 16 26 21c4 3 8 5 11 8v2c-5 0 -10 0 -15 -1c-9 -1 -20 -1 -31 -1h-61l-12 -62h-145l37 187h460l-21 -107l-266 -254c-9 -9 -19 -16 -26 -21c-4 -3 -8 -5 -11 -8v-2c5 0 11 0 16 1c9 1 19 1 30 1h72l12 62h145l-37 -187h-474z" />
    <glyph glyph-name="braceleft" unicode="{" horiz-adv-x="386" 
d="M64 38c0 13 1 26 4 39l16 83c2 10 3 19 3 26c0 35 -17 52 -34 61c-10 5 -22 8 -35 9l29 150c16 1 31 5 45 12c24 12 50 38 59 87l20 103c26 131 155 158 270 145l-24 -124c-38 8 -100 -4 -108 -52l-26 -132c-9 -45 -36 -74 -61 -91c-15 -10 -31 -18 -48 -23v-2
c12 -4 23 -11 32 -20c16 -16 31 -42 31 -87c0 -9 -1 -20 -3 -32l-21 -107c-1 -7 -2 -12 -2 -17c0 -44 57 -45 89 -40l-24 -124c-4 0 -8 0 -13 -1c-8 -1 -18 -1 -31 -1c-48 0 -168 18 -168 138z" />
    <glyph glyph-name="bar" unicode="|" horiz-adv-x="366" 
d="M114 -165v967h144v-967h-144z" />
    <glyph glyph-name="braceright" unicode="}" horiz-adv-x="386" 
d="M-44 -98l24 124c39 -10 100 6 108 52l28 139c9 45 36 74 61 91c15 10 31 18 48 23v2c-11 4 -22 11 -31 20c-16 16 -32 43 -32 87c0 9 1 20 3 32l20 105c1 3 1 7 1 12c0 44 -57 45 -89 40l24 124c86 13 212 -23 212 -136c0 -13 -1 -26 -4 -39l-14 -76
c-2 -10 -3 -19 -3 -26c0 -35 18 -52 35 -61c10 -5 21 -8 34 -9l-29 -150c-16 -1 -31 -5 -45 -12c-24 -12 -48 -36 -59 -87l-22 -110c-26 -131 -155 -158 -270 -145z" />
    <glyph glyph-name="asciitilde" unicode="~" horiz-adv-x="616" 
d="M174 191h-134c0 135 58 203 174 203c93 0 120 -80 172 -80c32 0 55 25 55 76h133c0 -135 -58 -203 -173 -203c-94 0 -119 80 -173 80c-31 0 -54 -25 -54 -76z" />
    <glyph glyph-name="exclamdown" unicode="&#xa1;" horiz-adv-x="295" 
d="M81 365l29 150h158l-29 -150h-158zM-38 -200l112 494h148l-80 -494h-180z" />
    <glyph glyph-name="cent" unicode="&#xa2;" 
d="M192 -12l18 92c-96 31 -164 115 -164 236c0 191 148 307 273 326l16 84h110l-17 -91c68 -19 104 -61 127 -98c13 -22 22 -45 27 -70l-155 -56c-1 14 -5 26 -12 37c-11 19 -31 36 -68 36c-55 0 -127 -67 -127 -163c0 -60 33 -89 78 -89c37 0 65 17 84 36
c11 11 21 22 29 35l146 -62c-15 -29 -33 -56 -56 -80c-39 -41 -98 -84 -183 -92l-16 -81h-110z" />
    <glyph glyph-name="sterling" unicode="&#xa3;" horiz-adv-x="635" 
d="M-15 0l25 135h79l33 164h-74l22 112h73l22 110c24 123 131 206 264 206c63 0 111 -22 144 -45c19 -13 36 -28 50 -45l-106 -106c-8 8 -17 15 -27 21c-17 11 -39 20 -66 20c-39 0 -75 -25 -83 -66l-19 -95h155l-22 -112h-154l-33 -164h152l22 110h150l-47 -245h-560z" />
    <glyph glyph-name="yen" unicode="&#xa5;" horiz-adv-x="662" 
d="M180 0l33 167h-163l18 96h163l6 28l-15 49h-139l19 96h92l-83 279h191l28 -143c7 -33 12 -66 16 -91c3 -15 5 -29 6 -42h2c5 13 12 27 19 42c12 25 28 59 47 91l79 143h208l-192 -279h93l-19 -96h-140l-33 -49l-6 -28h164l-18 -96h-164l-33 -167h-179z" />
    <glyph glyph-name="section" unicode="&#xa7;" horiz-adv-x="520" 
d="M120 179l-22 263c-13 152 70 285 243 285c68 0 122 -20 158 -41c21 -12 40 -26 55 -41l-86 -98c-9 7 -20 14 -33 21c-23 11 -54 21 -94 21c-91 0 -125 -61 -117 -150l22 -260h-126zM-20 20l86 98c10 -7 21 -14 34 -21c23 -11 53 -21 93 -21c91 0 125 61 117 150l-22 260
h126l22 -263c13 -152 -70 -285 -243 -285c-68 0 -121 20 -157 41c-21 12 -40 26 -56 41z" />
    <glyph glyph-name="dieresis" unicode="&#xa8;" horiz-adv-x="485" 
d="M232 771l28 140h131l-28 -140h-131zM-13 771l28 140h131l-28 -140h-131z" />
    <glyph glyph-name="copyright" unicode="&#xa9;" horiz-adv-x="803" 
d="M52 358c0 204 162 368 359 368c202 0 363 -164 363 -368s-161 -370 -363 -370c-197 0 -359 166 -359 370zM165 358c0 -148 107 -267 246 -267c142 0 251 119 251 267s-109 265 -251 265c-139 0 -246 -117 -246 -265zM241 355c0 106 80 187 172 187c65 0 106 -28 130 -57
c14 -17 25 -37 32 -58l-100 -39c-3 9 -7 18 -12 25c-9 12 -23 24 -46 24c-31 0 -59 -33 -59 -82c0 -55 24 -82 59 -82c23 0 37 13 46 25c5 7 9 15 12 24l100 -39c-7 -21 -18 -40 -32 -57c-24 -29 -65 -58 -130 -58c-92 0 -172 81 -172 187z" />
    <glyph glyph-name="ordfeminine" unicode="&#xaa;" horiz-adv-x="419" 
d="M179 383c-49 0 -92 32 -92 87c0 119 153 119 199 119h10l2 9c1 5 1 10 1 13c0 19 -16 27 -41 27c-19 0 -40 -5 -57 -12c-10 -3 -20 -8 -29 -13l-25 78c11 6 25 12 40 17c27 9 63 17 108 17c81 0 121 -40 121 -107c0 -10 -1 -21 -3 -33l-38 -195h-108l8 44h-2
c-6 -9 -14 -18 -23 -25c-16 -13 -39 -26 -71 -26zM227 467c24 0 48 16 55 59h-10c-31 0 -68 -12 -68 -39c0 -13 8 -20 23 -20zM51 268l16 85h305l-17 -85h-304z" />
    <glyph glyph-name="guillemotleft" unicode="&#xab;" horiz-adv-x="663" 
d="M416 77l-130 205l213 206h167l-227 -213l130 -198h-153zM156 77l-130 205l191 206h164l-202 -213l130 -198h-153z" />
    <glyph glyph-name="logicalnot" unicode="&#xac;" horiz-adv-x="642" 
d="M63 337v130h506v-335h-135v205h-371z" />
    <glyph glyph-name="registered" unicode="&#xae;" horiz-adv-x="803" 
d="M52 358c0 204 162 368 359 368c202 0 363 -164 363 -368s-161 -370 -363 -370c-197 0 -359 166 -359 370zM165 358c0 -148 107 -267 246 -267c142 0 251 119 251 267s-109 265 -251 265c-139 0 -246 -117 -246 -265zM281 187v347h163c76 0 122 -44 122 -115
c0 -57 -41 -83 -58 -89v-2l3 -4c3 -3 6 -7 10 -16l63 -121h-118l-49 118h-28v-118h-108zM389 377h27c27 0 40 14 40 42c0 27 -13 41 -38 41h-29v-83z" />
    <glyph glyph-name="macron" unicode="&#xaf;" horiz-adv-x="485" 
d="M42 782l22 112h275l-22 -112h-275z" />
    <glyph glyph-name="degree" unicode="&#xb0;" horiz-adv-x="422" 
d="M245 385c-99 0 -168 66 -168 155c0 99 96 190 195 190s169 -68 169 -156c0 -102 -99 -189 -196 -189zM253 505c29 0 62 26 62 58c0 28 -20 47 -51 47c-32 0 -61 -29 -61 -60c0 -27 19 -45 50 -45z" />
    <glyph glyph-name="plusminus" unicode="&#xb1;" horiz-adv-x="630" 
d="M40 222v130h205v223h136v-223h205v-130h-205v-222h-136v222h-205zM50 -70h526v-130h-526v130z" />
    <glyph glyph-name="acute" unicode="&#xb4;" horiz-adv-x="484" 
d="M26 761l145 150h183l-180 -150h-148z" />
    <glyph glyph-name="mu" unicode="&#xb5;" horiz-adv-x="633" 
d="M132 -96l-20 -104h-147l139 715h173l-58 -296c-2 -12 -3 -22 -3 -30c0 -29 15 -44 46 -44c66 0 120 66 134 142l44 228h173l-100 -515h-167l5 26l8 35c2 6 4 11 5 16h-2c-29 -45 -94 -89 -166 -89c-19 0 -37 2 -53 5h-2c0 -10 0 -20 -1 -30c-1 -18 -4 -38 -8 -59z" />
    <glyph glyph-name="mu" unicode="&#x3bc;" horiz-adv-x="633" 
d="M132 -96l-20 -104h-147l139 715h173l-58 -296c-2 -12 -3 -22 -3 -30c0 -29 15 -44 46 -44c66 0 120 66 134 142l44 228h173l-100 -515h-167l5 26l8 35c2 6 4 11 5 16h-2c-29 -45 -94 -89 -166 -89c-19 0 -37 2 -53 5h-2c0 -10 0 -20 -1 -30c-1 -18 -4 -38 -8 -59z" />
    <glyph glyph-name="paragraph" unicode="&#xb6;" horiz-adv-x="666" 
d="M192 -50l57 291c-99 0 -192 87 -192 210c0 144 134 264 269 264h372l-29 -150h-237l-120 -615h-120zM374 -50l110 565h120l-110 -565h-120z" />
    <glyph glyph-name="periodcentered" unicode="&#xb7;" horiz-adv-x="298" 
d="M53 213l31 164h158l-31 -164h-158z" />
    <glyph glyph-name="cedilla" unicode="&#xb8;" horiz-adv-x="484" 
d="M93 -104l70 133l69 -17l-2 -7l-29 -55c45 -3 80 -31 80 -74c0 -83 -92 -110 -160 -110c-17 0 -35 1 -47 4c-7 1 -14 3 -20 5l14 75l14 -4c9 -3 19 -4 34 -4c19 0 53 3 53 30c0 19 -26 24 -51 24h-25z" />
    <glyph glyph-name="ordmasculine" unicode="&#xba;" horiz-adv-x="462" 
d="M257 385c-93 0 -162 58 -162 146c0 114 103 194 207 194c94 0 162 -58 162 -146c0 -114 -104 -194 -207 -194zM267 488c36 0 77 30 77 82c0 32 -22 53 -51 53c-37 0 -78 -33 -78 -84c0 -32 21 -51 52 -51zM55 268l17 85h338l-17 -85h-338z" />
    <glyph glyph-name="guillemotright" unicode="&#xbb;" horiz-adv-x="662" 
d="M276 77l202 213l-130 198h153l130 -205l-191 -206h-164zM-9 77l227 213l-130 198h153l130 -205l-213 -206h-167z" />
    <glyph glyph-name="questiondown" unicode="&#xbf;" horiz-adv-x="516" 
d="M228 365l29 150h158l-29 -150h-158zM-18 -30c0 177 207 212 223 293l6 31h166l-8 -45c-24 -145 -205 -170 -205 -253c0 -29 25 -49 60 -49c27 0 52 10 71 21c11 7 22 14 32 22l79 -127c-18 -14 -38 -26 -60 -37c-39 -19 -90 -36 -150 -36c-109 0 -214 62 -214 180z" />
    <glyph glyph-name="Agrave" unicode="&#xc0;" horiz-adv-x="732" 
d="M-47 0l25 130h58l309 585h204l81 -585h59l-25 -130h-294l25 130h62l-8 95h-184l-46 -95h62l-26 -130h-302zM329 361h107l-11 132c-3 23 -2 41 -1 54c1 7 1 14 1 21h-4c-1 -7 -3 -14 -6 -21c-5 -13 -11 -31 -22 -54zM404 761l-122 150h171l87 -150h-136z" />
    <glyph glyph-name="Aacute" unicode="&#xc1;" horiz-adv-x="734" 
d="M-46 0l25 130h58l309 585h204l81 -585h59l-25 -130h-294l25 130h62l-8 95h-184l-46 -95h62l-26 -130h-302zM330 361h107l-11 132c-3 23 -2 41 -1 54c1 7 1 14 1 21h-4c-1 -7 -3 -14 -6 -21c-5 -13 -11 -31 -22 -54zM361 761l145 150h183l-180 -150h-148z" />
    <glyph glyph-name="Acircumflex" unicode="&#xc2;" horiz-adv-x="734" 
d="M-46 0l25 130h58l309 585h204l81 -585h59l-25 -130h-294l25 130h62l-8 95h-184l-46 -95h62l-26 -130h-302zM330 361h107l-11 132c-3 23 -2 41 -1 54c1 7 1 14 1 21h-4c-1 -7 -3 -14 -6 -21c-5 -13 -11 -31 -22 -54zM266 761l129 150h168l69 -150h-130l-31 82h-2l-63 -82
h-140z" />
    <glyph glyph-name="Atilde" unicode="&#xc3;" horiz-adv-x="734" 
d="M-46 0l25 130h58l309 585h204l81 -585h59l-25 -130h-294l25 130h62l-8 95h-184l-46 -95h62l-26 -130h-302zM330 361h107l-11 132c-3 23 -2 41 -1 54c1 7 1 14 1 21h-4c-1 -7 -3 -14 -6 -21c-5 -13 -11 -31 -22 -54zM374 761h-113c19 96 71 153 144 153
c72 0 76 -60 113 -60c23 0 37 19 44 57h113c-17 -96 -70 -153 -142 -153s-78 60 -115 60c-21 0 -36 -19 -44 -57z" />
    <glyph glyph-name="Adieresis" unicode="&#xc4;" horiz-adv-x="734" 
d="M-46 0l25 130h58l309 585h204l81 -585h59l-25 -130h-294l25 130h62l-8 95h-184l-46 -95h62l-26 -130h-302zM330 361h107l-11 132c-3 23 -2 41 -1 54c1 7 1 14 1 21h-4c-1 -7 -3 -14 -6 -21c-5 -13 -11 -31 -22 -54zM513 771l28 140h131l-28 -140h-131zM268 771l28 140
h131l-28 -140h-131z" />
    <glyph glyph-name="Aring" unicode="&#xc5;" horiz-adv-x="734" 
d="M-46 0l25 130h58l309 585h204l81 -585h59l-25 -130h-294l25 130h62l-8 95h-184l-46 -95h62l-26 -130h-302zM330 361h107l-11 132c-3 23 -2 41 -1 54c1 7 1 14 1 21h-4c-1 -7 -3 -14 -6 -21c-5 -13 -11 -31 -22 -54zM456 747c-51 0 -99 23 -99 73c0 69 67 98 122 98
c51 0 100 -24 100 -76c0 -67 -71 -95 -123 -95zM461 797c23 0 43 18 43 43c0 19 -10 28 -29 28c-23 0 -42 -18 -42 -45c0 -17 9 -26 28 -26z" />
    <glyph glyph-name="AE" unicode="&#xc6;" horiz-adv-x="1008" 
d="M-44 0l25 130h54l275 455h-67l25 130h760l-41 -211h-140l14 71h-146l-28 -145h204l-28 -140h-204l-29 -150h158l14 71h140l-41 -211h-558l25 130h81l32 163h-167l-94 -163h67l-25 -130h-306zM390 424h116l30 151h-57z" />
    <glyph glyph-name="Ccedilla" unicode="&#xc7;" horiz-adv-x="738" 
d="M241 -104l53 101c-152 32 -251 148 -251 308c0 230 193 422 433 422c95 0 293 -29 269 -140l-23 -116h-158l10 52c8 45 -63 54 -101 54c-159 0 -245 -145 -245 -263c0 -96 50 -176 163 -176c52 0 110 13 118 54l10 52h160l-20 -106c-21 -117 -181 -150 -280 -150h-10
l-20 -38c45 -3 80 -31 80 -74c0 -83 -92 -110 -160 -110c-17 0 -35 1 -47 4c-7 1 -14 3 -20 5l14 75l14 -4c9 -3 19 -4 34 -4c19 0 53 3 53 30c0 19 -26 24 -51 24h-25z" />
    <glyph glyph-name="Egrave" unicode="&#xc8;" horiz-adv-x="661" 
d="M-8 0l25 130h79l89 455h-80l25 130h551l-41 -211h-150l14 71h-142l-28 -145h209l-28 -140h-209l-29 -150h154l14 71h150l-41 -211h-562zM385 761l-122 150h171l87 -150h-136z" />
    <glyph glyph-name="Eacute" unicode="&#xc9;" horiz-adv-x="661" 
d="M-8 0l25 130h79l89 455h-80l25 130h551l-41 -211h-150l14 71h-142l-28 -145h209l-28 -140h-209l-29 -150h154l14 71h150l-41 -211h-562zM341 761l145 150h183l-180 -150h-148z" />
    <glyph glyph-name="Ecircumflex" unicode="&#xca;" horiz-adv-x="661" 
d="M-8 0l25 130h79l89 455h-80l25 130h551l-41 -211h-150l14 71h-142l-28 -145h209l-28 -140h-209l-29 -150h154l14 71h150l-41 -211h-562zM246 761l129 150h168l69 -150h-130l-31 82h-2l-63 -82h-140z" />
    <glyph glyph-name="Edieresis" unicode="&#xcb;" horiz-adv-x="661" 
d="M-8 0l25 130h79l89 455h-80l25 130h551l-41 -211h-150l14 71h-142l-28 -145h209l-28 -140h-209l-29 -150h154l14 71h150l-41 -211h-562zM493 771l28 140h131l-28 -140h-131zM248 771l28 140h131l-28 -140h-131z" />
    <glyph glyph-name="Igrave" unicode="&#xcc;" horiz-adv-x="440" 
d="M-7 0l25 130h79l88 455h-79l25 130h339l-25 -130h-81l-88 -455h80l-25 -130h-338zM259 761l-122 150h171l87 -150h-136z" />
    <glyph glyph-name="Iacute" unicode="&#xcd;" horiz-adv-x="440" 
d="M-7 0l25 130h79l88 455h-79l25 130h339l-25 -130h-81l-88 -455h80l-25 -130h-338zM215 761l145 150h183l-180 -150h-148z" />
    <glyph glyph-name="Icircumflex" unicode="&#xce;" horiz-adv-x="440" 
d="M-7 0l25 130h79l88 455h-79l25 130h339l-25 -130h-81l-88 -455h80l-25 -130h-338zM120 761l129 150h168l69 -150h-130l-31 82h-2l-63 -82h-140z" />
    <glyph glyph-name="Idieresis" unicode="&#xcf;" horiz-adv-x="440" 
d="M-7 0l25 130h79l88 455h-79l25 130h339l-25 -130h-81l-88 -455h80l-25 -130h-338zM367 771l28 140h131l-28 -140h-131zM122 771l28 140h131l-28 -140h-131z" />
    <glyph glyph-name="Ntilde" unicode="&#xd1;" horiz-adv-x="858" 
d="M-8 0l25 130h79l89 455h-80l25 130h256l153 -386c7 -15 10 -31 13 -46c2 -8 3 -16 3 -24h4c0 9 1 18 2 27c2 17 5 33 8 50l49 249h-84l25 130h343l-25 -130h-80l-114 -585h-176l-155 385c-5 15 -9 30 -12 45c-2 8 -3 16 -4 24h-4c0 -9 -1 -17 -2 -26
c-3 -15 -4 -34 -7 -50l-48 -248h84l-25 -130h-342zM440 761h-113c19 96 71 153 144 153c72 0 76 -60 113 -60c23 0 37 19 44 57h113c-17 -96 -70 -153 -142 -153s-78 60 -115 60c-21 0 -36 -19 -44 -57z" />
    <glyph glyph-name="Ograve" unicode="&#xd2;" horiz-adv-x="818" 
d="M43 307c0 228 201 420 429 420c194 0 327 -132 327 -312c0 -232 -204 -427 -430 -427c-195 0 -326 135 -326 319zM223 317c0 -104 64 -174 157 -174c117 0 238 114 238 261c0 101 -65 168 -158 168c-120 0 -237 -111 -237 -255zM449 761l-122 150h171l87 -150h-136z" />
    <glyph glyph-name="Oacute" unicode="&#xd3;" horiz-adv-x="818" 
d="M43 307c0 228 201 420 429 420c194 0 327 -132 327 -312c0 -232 -204 -427 -430 -427c-195 0 -326 135 -326 319zM223 317c0 -104 64 -174 157 -174c117 0 238 114 238 261c0 101 -65 168 -158 168c-120 0 -237 -111 -237 -255zM405 761l145 150h183l-180 -150h-148z" />
    <glyph glyph-name="Ocircumflex" unicode="&#xd4;" horiz-adv-x="818" 
d="M43 307c0 228 201 420 429 420c194 0 327 -132 327 -312c0 -232 -204 -427 -430 -427c-195 0 -326 135 -326 319zM223 317c0 -104 64 -174 157 -174c117 0 238 114 238 261c0 101 -65 168 -158 168c-120 0 -237 -111 -237 -255zM310 761l129 150h168l69 -150h-130l-31 82
h-2l-63 -82h-140z" />
    <glyph glyph-name="Otilde" unicode="&#xd5;" horiz-adv-x="818" 
d="M43 307c0 228 201 420 429 420c194 0 327 -132 327 -312c0 -232 -204 -427 -430 -427c-195 0 -326 135 -326 319zM223 317c0 -104 64 -174 157 -174c117 0 238 114 238 261c0 101 -65 168 -158 168c-120 0 -237 -111 -237 -255zM418 761h-113c19 96 71 153 144 153
c72 0 76 -60 113 -60c23 0 37 19 44 57h113c-17 -96 -70 -153 -142 -153s-78 60 -115 60c-21 0 -36 -19 -44 -57z" />
    <glyph glyph-name="Odieresis" unicode="&#xd6;" horiz-adv-x="818" 
d="M43 307c0 228 201 420 429 420c194 0 327 -132 327 -312c0 -232 -204 -427 -430 -427c-195 0 -326 135 -326 319zM223 317c0 -104 64 -174 157 -174c117 0 238 114 238 261c0 101 -65 168 -158 168c-120 0 -237 -111 -237 -255zM557 771l28 140h131l-28 -140h-131z
M312 771l28 140h131l-28 -140h-131z" />
    <glyph glyph-name="Oslash" unicode="&#xd8;" horiz-adv-x="819" 
d="M46 25l69 74c-47 56 -71 125 -71 208c0 228 199 420 419 420c75 0 138 -17 191 -48l59 64l65 -52l-59 -64c52 -55 81 -128 81 -212c0 -232 -203 -427 -420 -427c-80 0 -148 20 -203 56l-66 -72zM241 235l293 316c-23 11 -47 16 -73 16c-120 0 -237 -110 -237 -250
c0 -31 6 -58 17 -82zM596 494l-300 -323c25 -15 53 -23 86 -23c117 0 237 113 237 256c0 35 -8 65 -23 90z" />
    <glyph glyph-name="Ugrave" unicode="&#xd9;" horiz-adv-x="824" 
d="M96 212c0 19 3 45 11 86l56 287h-80l25 130h339l-25 -130h-80l-55 -287c-7 -37 -10 -48 -10 -65c0 -60 38 -90 105 -90c44 0 81 14 108 41c19 21 32 47 38 79l62 322h-80l25 130h339l-25 -130h-80l-63 -327c-19 -95 -65 -170 -133 -217c-53 -35 -118 -53 -194 -53
c-152 0 -283 73 -283 224zM452 761l-122 150h171l87 -150h-136z" />
    <glyph glyph-name="Uacute" unicode="&#xda;" horiz-adv-x="824" 
d="M96 212c0 19 3 45 11 86l56 287h-80l25 130h339l-25 -130h-80l-55 -287c-7 -37 -10 -48 -10 -65c0 -60 38 -90 105 -90c44 0 81 14 108 41c19 21 32 47 38 79l62 322h-80l25 130h339l-25 -130h-80l-63 -327c-19 -95 -65 -170 -133 -217c-53 -35 -118 -53 -194 -53
c-152 0 -283 73 -283 224zM408 761l145 150h183l-180 -150h-148z" />
    <glyph glyph-name="Ucircumflex" unicode="&#xdb;" horiz-adv-x="824" 
d="M96 212c0 19 3 45 11 86l56 287h-80l25 130h339l-25 -130h-80l-55 -287c-7 -37 -10 -48 -10 -65c0 -60 38 -90 105 -90c44 0 81 14 108 41c19 21 32 47 38 79l62 322h-80l25 130h339l-25 -130h-80l-63 -327c-19 -95 -65 -170 -133 -217c-53 -35 -118 -53 -194 -53
c-152 0 -283 73 -283 224zM313 761l129 150h168l69 -150h-130l-31 82h-2l-63 -82h-140z" />
    <glyph glyph-name="Udieresis" unicode="&#xdc;" horiz-adv-x="824" 
d="M96 212c0 19 3 45 11 86l56 287h-80l25 130h339l-25 -130h-80l-55 -287c-7 -37 -10 -48 -10 -65c0 -60 38 -90 105 -90c44 0 81 14 108 41c19 21 32 47 38 79l62 322h-80l25 130h339l-25 -130h-80l-63 -327c-19 -95 -65 -170 -133 -217c-53 -35 -118 -53 -194 -53
c-152 0 -283 73 -283 224zM560 771l28 140h131l-28 -140h-131zM315 771l28 140h131l-28 -140h-131z" />
    <glyph glyph-name="germandbls" unicode="&#xdf;" horiz-adv-x="645" 
d="M14 0l104 537c24 125 147 190 267 190c123 0 219 -66 219 -169c0 -115 -105 -139 -105 -189c0 -56 97 -89 97 -184c0 -109 -104 -192 -215 -192c-45 0 -78 6 -101 11c-13 3 -25 6 -34 10l28 139c7 -3 16 -5 25 -8c16 -4 39 -8 66 -8c24 0 58 10 58 47
c0 55 -100 89 -100 172c0 103 107 134 107 185c0 25 -18 42 -53 42c-41 0 -79 -16 -90 -68l-100 -515h-173z" />
    <glyph glyph-name="agrave" unicode="&#xe0;" horiz-adv-x="583" 
d="M-9 124c0 150 203 196 335 196h7l2 11c1 7 2 14 2 19c0 31 -29 42 -64 42s-70 -11 -101 -23c-17 -7 -34 -15 -51 -24l-35 125c21 11 44 21 68 29c41 15 96 28 153 28c85 0 201 -33 201 -159c0 -59 -35 -162 -35 -208c0 -23 11 -36 39 -36c4 0 9 1 13 1h6l-24 -125
c-3 -1 -7 -1 -13 -2c-11 -1 -25 -1 -52 -1c-54 0 -122 2 -140 76h-2c-12 -16 -26 -30 -43 -42c-28 -21 -69 -43 -121 -43c-76 0 -145 43 -145 136zM161 153c0 -27 13 -41 39 -41c48 0 99 58 110 99l3 12h-16c-37 0 -136 -10 -136 -70zM278 565l-122 150h171l87 -150h-136z
" />
    <glyph glyph-name="aacute" unicode="&#xe1;" horiz-adv-x="583" 
d="M-9 124c0 150 203 196 335 196h7l2 11c1 7 2 14 2 19c0 31 -29 42 -64 42s-70 -11 -101 -23c-17 -7 -34 -15 -51 -24l-35 125c21 11 44 21 68 29c41 15 96 28 153 28c85 0 201 -33 201 -159c0 -59 -35 -162 -35 -208c0 -23 11 -36 39 -36c4 0 9 1 13 1h6l-24 -125
c-3 -1 -7 -1 -13 -2c-11 -1 -25 -1 -52 -1c-54 0 -122 2 -140 76h-2c-12 -16 -26 -30 -43 -42c-28 -21 -69 -43 -121 -43c-76 0 -145 43 -145 136zM161 153c0 -27 13 -41 39 -41c48 0 99 58 110 99l3 12h-16c-37 0 -136 -10 -136 -70zM234 565l145 150h183l-180 -150h-148z
" />
    <glyph glyph-name="acircumflex" unicode="&#xe2;" horiz-adv-x="583" 
d="M-9 124c0 150 203 196 335 196h7l2 11c1 7 2 14 2 19c0 31 -29 42 -64 42s-70 -11 -101 -23c-17 -7 -34 -15 -51 -24l-35 125c21 11 44 21 68 29c41 15 96 28 153 28c85 0 201 -33 201 -159c0 -59 -35 -162 -35 -208c0 -23 11 -36 39 -36c4 0 9 1 13 1h6l-24 -125
c-3 -1 -7 -1 -13 -2c-11 -1 -25 -1 -52 -1c-54 0 -122 2 -140 76h-2c-12 -16 -26 -30 -43 -42c-28 -21 -69 -43 -121 -43c-76 0 -145 43 -145 136zM161 153c0 -27 13 -41 39 -41c48 0 99 58 110 99l3 12h-16c-37 0 -136 -10 -136 -70zM139 565l129 150h168l69 -150h-130
l-31 82h-2l-63 -82h-140z" />
    <glyph glyph-name="atilde" unicode="&#xe3;" horiz-adv-x="583" 
d="M-9 124c0 150 203 196 335 196h7l2 11c1 7 2 14 2 19c0 31 -29 42 -64 42s-70 -11 -101 -23c-17 -7 -34 -15 -51 -24l-35 125c21 11 44 21 68 29c41 15 96 28 153 28c85 0 201 -33 201 -159c0 -59 -35 -162 -35 -208c0 -23 11 -36 39 -36c4 0 9 1 13 1h6l-24 -125
c-3 -1 -7 -1 -13 -2c-11 -1 -25 -1 -52 -1c-54 0 -122 2 -140 76h-2c-12 -16 -26 -30 -43 -42c-28 -21 -69 -43 -121 -43c-76 0 -145 43 -145 136zM161 153c0 -27 13 -41 39 -41c48 0 99 58 110 99l3 12h-16c-37 0 -136 -10 -136 -70zM247 565h-113c19 96 71 153 144 153
c72 0 76 -60 113 -60c23 0 37 19 44 57h113c-17 -96 -70 -153 -142 -153s-78 60 -115 60c-21 0 -36 -19 -44 -57z" />
    <glyph glyph-name="adieresis" unicode="&#xe4;" horiz-adv-x="583" 
d="M-9 124c0 150 203 196 335 196h7l2 11c1 7 2 14 2 19c0 31 -29 42 -64 42s-70 -11 -101 -23c-17 -7 -34 -15 -51 -24l-35 125c21 11 44 21 68 29c41 15 96 28 153 28c85 0 201 -33 201 -159c0 -59 -35 -162 -35 -208c0 -23 11 -36 39 -36c4 0 9 1 13 1h6l-24 -125
c-3 -1 -7 -1 -13 -2c-11 -1 -25 -1 -52 -1c-54 0 -122 2 -140 76h-2c-12 -16 -26 -30 -43 -42c-28 -21 -69 -43 -121 -43c-76 0 -145 43 -145 136zM161 153c0 -27 13 -41 39 -41c48 0 99 58 110 99l3 12h-16c-37 0 -136 -10 -136 -70zM386 575l28 140h131l-28 -140h-131z
M141 575l28 140h131l-28 -140h-131z" />
    <glyph glyph-name="aring" unicode="&#xe5;" horiz-adv-x="583" 
d="M-9 124c0 150 203 196 335 196h7l2 11c1 7 2 14 2 19c0 31 -29 42 -64 42s-70 -11 -101 -23c-17 -7 -34 -15 -51 -24l-35 125c21 11 44 21 68 29c41 15 96 28 153 28c85 0 201 -33 201 -159c0 -59 -35 -162 -35 -208c0 -23 11 -36 39 -36c4 0 9 1 13 1h6l-24 -125
c-3 -1 -7 -1 -13 -2c-11 -1 -25 -1 -52 -1c-54 0 -122 2 -140 76h-2c-12 -16 -26 -30 -43 -42c-28 -21 -69 -43 -121 -43c-76 0 -145 43 -145 136zM161 153c0 -27 13 -41 39 -41c48 0 99 58 110 99l3 12h-16c-37 0 -136 -10 -136 -70zM329 551c-51 0 -99 23 -99 73
c0 69 67 98 122 98c51 0 100 -24 100 -76c0 -67 -71 -95 -123 -95zM334 601c23 0 43 18 43 43c0 19 -10 28 -29 28c-23 0 -42 -18 -42 -45c0 -17 9 -26 28 -26z" />
    <glyph glyph-name="ae" unicode="&#xe6;" horiz-adv-x="852" 
d="M-7 131c0 156 204 189 318 189h20c3 11 2 17 2 21c0 37 -29 51 -65 51c-41 0 -79 -11 -106 -23c-16 -7 -30 -15 -43 -24l-37 125c21 11 43 21 67 29c41 15 96 28 153 28c55 0 107 -18 146 -53h2c45 33 96 53 153 53c146 0 220 -83 220 -202c0 -23 -4 -49 -9 -68
c-3 -11 -6 -22 -10 -33h-323v-3c0 -3 -1 -4 -1 -7c0 -52 43 -87 104 -87c39 0 75 13 103 26c17 7 32 16 46 26l44 -124c-18 -12 -38 -23 -60 -33c-37 -17 -88 -34 -148 -34c-101 0 -171 35 -214 91h-2c-11 -19 -64 -91 -189 -91c-89 0 -171 56 -171 143zM502 320h152
c1 2 1 4 1 7v14c0 32 -20 56 -55 56c-51 0 -82 -33 -98 -77zM167 153c0 -19 13 -33 42 -33c45 0 94 49 102 91l2 12h-16c-37 0 -130 -10 -130 -70z" />
    <glyph glyph-name="ccedilla" unicode="&#xe7;" horiz-adv-x="576" 
d="M142 -104l53 102c-119 29 -180 118 -180 221c0 147 126 308 334 308c88 0 230 -31 208 -141l-14 -72h-147l6 28c5 24 -22 41 -65 41c-93 0 -147 -83 -147 -151c0 -51 29 -101 113 -101c47 0 85 15 116 30c17 9 33 18 48 29l44 -127c-17 -13 -36 -26 -58 -37
c-39 -19 -95 -38 -168 -38h-15l-20 -38c45 -3 80 -31 80 -74c0 -83 -92 -110 -160 -110c-17 0 -35 1 -47 4c-7 1 -14 3 -20 5l14 75l14 -4c9 -3 19 -4 34 -4c19 0 53 3 53 30c0 19 -26 24 -51 24h-25z" />
    <glyph glyph-name="egrave" unicode="&#xe8;" horiz-adv-x="563" 
d="M17 213c0 179 127 314 297 314c146 0 220 -83 220 -202c0 -23 -4 -48 -9 -67c-3 -11 -6 -22 -10 -32h-324v-3c0 -3 -1 -4 -1 -7c0 -52 40 -85 101 -85c39 0 76 13 105 26c17 7 33 16 48 26l44 -128c-18 -12 -38 -23 -60 -33c-37 -17 -88 -34 -148 -34
c-176 0 -263 104 -263 225zM212 321h152c0 3 0 5 1 8c1 4 1 9 1 12c0 32 -20 56 -55 56c-51 0 -83 -35 -99 -76zM293 565l-122 150h171l87 -150h-136z" />
    <glyph glyph-name="eacute" unicode="&#xe9;" horiz-adv-x="563" 
d="M17 213c0 179 127 314 297 314c146 0 220 -83 220 -202c0 -23 -4 -48 -9 -67c-3 -11 -6 -22 -10 -32h-324v-3c0 -3 -1 -4 -1 -7c0 -52 40 -85 101 -85c39 0 76 13 105 26c17 7 33 16 48 26l44 -128c-18 -12 -38 -23 -60 -33c-37 -17 -88 -34 -148 -34
c-176 0 -263 104 -263 225zM212 321h152c0 3 0 5 1 8c1 4 1 9 1 12c0 32 -20 56 -55 56c-51 0 -83 -35 -99 -76zM249 565l145 150h183l-180 -150h-148z" />
    <glyph glyph-name="ecircumflex" unicode="&#xea;" horiz-adv-x="563" 
d="M17 213c0 179 127 314 297 314c146 0 220 -83 220 -202c0 -23 -4 -48 -9 -67c-3 -11 -6 -22 -10 -32h-324v-3c0 -3 -1 -4 -1 -7c0 -52 40 -85 101 -85c39 0 76 13 105 26c17 7 33 16 48 26l44 -128c-18 -12 -38 -23 -60 -33c-37 -17 -88 -34 -148 -34
c-176 0 -263 104 -263 225zM212 321h152c0 3 0 5 1 8c1 4 1 9 1 12c0 32 -20 56 -55 56c-51 0 -83 -35 -99 -76zM154 565l129 150h168l69 -150h-130l-31 82h-2l-63 -82h-140z" />
    <glyph glyph-name="edieresis" unicode="&#xeb;" horiz-adv-x="563" 
d="M17 213c0 179 127 314 297 314c146 0 220 -83 220 -202c0 -23 -4 -48 -9 -67c-3 -11 -6 -22 -10 -32h-324v-3c0 -3 -1 -4 -1 -7c0 -52 40 -85 101 -85c39 0 76 13 105 26c17 7 33 16 48 26l44 -128c-18 -12 -38 -23 -60 -33c-37 -17 -88 -34 -148 -34
c-176 0 -263 104 -263 225zM212 321h152c0 3 0 5 1 8c1 4 1 9 1 12c0 32 -20 56 -55 56c-51 0 -83 -35 -99 -76zM401 575l28 140h131l-28 -140h-131zM156 575l28 140h131l-28 -140h-131z" />
    <glyph glyph-name="igrave" unicode="&#xec;" horiz-adv-x="367" 
d="M65 116c0 19 2 41 7 64l41 210h-70l24 125h243l-63 -322c-3 -11 -4 -22 -4 -33c0 -23 11 -36 39 -36c4 0 9 1 13 1h6l-24 -125l-15 -2c-11 -1 -22 -1 -37 -1c-79 0 -160 7 -160 119zM183 565l-122 150h171l87 -150h-136z" />
    <glyph glyph-name="iacute" unicode="&#xed;" horiz-adv-x="367" 
d="M65 116c0 19 2 41 7 64l41 210h-70l24 125h243l-63 -322c-3 -11 -4 -22 -4 -33c0 -23 11 -36 39 -36c4 0 9 1 13 1h6l-24 -125l-15 -2c-11 -1 -22 -1 -37 -1c-79 0 -160 7 -160 119zM139 565l145 150h183l-180 -150h-148z" />
    <glyph glyph-name="icircumflex" unicode="&#xee;" horiz-adv-x="367" 
d="M65 116c0 19 2 41 7 64l41 210h-70l24 125h243l-63 -322c-3 -11 -4 -22 -4 -33c0 -23 11 -36 39 -36c4 0 9 1 13 1h6l-24 -125l-15 -2c-11 -1 -22 -1 -37 -1c-79 0 -160 7 -160 119zM44 565l129 150h168l69 -150h-130l-31 82h-2l-63 -82h-140z" />
    <glyph glyph-name="idieresis" unicode="&#xef;" horiz-adv-x="367" 
d="M65 116c0 19 2 41 7 64l41 210h-70l24 125h243l-63 -322c-3 -11 -4 -22 -4 -33c0 -23 11 -36 39 -36c4 0 9 1 13 1h6l-24 -125l-15 -2c-11 -1 -22 -1 -37 -1c-79 0 -160 7 -160 119zM276 575l28 140h131l-28 -140h-131zM62 575l28 140h131l-28 -140h-131z" />
    <glyph glyph-name="ntilde" unicode="&#xf1;" horiz-adv-x="700" 
d="M39 0l72 368c3 15 -3 22 -18 22h-48l24 125h164c41 0 61 -16 61 -47c0 -13 -3 -26 -8 -40h2c13 19 29 35 47 50c31 25 78 49 139 49c84 0 149 -47 149 -145c0 -64 -36 -181 -36 -222c0 -23 11 -36 39 -36c4 0 9 1 13 1h6l-24 -125c-3 -1 -8 -1 -14 -2
c-11 -1 -24 -1 -47 -1c-68 0 -151 8 -151 119c0 59 34 176 34 211c0 24 -10 43 -49 43c-72 0 -123 -72 -139 -152l-43 -218h-173zM330 565h-113c19 96 71 153 144 153c72 0 76 -60 113 -60c23 0 37 19 44 57h113c-17 -96 -70 -153 -142 -153s-78 60 -115 60
c-21 0 -36 -19 -44 -57z" />
    <glyph glyph-name="ograve" unicode="&#xf2;" horiz-adv-x="635" 
d="M16 219c0 181 159 308 331 308c148 0 257 -91 257 -231c0 -182 -161 -308 -331 -308c-147 0 -257 91 -257 231zM191 227c0 -60 39 -95 95 -95c69 0 143 59 143 153c0 61 -39 98 -94 98c-68 0 -144 -62 -144 -156zM321 565l-122 150h171l87 -150h-136z" />
    <glyph glyph-name="oacute" unicode="&#xf3;" horiz-adv-x="635" 
d="M16 219c0 181 159 308 331 308c148 0 257 -91 257 -231c0 -182 -161 -308 -331 -308c-147 0 -257 91 -257 231zM191 227c0 -60 39 -95 95 -95c69 0 143 59 143 153c0 61 -39 98 -94 98c-68 0 -144 -62 -144 -156zM277 565l145 150h183l-180 -150h-148z" />
    <glyph glyph-name="ocircumflex" unicode="&#xf4;" horiz-adv-x="635" 
d="M16 219c0 181 159 308 331 308c148 0 257 -91 257 -231c0 -182 -161 -308 -331 -308c-147 0 -257 91 -257 231zM191 227c0 -60 39 -95 95 -95c69 0 143 59 143 153c0 61 -39 98 -94 98c-68 0 -144 -62 -144 -156zM182 565l129 150h168l69 -150h-130l-31 82h-2l-63 -82
h-140z" />
    <glyph glyph-name="otilde" unicode="&#xf5;" horiz-adv-x="635" 
d="M16 219c0 181 159 308 331 308c148 0 257 -91 257 -231c0 -182 -161 -308 -331 -308c-147 0 -257 91 -257 231zM191 227c0 -60 39 -95 95 -95c69 0 143 59 143 153c0 61 -39 98 -94 98c-68 0 -144 -62 -144 -156zM290 565h-113c19 96 71 153 144 153c72 0 76 -60 113 -60
c23 0 37 19 44 57h113c-17 -96 -70 -153 -142 -153s-78 60 -115 60c-21 0 -36 -19 -44 -57z" />
    <glyph glyph-name="odieresis" unicode="&#xf6;" horiz-adv-x="635" 
d="M16 219c0 181 159 308 331 308c148 0 257 -91 257 -231c0 -182 -161 -308 -331 -308c-147 0 -257 91 -257 231zM191 227c0 -60 39 -95 95 -95c69 0 143 59 143 153c0 61 -39 98 -94 98c-68 0 -144 -62 -144 -156zM429 575l28 140h131l-28 -140h-131zM184 575l28 140h131
l-28 -140h-131z" />
    <glyph glyph-name="divide" unicode="&#xf7;" horiz-adv-x="630" 
d="M240 440v135h146v-135h-146zM40 222v130h546v-130h-546zM240 0v135h146v-135h-146z" />
    <glyph glyph-name="oslash" unicode="&#xf8;" horiz-adv-x="635" 
d="M24 -1l57 61c-39 40 -65 95 -65 159c0 181 160 308 321 308c55 0 107 -13 148 -34l60 64l56 -46l-58 -62c36 -39 61 -92 61 -153c0 -182 -161 -308 -321 -308c-52 0 -102 11 -141 30l-62 -66zM200 187l175 187c-11 5 -27 9 -40 9c-68 0 -144 -62 -144 -156
c0 -15 5 -29 9 -40zM422 319l-169 -182c9 -3 22 -5 33 -5c69 0 143 59 143 153c0 11 -4 23 -7 34z" />
    <glyph glyph-name="ugrave" unicode="&#xf9;" horiz-adv-x="702" 
d="M65 131c0 16 2 37 6 57l39 202h-70l25 125h243l-59 -302c-3 -11 -4 -22 -4 -29c0 -29 15 -44 45 -44c71 0 123 79 137 147l20 103h-70l25 125h243l-63 -322c-3 -11 -4 -22 -4 -33c0 -23 11 -36 39 -36c4 0 9 1 13 1h6l-24 -125l-17 -2c-11 -1 -27 -1 -50 -1
c-55 0 -128 3 -139 95h-2c-43 -60 -102 -104 -186 -104s-153 44 -153 143zM332 565l-122 150h171l87 -150h-136z" />
    <glyph glyph-name="uacute" unicode="&#xfa;" horiz-adv-x="702" 
d="M65 131c0 16 2 37 6 57l39 202h-70l25 125h243l-59 -302c-3 -11 -4 -22 -4 -29c0 -29 15 -44 45 -44c71 0 123 79 137 147l20 103h-70l25 125h243l-63 -322c-3 -11 -4 -22 -4 -33c0 -23 11 -36 39 -36c4 0 9 1 13 1h6l-24 -125l-17 -2c-11 -1 -27 -1 -50 -1
c-55 0 -128 3 -139 95h-2c-43 -60 -102 -104 -186 -104s-153 44 -153 143zM288 565l145 150h183l-180 -150h-148z" />
    <glyph glyph-name="ucircumflex" unicode="&#xfb;" horiz-adv-x="702" 
d="M65 131c0 16 2 37 6 57l39 202h-70l25 125h243l-59 -302c-3 -11 -4 -22 -4 -29c0 -29 15 -44 45 -44c71 0 123 79 137 147l20 103h-70l25 125h243l-63 -322c-3 -11 -4 -22 -4 -33c0 -23 11 -36 39 -36c4 0 9 1 13 1h6l-24 -125l-17 -2c-11 -1 -27 -1 -50 -1
c-55 0 -128 3 -139 95h-2c-43 -60 -102 -104 -186 -104s-153 44 -153 143zM193 565l129 150h168l69 -150h-130l-31 82h-2l-63 -82h-140z" />
    <glyph glyph-name="udieresis" unicode="&#xfc;" horiz-adv-x="702" 
d="M65 131c0 16 2 37 6 57l39 202h-70l25 125h243l-59 -302c-3 -11 -4 -22 -4 -29c0 -29 15 -44 45 -44c71 0 123 79 137 147l20 103h-70l25 125h243l-63 -322c-3 -11 -4 -22 -4 -33c0 -23 11 -36 39 -36c4 0 9 1 13 1h6l-24 -125l-17 -2c-11 -1 -27 -1 -50 -1
c-55 0 -128 3 -139 95h-2c-43 -60 -102 -104 -186 -104s-153 44 -153 143zM440 575l28 140h131l-28 -140h-131zM195 575l28 140h131l-28 -140h-131z" />
    <glyph glyph-name="ydieresis" unicode="&#xff;" horiz-adv-x="628" 
d="M-80 -168l74 119c6 -4 13 -8 20 -11c13 -7 34 -11 61 -11c36 0 73 10 93 42l3 5l-89 414h-58l24 125h278l-24 -125h-50l26 -191c3 -15 2 -32 1 -45l-2 -22h4l8 22c5 13 12 28 21 45l98 191h-47l24 125h272l-24 -125h-53l-251 -435c-75 -129 -163 -165 -257 -165
c-48 0 -85 10 -112 21c-15 7 -29 14 -40 21zM420 575l28 140h131l-28 -140h-131zM175 575l28 140h131l-28 -140h-131z" />
    <glyph glyph-name="dotlessi" unicode="&#x131;" horiz-adv-x="367" 
d="M65 116c0 19 2 41 7 64l41 210h-70l24 125h243l-63 -322c-3 -11 -4 -22 -4 -33c0 -23 11 -36 39 -36c4 0 9 1 13 1h6l-24 -125l-15 -2c-11 -1 -22 -1 -37 -1c-79 0 -160 7 -160 119z" />
    <glyph glyph-name="OE" unicode="&#x152;" horiz-adv-x="1019" 
d="M42 306c0 228 211 417 426 417c89 0 107 -8 165 -8h406l-41 -211h-140l14 71h-147l-29 -146h204l-27 -139h-204l-29 -150h159l14 71h140l-41 -211h-403c-43 0 -66 -8 -134 -8c-195 0 -333 133 -333 314zM224 313c0 -104 66 -177 165 -177c23 0 41 1 54 4l20 3l82 429
c-5 1 -11 3 -18 4c-12 2 -29 3 -52 3c-128 0 -251 -119 -251 -266z" />
    <glyph glyph-name="oe" unicode="&#x153;" horiz-adv-x="971" 
d="M16 219c0 181 150 308 321 308c80 0 146 -29 193 -80h2c51 51 117 80 190 80c146 0 220 -83 220 -202c0 -23 -4 -49 -9 -68c-3 -11 -6 -22 -10 -33h-324v-3c0 -3 -1 -4 -1 -7c0 -49 40 -82 101 -82c39 0 76 13 105 26c17 7 33 16 48 26l44 -129c-18 -12 -38 -23 -60 -33
c-37 -17 -88 -34 -148 -34c-92 0 -155 31 -199 83h-2c-59 -55 -132 -83 -204 -83c-155 0 -267 91 -267 231zM621 323h152c1 2 1 4 1 7v11c0 32 -20 56 -55 56c-51 0 -82 -33 -98 -74zM191 227c0 -60 39 -95 95 -95c69 0 143 59 143 153c0 61 -39 98 -94 98
c-77 0 -144 -62 -144 -156z" />
    <glyph glyph-name="Ydieresis" unicode="&#x178;" horiz-adv-x="671" 
d="M108 0l25 130h80l32 163l-118 292h-61l25 130h289l-25 -130h-60l47 -132c4 -11 6 -18 7 -25l2 -10h2c1 3 3 7 6 10c4 7 10 14 17 25l99 132h-60l25 130h302l-25 -130h-61l-232 -292l-32 -163h80l-25 -130h-339zM488 771l28 140h131l-28 -140h-131zM243 771l28 140h131
l-28 -140h-131z" />
    <glyph glyph-name="florin" unicode="&#x192;" horiz-adv-x="549" 
d="M-85 -116l29 143l24 -3c14 -2 28 -3 43 -3c33 0 89 9 105 64l62 225h-62l27 135h74l29 100c45 160 189 182 271 182c19 0 44 -1 65 -4c12 -1 24 -3 37 -5l-29 -144l-31 3c-17 3 -35 3 -43 3c-35 0 -87 -9 -103 -64l-20 -71h95l-27 -135h-107l-70 -254
c-43 -160 -196 -182 -274 -182c-20 0 -43 2 -62 5c-11 2 -22 4 -33 5z" />
    <glyph glyph-name="circumflex" unicode="&#x2c6;" horiz-adv-x="486" 
d="M-14 761l129 150h168l69 -150h-130l-31 82h-2l-63 -82h-140z" />
    <glyph glyph-name="caron" unicode="&#x2c7;" horiz-adv-x="486" 
d="M95 761l-69 150h130l31 -82h2l63 82h140l-129 -150h-168z" />
    <glyph glyph-name="breve" unicode="&#x2d8;" horiz-adv-x="484" 
d="M184 756c-101 0 -180 56 -161 145l2 10h117l-2 -11c-8 -40 18 -58 45 -58s61 18 69 58l2 11h117l-2 -10c-18 -98 -98 -145 -187 -145z" />
    <glyph glyph-name="dotaccent" unicode="&#x2d9;" horiz-adv-x="485" 
d="M106 779l26 132h143l-26 -132h-143z" />
    <glyph glyph-name="ring" unicode="&#x2da;" horiz-adv-x="485" 
d="M175 747c-51 0 -99 23 -99 73c0 69 67 98 122 98c51 0 100 -24 100 -76c0 -67 -71 -95 -123 -95zM180 797c23 0 43 18 43 43c0 19 -10 28 -29 28c-23 0 -42 -18 -42 -45c0 -17 9 -26 28 -26z" />
    <glyph glyph-name="ogonek" unicode="&#x2db;" horiz-adv-x="486" 
d="M74 -146c0 74 67 137 134 169h96l-4 -23c-32 0 -96 -63 -96 -103c0 -15 11 -26 50 -29l-49 -110c-84 9 -131 43 -131 96z" />
    <glyph glyph-name="tilde" unicode="&#x2dc;" horiz-adv-x="485" 
d="M90 761h-113c19 96 71 153 144 153c72 0 76 -60 113 -60c23 0 37 19 44 57h113c-17 -96 -70 -153 -142 -153s-78 60 -115 60c-21 0 -36 -19 -44 -57z" />
    <glyph glyph-name="hungarumlaut" unicode="&#x2dd;" horiz-adv-x="485" 
d="M153 761l111 150h169l-148 -150h-132zM-55 761l106 150h145l-109 -150h-142z" />
    <glyph glyph-name="endash" unicode="&#x2013;" horiz-adv-x="741" 
d="M57 222l25 130h596l-25 -130h-596z" />
    <glyph glyph-name="emdash" unicode="&#x2014;" horiz-adv-x="941" 
d="M57 222l25 130h796l-25 -130h-796z" />
    <glyph glyph-name="quoteleft" unicode="&#x2018;" horiz-adv-x="271" 
d="M66 475l138 255h123l-103 -255h-158z" />
    <glyph glyph-name="quoteright" unicode="&#x2019;" horiz-adv-x="264" 
d="M72 475l103 255h158l-138 -255h-123z" />
    <glyph glyph-name="quotesinglbase" unicode="&#x201a;" horiz-adv-x="285" 
d="M55 166h158l-138 -255h-123z" />
    <glyph glyph-name="quotedblleft" unicode="&#x201c;" horiz-adv-x="469" 
d="M264 475l138 255h123l-103 -255h-158zM66 475l138 255h123l-103 -255h-158z" />
    <glyph glyph-name="quotedblright" unicode="&#x201d;" horiz-adv-x="462" 
d="M270 475l103 255h158l-138 -255h-123zM72 475l103 255h158l-138 -255h-123z" />
    <glyph glyph-name="quotedblbase" unicode="&#x201e;" horiz-adv-x="483" 
d="M253 166h158l-138 -255h-123zM55 166h158l-138 -255h-123z" />
    <glyph glyph-name="dagger" unicode="&#x2020;" horiz-adv-x="493" 
d="M95 -50l85 435h-130l25 130h130l39 200h165l-39 -200h131l-25 -130h-131l-85 -435h-165z" />
    <glyph glyph-name="daggerdbl" unicode="&#x2021;" horiz-adv-x="503" 
d="M101 -50l39 200h-129l24 130h130l21 105h-130l25 130h130l39 200h165l-39 -200h131l-25 -130h-131l-21 -105h131l-25 -130h-131l-39 -200h-165z" />
    <glyph glyph-name="bullet" unicode="&#x2022;" horiz-adv-x="468" 
d="M233 105c-103 0 -186 83 -186 186s83 186 186 186s186 -83 186 -186s-83 -186 -186 -186z" />
    <glyph glyph-name="ellipsis" unicode="&#x2026;" horiz-adv-x="928" 
d="M653 0l31 164h158l-31 -164h-158zM329 0l31 164h158l-31 -164h-158zM5 0l31 164h158l-31 -164h-158z" />
    <glyph glyph-name="perthousand" unicode="&#x2030;" horiz-adv-x="1284" 
d="M254 382c-98 0 -165 65 -165 154c0 99 91 191 202 191c99 0 166 -69 166 -158c0 -100 -102 -187 -203 -187zM39 0l674 715h159l-674 -715h-159zM267 502c31 0 62 26 62 61c0 25 -19 44 -50 44s-62 -30 -62 -62c0 -25 19 -43 50 -43zM861 142c0 99 90 191 202 191
c99 0 166 -69 166 -158c0 -100 -102 -187 -203 -187c-98 0 -165 65 -165 154zM457 142c0 99 91 191 202 191c99 0 166 -69 166 -158c0 -100 -102 -187 -203 -187c-98 0 -165 65 -165 154zM989 151c0 -25 19 -43 50 -43s62 26 62 61c0 25 -19 44 -50 44s-62 -30 -62 -62z
M585 151c0 -25 19 -43 50 -43s62 26 62 61c0 25 -19 44 -50 44s-62 -30 -62 -62z" />
    <glyph glyph-name="guilsinglleft" unicode="&#x2039;" horiz-adv-x="388" 
d="M156 77l-130 205l191 206h164l-202 -213l130 -198h-153z" />
    <glyph glyph-name="guilsinglright" unicode="&#x203a;" horiz-adv-x="389" 
d="M3 77l202 213l-130 198h153l130 -205l-191 -206h-164z" />
    <glyph glyph-name="fraction" unicode="&#x2044;" horiz-adv-x="195" 
d="M-65 0h-126l474 715h126z" />
    <glyph glyph-name="Euro" unicode="&#x20ac;" horiz-adv-x="617" 
d="M23 232l19 91h55c1 16 7 52 10 68h-52l19 91h63c69 144 205 245 372 245c39 0 73 -4 100 -11c15 -3 29 -7 41 -11l-67 -140l-25 5c-17 3 -35 5 -54 5c-72 0 -129 -31 -171 -93h217l-39 -91h-221c-5 -16 -11 -51 -11 -68h207l-39 -91h-152c21 -59 66 -89 137 -89
c24 0 48 4 67 8l30 7v-153l-31 -9c-20 -4 -48 -8 -83 -8c-158 0 -281 94 -311 244h-81z" />
    <glyph glyph-name="trademark" unicode="&#x2122;" horiz-adv-x="1062" 
d="M524 268l35 447h118l73 -175c3 -7 6 -19 9 -28c2 -5 3 -11 4 -16h2c1 5 2 11 4 16c3 9 6 21 9 28l73 175h118l33 -447h-127l-10 174v22c0 3 0 7 1 10h-2l-51 -125h-98l-51 125h-2c1 -3 1 -7 1 -10c0 -7 1 -14 0 -22l-12 -174h-127zM239 268v338h-142v109h408v-109h-140
v-338h-126z" />
    <glyph glyph-name="infinity" unicode="&#x221e;" horiz-adv-x="511" 
d="M266 143c-112 0 -206 94 -206 206c0 115 94 205 206 205c115 0 205 -90 205 -205c0 -112 -90 -206 -205 -206z" />
    <glyph glyph-name="approxequal" unicode="&#x2248;" horiz-adv-x="630" 
d="M112 322l-63 99c41 41 100 81 165 81c94 0 126 -70 198 -70c39 0 77 25 102 54l63 -99c-40 -40 -98 -81 -165 -81c-94 0 -126 70 -198 70c-39 0 -75 -26 -102 -54zM112 93l-63 99c41 41 100 81 165 81c94 0 126 -70 198 -70c39 0 77 25 102 54l63 -99
c-40 -40 -98 -81 -165 -81c-94 0 -126 70 -198 70c-39 0 -75 -26 -102 -54z" />
    <glyph glyph-name="notequal" unicode="&#x2260;" horiz-adv-x="630" 
d="M110 47l38 60h-88v130h171l64 100h-235v130h319l69 108l76 -49l-38 -59h80v-130h-163l-64 -100h227v-130h-310l-68 -107z" />
    <glyph glyph-name="lessequal" unicode="&#x2264;" horiz-adv-x="630" 
d="M39 234v107l504 223v-145l-330 -131v-2l330 -130v-145zM42 -70h501v-130h-501v130z" />
    <glyph glyph-name="greaterequal" unicode="&#x2265;" horiz-adv-x="630" 
d="M83 11v145l330 130v2l-330 131v145l504 -223v-107zM84 -70h501v-130h-501v130z" />
    <glyph glyph-name="uni00A0" unicode="&#xa0;" horiz-adv-x="238" 
 />
    <glyph glyph-name="quotedbl" unicode="&#x22;" horiz-adv-x="417" 
d="M279 490l47 240h122l-47 -240h-122zM88 490l47 240h122l-47 -240h-122z" />
    <glyph glyph-name="exclam" unicode="!" horiz-adv-x="299" 
d="M60 221l80 494h180l-112 -494h-148zM14 0l29 150h158l-29 -150h-158z" />
    <glyph glyph-name="twosuperior" unicode="&#xb2;" horiz-adv-x="413" 
d="M404 423h-340c0 233 253 230 253 306c0 23 -18 30 -37 30c-21 0 -42 -11 -57 -22c-9 -7 -17 -14 -25 -23l-75 78c14 15 30 29 47 41c31 21 71 41 122 41c73 0 156 -39 156 -131c0 -145 -219 -169 -235 -222h113l8 43h97z" />
    <glyph glyph-name="threesuperior" unicode="&#xb3;" horiz-adv-x="396" 
d="M226 413c-59 0 -97 17 -124 34c-15 10 -28 21 -38 34l75 84c7 -7 14 -13 22 -18c15 -9 36 -19 64 -19c36 0 62 21 62 48c0 21 -24 30 -55 30h-30l-14 52l88 89c7 7 13 12 18 16c3 3 6 5 9 7v4l-11 -2c-7 -1 -15 -2 -23 -2h-44l-9 -47h-97l27 141h311l-15 -79l-105 -101
c47 -16 79 -55 79 -107c0 -78 -75 -164 -190 -164z" />
    <glyph glyph-name="onesuperior" unicode="&#xb9;" horiz-adv-x="379" 
d="M63 423l19 98h99l29 152c3 9 4 16 7 23l4 11h-2l-7 -8c-4 -5 -9 -9 -16 -14l-33 -24l-58 79l160 124h108l-66 -343h100l-19 -98h-325z" />
    <glyph glyph-name="onequarter" unicode="&#xbc;" horiz-adv-x="1033" 
d="M766 0l18 92h-196l14 79l220 270h153l-50 -257h53l-17 -92h-53l-18 -92h-124zM717 184h84l21 105l9 33l6 17h-4l-9 -16c-5 -9 -12 -19 -20 -30l-87 -107v-2zM353 0h-126l474 715h126zM50 274l19 98h99l29 152c3 9 4 16 7 23l4 11h-2l-7 -8c-4 -5 -9 -9 -16 -14l-33 -24
l-58 79l160 124h108l-66 -343h100l-19 -98h-325z" />
    <glyph glyph-name="onehalf" unicode="&#xbd;" horiz-adv-x="1027" 
d="M354 0h-126l474 715h126zM47 274l19 98h99l29 152c3 9 4 16 7 23l4 11h-2l-7 -8c-4 -5 -9 -9 -16 -14l-33 -24l-58 79l160 124h108l-66 -343h100l-19 -98h-325zM935 0h-340c0 233 253 230 253 306c0 23 -18 30 -37 30c-21 0 -42 -11 -57 -22c-9 -7 -17 -14 -25 -23
l-75 78c14 15 30 29 47 41c31 21 71 41 122 41c73 0 156 -39 156 -131c0 -145 -219 -169 -235 -222h113l8 43h97z" />
    <glyph glyph-name="threequarters" unicode="&#xbe;" horiz-adv-x="1029" 
d="M206 264c-59 0 -97 17 -124 34c-15 10 -28 21 -38 34l75 84c7 -7 14 -13 22 -18c15 -9 36 -19 64 -19c36 0 62 21 62 48c0 21 -24 30 -55 30h-30l-14 52l88 89c7 7 13 12 18 16c3 3 6 5 9 7v4l-11 -2c-7 -1 -15 -2 -23 -2h-44l-9 -47h-97l27 141h311l-15 -79l-105 -101
c47 -16 79 -55 79 -107c0 -78 -75 -164 -190 -164zM350 0h-126l474 715h126zM763 0l18 92h-196l14 79l220 270h153l-50 -257h53l-17 -92h-53l-18 -92h-124zM714 184h84l21 105l9 33l6 17h-4l-9 -16c-5 -9 -12 -19 -20 -30l-87 -107v-2z" />
    <glyph glyph-name="Eth" unicode="&#xd0;" horiz-adv-x="788" 
d="M-7 0l25 130h79l30 154h-70l27 140h70l32 161h-80l25 130h306c207 0 331 -104 331 -283c0 -239 -171 -432 -419 -432h-356zM278 140h67c147 0 243 125 243 276c0 104 -59 159 -159 159h-67l-29 -151h114l-27 -140h-114z" />
    <glyph glyph-name="multiply" unicode="&#xd7;" horiz-adv-x="630" 
d="M41 92l182 195l-182 196l92 92l179 -192l180 192l92 -92l-183 -196l183 -195l-92 -92l-180 192l-179 -192z" />
    <glyph glyph-name="Yacute" unicode="&#xdd;" horiz-adv-x="671" 
d="M108 0l25 130h80l32 163l-118 292h-61l25 130h289l-25 -130h-60l47 -132c4 -11 6 -18 7 -25l2 -10h2c1 3 3 7 6 10c4 7 10 14 17 25l99 132h-60l25 130h302l-25 -130h-61l-232 -292l-32 -163h80l-25 -130h-339zM336 761l145 150h183l-180 -150h-148z" />
    <glyph glyph-name="Thorn" unicode="&#xde;" horiz-adv-x="675" 
d="M-8 0l25 130h79l89 455h-80l25 130h339l-25 -130h-84l-9 -46h135c125 0 190 -62 190 -154c0 -128 -105 -205 -255 -205h-140l-10 -50h84l-25 -130h-338zM306 310h93c64 0 96 21 96 64c0 27 -22 35 -73 35h-96z" />
    <glyph glyph-name="eth" unicode="&#xf0;" horiz-adv-x="596" 
d="M12 202c0 131 111 262 279 262c20 0 38 -4 53 -8c8 -3 16 -5 23 -8h2c-11 25 -40 59 -69 83l-204 -77l16 78l116 43c-31 16 -73 34 -100 39l70 124c75 -19 154 -54 211 -95l176 66l-15 -78l-107 -40c53 -61 92 -147 92 -244c0 -138 -83 -359 -303 -359
c-160 0 -240 97 -240 214zM187 204c0 -40 17 -72 66 -72c72 0 118 75 118 137c0 39 -23 63 -70 63c-77 0 -114 -64 -114 -128z" />
    <glyph glyph-name="yacute" unicode="&#xfd;" horiz-adv-x="628" 
d="M-80 -168l74 119c6 -4 13 -8 20 -11c13 -7 34 -11 61 -11c36 0 73 10 93 42l3 5l-89 414h-58l24 125h278l-24 -125h-50l26 -191c3 -15 2 -32 1 -45l-2 -22h4l8 22c5 13 12 28 21 45l98 191h-47l24 125h272l-24 -125h-53l-251 -435c-75 -129 -163 -165 -257 -165
c-48 0 -85 10 -112 21c-15 7 -29 14 -40 21zM268 565l145 150h183l-180 -150h-148z" />
    <glyph glyph-name="thorn" unicode="&#xfe;" horiz-adv-x="645" 
d="M-25 -200l154 790h-72l24 125h243l-41 -208c-1 -8 -3 -16 -6 -23l-3 -10h2c35 35 86 53 137 53c124 0 199 -88 199 -224c0 -187 -141 -315 -282 -315c-47 0 -103 17 -135 54h-2l-2 -12c-1 -8 -2 -19 -5 -32l-39 -198h-172zM228 222c0 -51 24 -91 80 -91
c60 0 129 58 129 159c0 56 -29 91 -80 91c-53 0 -129 -58 -129 -159z" />
    <glyph glyph-name="Amacron" unicode="&#x100;" horiz-adv-x="734" 
d="M-46 0l25 130h58l309 585h204l81 -585h59l-25 -130h-294l25 130h62l-8 95h-184l-46 -95h62l-26 -130h-302zM330 361h107l-11 132c-3 23 -2 41 -1 54c1 7 1 14 1 21h-4c-1 -7 -3 -14 -6 -21c-5 -13 -11 -31 -22 -54zM321 782l22 112h275l-22 -112h-275z" />
    <glyph glyph-name="amacron" unicode="&#x101;" horiz-adv-x="583" 
d="M-9 124c0 150 203 196 335 196h7l2 11c1 7 2 14 2 19c0 31 -29 42 -64 42s-70 -11 -101 -23c-17 -7 -34 -15 -51 -24l-35 125c21 11 44 21 68 29c41 15 96 28 153 28c85 0 201 -33 201 -159c0 -59 -35 -162 -35 -208c0 -23 11 -36 39 -36c4 0 9 1 13 1h6l-24 -125
c-3 -1 -7 -1 -13 -2c-11 -1 -25 -1 -52 -1c-54 0 -122 2 -140 76h-2c-12 -16 -26 -30 -43 -42c-28 -21 -69 -43 -121 -43c-76 0 -145 43 -145 136zM161 153c0 -27 13 -41 39 -41c48 0 99 58 110 99l3 12h-16c-37 0 -136 -10 -136 -70zM194 586l22 112h275l-22 -112h-275z
" />
    <glyph glyph-name="Abreve" unicode="&#x102;" horiz-adv-x="734" 
d="M-46 0l25 130h58l309 585h204l81 -585h59l-25 -130h-294l25 130h62l-8 95h-184l-46 -95h62l-26 -130h-302zM330 361h107l-11 132c-3 23 -2 41 -1 54c1 7 1 14 1 21h-4c-1 -7 -3 -14 -6 -21c-5 -13 -11 -31 -22 -54zM469 756c-101 0 -180 56 -161 145l2 10h117l-2 -11
c-8 -40 18 -58 45 -58s61 18 69 58l2 11h117l-2 -10c-18 -98 -98 -145 -187 -145z" />
    <glyph glyph-name="abreve" unicode="&#x103;" horiz-adv-x="583" 
d="M-9 124c0 150 203 196 335 196h7l2 11c1 7 2 14 2 19c0 31 -29 42 -64 42s-70 -11 -101 -23c-17 -7 -34 -15 -51 -24l-35 125c21 11 44 21 68 29c41 15 96 28 153 28c85 0 201 -33 201 -159c0 -59 -35 -162 -35 -208c0 -23 11 -36 39 -36c4 0 9 1 13 1h6l-24 -125
c-3 -1 -7 -1 -13 -2c-11 -1 -25 -1 -52 -1c-54 0 -122 2 -140 76h-2c-12 -16 -26 -30 -43 -42c-28 -21 -69 -43 -121 -43c-76 0 -145 43 -145 136zM161 153c0 -27 13 -41 39 -41c48 0 99 58 110 99l3 12h-16c-37 0 -136 -10 -136 -70zM342 560c-101 0 -180 56 -161 145l2 10
h117l-2 -11c-8 -40 18 -58 45 -58s61 18 69 58l2 11h117l-2 -10c-18 -98 -98 -145 -187 -145z" />
    <glyph glyph-name="Aogonek" unicode="&#x104;" horiz-adv-x="734" 
d="M435 -146c0 59 43 111 94 146h-158l25 130h62l-8 95h-184l-46 -95h62l-26 -130h-302l25 130h58l309 585h204l81 -585h59l-25 -130h-4c-32 0 -96 -63 -96 -103c0 -15 11 -26 50 -29l-49 -110c-84 9 -131 43 -131 96zM330 361h107l-11 132c-3 23 -2 41 -1 54c1 7 1 14 1 21
h-4c-1 -7 -3 -14 -6 -21c-5 -13 -11 -31 -22 -54z" />
    <glyph glyph-name="aogonek" unicode="&#x105;" horiz-adv-x="583" 
d="M276 -146c0 61 45 113 98 148c-33 8 -61 27 -72 71h-2c-12 -16 -26 -30 -43 -42c-28 -21 -69 -43 -121 -43c-76 0 -145 43 -145 136c0 150 203 196 335 196h7l2 11c1 7 2 14 2 19c0 31 -29 42 -64 42s-70 -11 -101 -23c-17 -7 -34 -15 -51 -24l-35 125c21 11 44 21 68 29
c41 15 96 28 153 28c85 0 201 -33 201 -159c0 -59 -35 -162 -35 -208c0 -23 11 -36 39 -36c4 0 9 1 13 1h6l-24 -125h-4c-1 0 -5 -1 -12 -2c-35 -8 -85 -63 -85 -101c0 -15 11 -26 50 -29l-49 -110c-84 9 -131 43 -131 96zM161 153c0 -27 13 -41 39 -41c48 0 99 58 110 99
l3 12h-16c-37 0 -136 -10 -136 -70z" />
    <glyph glyph-name="Cacute" unicode="&#x106;" horiz-adv-x="738" 
d="M43 305c0 230 193 422 433 422c95 0 293 -29 269 -140l-23 -116h-158l10 52c8 45 -63 54 -101 54c-159 0 -245 -145 -245 -263c0 -96 50 -176 163 -176c52 0 110 13 118 54l10 52h160l-20 -106c-21 -117 -181 -150 -280 -150c-198 0 -336 129 -336 317zM392 761l145 150
h183l-180 -150h-148z" />
    <glyph glyph-name="cacute" unicode="&#x107;" horiz-adv-x="576" 
d="M15 219c0 147 126 308 334 308c88 0 230 -31 208 -141l-14 -72h-147l6 28c5 24 -22 41 -65 41c-93 0 -147 -83 -147 -151c0 -51 29 -101 113 -101c47 0 85 15 116 30c17 9 33 18 48 29l44 -127c-17 -13 -36 -26 -58 -37c-39 -19 -95 -38 -168 -38
c-179 0 -270 106 -270 231zM258 565l145 150h183l-180 -150h-148z" />
    <glyph glyph-name="Ccircumflex" unicode="&#x108;" horiz-adv-x="738" 
d="M43 305c0 230 193 422 433 422c95 0 293 -29 269 -140l-23 -116h-158l10 52c8 45 -63 54 -101 54c-159 0 -245 -145 -245 -263c0 -96 50 -176 163 -176c52 0 110 13 118 54l10 52h160l-20 -106c-21 -117 -181 -150 -280 -150c-198 0 -336 129 -336 317zM297 761l129 150
h168l69 -150h-130l-31 82h-2l-63 -82h-140z" />
    <glyph glyph-name="ccircumflex" unicode="&#x109;" horiz-adv-x="576" 
d="M15 219c0 147 126 308 334 308c88 0 230 -31 208 -141l-14 -72h-147l6 28c5 24 -22 41 -65 41c-93 0 -147 -83 -147 -151c0 -51 29 -101 113 -101c47 0 85 15 116 30c17 9 33 18 48 29l44 -127c-17 -13 -36 -26 -58 -37c-39 -19 -95 -38 -168 -38
c-179 0 -270 106 -270 231zM163 565l129 150h168l69 -150h-130l-31 82h-2l-63 -82h-140z" />
    <glyph glyph-name="Cdotaccent" unicode="&#x10a;" horiz-adv-x="738" 
d="M43 305c0 230 193 422 433 422c95 0 293 -29 269 -140l-23 -116h-158l10 52c8 45 -63 54 -101 54c-159 0 -245 -145 -245 -263c0 -96 50 -176 163 -176c52 0 110 13 118 54l10 52h160l-20 -106c-21 -117 -181 -150 -280 -150c-198 0 -336 129 -336 317zM418 779l26 132
h143l-26 -132h-143z" />
    <glyph glyph-name="cdotaccent" unicode="&#x10b;" horiz-adv-x="576" 
d="M15 219c0 147 126 308 334 308c88 0 230 -31 208 -141l-14 -72h-147l6 28c5 24 -22 41 -65 41c-93 0 -147 -83 -147 -151c0 -51 29 -101 113 -101c47 0 85 15 116 30c17 9 33 18 48 29l44 -127c-17 -13 -36 -26 -58 -37c-39 -19 -95 -38 -168 -38
c-179 0 -270 106 -270 231zM284 583l26 132h143l-26 -132h-143z" />
    <glyph glyph-name="Ccaron" unicode="&#x10c;" horiz-adv-x="738" 
d="M43 305c0 230 193 422 433 422c95 0 293 -29 269 -140l-23 -116h-158l10 52c8 45 -63 54 -101 54c-159 0 -245 -145 -245 -263c0 -96 50 -176 163 -176c52 0 110 13 118 54l10 52h160l-20 -106c-21 -117 -181 -150 -280 -150c-198 0 -336 129 -336 317zM406 761l-69 150
h130l31 -82h2l63 82h140l-129 -150h-168z" />
    <glyph glyph-name="ccaron" unicode="&#x10d;" horiz-adv-x="576" 
d="M15 219c0 147 126 308 334 308c88 0 230 -31 208 -141l-14 -72h-147l6 28c5 24 -22 41 -65 41c-93 0 -147 -83 -147 -151c0 -51 29 -101 113 -101c47 0 85 15 116 30c17 9 33 18 48 29l44 -127c-17 -13 -36 -26 -58 -37c-39 -19 -95 -38 -168 -38
c-179 0 -270 106 -270 231zM272 565l-69 150h130l31 -82h2l63 82h140l-129 -150h-168z" />
    <glyph glyph-name="Dcaron" unicode="&#x10e;" horiz-adv-x="788" 
d="M-7 0l25 130h79l88 455h-79l25 130h301c64 0 113 -7 161 -23c113 -40 175 -129 175 -266c0 -174 -103 -339 -263 -400c-52 -19 -101 -26 -161 -26h-351zM278 140h62c42 0 79 8 111 24c84 42 137 143 137 249c0 77 -27 124 -78 147c-25 11 -51 15 -86 15h-62zM392 761
l-69 150h130l31 -82h2l63 82h140l-129 -150h-168z" />
    <glyph glyph-name="dcaron" unicode="&#x10f;" horiz-adv-x="674" 
d="M17 209c0 191 136 318 289 318c43 0 100 -8 129 -51h2c0 3 0 5 1 8l2 15l17 91h-69l24 125h243l-101 -522c-3 -11 -4 -22 -4 -33c0 -23 11 -36 39 -36c4 0 9 1 13 1h6l-24 -125l-15 -2c-11 -1 -23 -1 -42 -1c-68 0 -132 1 -148 76h-2c-36 -51 -101 -85 -160 -85
c-127 0 -200 86 -200 221zM192 222c0 -56 30 -91 81 -91c55 0 128 62 128 159c0 49 -24 91 -80 91c-59 0 -129 -58 -129 -159zM721 715h139c1 -7 1 -13 1 -20c0 -94 -67 -158 -149 -182l-51 54c47 31 63 66 63 109c0 12 -1 25 -3 39z" />
    <glyph glyph-name="Dcroat" unicode="&#x110;" horiz-adv-x="788" 
d="M-7 0l25 130h79l30 154h-70l27 140h70l32 161h-80l25 130h306c207 0 331 -104 331 -283c0 -239 -171 -432 -419 -432h-356zM278 140h67c147 0 243 125 243 276c0 104 -59 159 -159 159h-67l-29 -151h114l-27 -140h-114z" />
    <glyph glyph-name="dcroat" unicode="&#x111;" horiz-adv-x="674" 
d="M17 209c0 191 136 318 289 318c43 0 100 -8 129 -51h2c0 3 0 5 1 8l2 15l12 60h-147l18 95h147l12 61h173l-12 -61h66l-18 -95h-66l-71 -366c-3 -11 -4 -22 -4 -33c0 -23 11 -36 39 -36c4 0 9 1 13 1h6l-24 -125l-15 -2c-11 -1 -23 -1 -42 -1c-68 0 -132 1 -148 76h-2
c-36 -51 -101 -85 -160 -85c-127 0 -200 86 -200 221zM192 222c0 -56 30 -91 81 -91c55 0 128 62 128 159c0 49 -24 91 -80 91c-59 0 -129 -58 -129 -159z" />
    <glyph glyph-name="Emacron" unicode="&#x112;" horiz-adv-x="661" 
d="M-8 0l25 130h79l89 455h-80l25 130h551l-41 -211h-150l14 71h-142l-28 -145h209l-28 -140h-209l-29 -150h154l14 71h150l-41 -211h-562zM301 782l22 112h275l-22 -112h-275z" />
    <glyph glyph-name="emacron" unicode="&#x113;" horiz-adv-x="563" 
d="M17 213c0 179 127 314 297 314c146 0 220 -83 220 -202c0 -23 -4 -48 -9 -67c-3 -11 -6 -22 -10 -32h-324v-3c0 -3 -1 -4 -1 -7c0 -52 40 -85 101 -85c39 0 76 13 105 26c17 7 33 16 48 26l44 -128c-18 -12 -38 -23 -60 -33c-37 -17 -88 -34 -148 -34
c-176 0 -263 104 -263 225zM212 321h152c0 3 0 5 1 8c1 4 1 9 1 12c0 32 -20 56 -55 56c-51 0 -83 -35 -99 -76zM209 586l22 112h275l-22 -112h-275z" />
    <glyph glyph-name="Ebreve" unicode="&#x114;" horiz-adv-x="661" 
d="M-8 0l25 130h79l89 455h-80l25 130h551l-41 -211h-150l14 71h-142l-28 -145h209l-28 -140h-209l-29 -150h154l14 71h150l-41 -211h-562zM449 756c-101 0 -180 56 -161 145l2 10h117l-2 -11c-8 -40 18 -58 45 -58s61 18 69 58l2 11h117l-2 -10c-18 -98 -98 -145 -187 -145
z" />
    <glyph glyph-name="ebreve" unicode="&#x115;" horiz-adv-x="563" 
d="M17 213c0 179 127 314 297 314c146 0 220 -83 220 -202c0 -23 -4 -48 -9 -67c-3 -11 -6 -22 -10 -32h-324v-3c0 -3 -1 -4 -1 -7c0 -52 40 -85 101 -85c39 0 76 13 105 26c17 7 33 16 48 26l44 -128c-18 -12 -38 -23 -60 -33c-37 -17 -88 -34 -148 -34
c-176 0 -263 104 -263 225zM212 321h152c0 3 0 5 1 8c1 4 1 9 1 12c0 32 -20 56 -55 56c-51 0 -83 -35 -99 -76zM357 560c-101 0 -180 56 -161 145l2 10h117l-2 -11c-8 -40 18 -58 45 -58s61 18 69 58l2 11h117l-2 -10c-18 -98 -98 -145 -187 -145z" />
    <glyph glyph-name="Edotaccent" unicode="&#x116;" horiz-adv-x="661" 
d="M-8 0l25 130h79l89 455h-80l25 130h551l-41 -211h-150l14 71h-142l-28 -145h209l-28 -140h-209l-29 -150h154l14 71h150l-41 -211h-562zM367 779l26 132h143l-26 -132h-143z" />
    <glyph glyph-name="edotaccent" unicode="&#x117;" horiz-adv-x="563" 
d="M17 213c0 179 127 314 297 314c146 0 220 -83 220 -202c0 -23 -4 -48 -9 -67c-3 -11 -6 -22 -10 -32h-324v-3c0 -3 -1 -4 -1 -7c0 -52 40 -85 101 -85c39 0 76 13 105 26c17 7 33 16 48 26l44 -128c-18 -12 -38 -23 -60 -33c-37 -17 -88 -34 -148 -34
c-176 0 -263 104 -263 225zM212 321h152c0 3 0 5 1 8c1 4 1 9 1 12c0 32 -20 56 -55 56c-51 0 -83 -35 -99 -76zM275 583l26 132h143l-26 -132h-143z" />
    <glyph glyph-name="Eogonek" unicode="&#x118;" horiz-adv-x="661" 
d="M-8 0l25 130h79l89 455h-80l25 130h551l-41 -211h-150l14 71h-142l-28 -145h209l-28 -140h-209l-29 -150h154l14 71h150l-41 -211h-7c-32 0 -93 -63 -93 -103c0 -15 11 -26 50 -29l-49 -110c-84 9 -131 43 -131 96c0 59 43 111 94 146h-426z" />
    <glyph glyph-name="eogonek" unicode="&#x119;" horiz-adv-x="563" 
d="M17 213c0 179 127 314 297 314c146 0 220 -83 220 -202c0 -23 -4 -48 -9 -67c-3 -11 -6 -22 -10 -32h-324v-3c0 -3 -1 -4 -1 -7c0 -52 40 -85 101 -85c39 0 76 13 105 26c17 7 33 16 48 26l44 -128l-29 -17c-19 -11 -42 -22 -73 -33c-44 -16 -88 -70 -88 -108
c0 -15 11 -26 50 -29l-49 -110c-84 9 -131 43 -131 96c0 55 35 100 80 135c-155 11 -231 111 -231 224zM212 321h152c0 3 0 5 1 8c1 4 1 9 1 12c0 32 -20 56 -55 56c-51 0 -83 -35 -99 -76z" />
    <glyph glyph-name="Ecaron" unicode="&#x11a;" horiz-adv-x="661" 
d="M-8 0l25 130h79l89 455h-80l25 130h551l-41 -211h-150l14 71h-142l-28 -145h209l-28 -140h-209l-29 -150h154l14 71h150l-41 -211h-562zM355 761l-69 150h130l31 -82h2l63 82h140l-129 -150h-168z" />
    <glyph glyph-name="ecaron" unicode="&#x11b;" horiz-adv-x="563" 
d="M17 213c0 179 127 314 297 314c146 0 220 -83 220 -202c0 -23 -4 -48 -9 -67c-3 -11 -6 -22 -10 -32h-324v-3c0 -3 -1 -4 -1 -7c0 -52 40 -85 101 -85c39 0 76 13 105 26c17 7 33 16 48 26l44 -128c-18 -12 -38 -23 -60 -33c-37 -17 -88 -34 -148 -34
c-176 0 -263 104 -263 225zM212 321h152c0 3 0 5 1 8c1 4 1 9 1 12c0 32 -20 56 -55 56c-51 0 -83 -35 -99 -76zM263 565l-69 150h130l31 -82h2l63 82h140l-129 -150h-168z" />
    <glyph glyph-name="Gcircumflex" unicode="&#x11c;" horiz-adv-x="770" 
d="M43 304c0 232 196 423 444 423c97 0 298 -29 274 -140l-23 -116h-158l10 52c8 45 -66 54 -106 54c-167 0 -256 -145 -256 -266c0 -96 42 -173 178 -173c50 0 127 12 135 52l10 49h-116l26 130h275l-46 -232c-21 -112 -183 -149 -303 -149c-208 0 -344 129 -344 316z
M305 761l129 150h168l69 -150h-130l-31 82h-2l-63 -82h-140z" />
    <glyph glyph-name="gcircumflex" unicode="&#x11d;" horiz-adv-x="657" 
d="M-7 -157l66 119c10 -7 22 -12 36 -17c24 -8 60 -16 105 -16c72 0 120 25 139 104c3 13 4 21 7 28l3 10h-1c-35 -36 -71 -56 -126 -56c-136 0 -200 97 -200 216c0 144 100 296 275 296c59 0 93 -16 116 -33c13 -10 22 -21 28 -34h2v4c0 2 1 6 2 11c3 15 25 40 64 40h158
l-25 -125h-38c-15 0 -23 -6 -25 -19l-65 -329c-37 -187 -180 -252 -308 -252c-71 0 -123 13 -159 26c-21 7 -39 16 -54 27zM197 246c0 -49 23 -87 79 -87c76 0 119 84 119 149c0 60 -39 75 -83 75c-72 0 -115 -62 -115 -137zM180 565l129 150h168l69 -150h-130l-31 82h-2
l-63 -82h-140z" />
    <glyph glyph-name="Gbreve" unicode="&#x11e;" horiz-adv-x="770" 
d="M43 304c0 232 196 423 444 423c97 0 298 -29 274 -140l-23 -116h-158l10 52c8 45 -66 54 -106 54c-167 0 -256 -145 -256 -266c0 -96 42 -173 178 -173c50 0 127 12 135 52l10 49h-116l26 130h275l-46 -232c-21 -112 -183 -149 -303 -149c-208 0 -344 129 -344 316z
M508 756c-101 0 -180 56 -161 145l2 10h117l-2 -11c-8 -40 18 -58 45 -58s61 18 69 58l2 11h117l-2 -10c-18 -98 -98 -145 -187 -145z" />
    <glyph glyph-name="gbreve" unicode="&#x11f;" horiz-adv-x="657" 
d="M-7 -157l66 119c10 -7 22 -12 36 -17c24 -8 60 -16 105 -16c72 0 120 25 139 104c3 13 4 21 7 28l3 10h-1c-35 -36 -71 -56 -126 -56c-136 0 -200 97 -200 216c0 144 100 296 275 296c59 0 93 -16 116 -33c13 -10 22 -21 28 -34h2v4c0 2 1 6 2 11c3 15 25 40 64 40h158
l-25 -125h-38c-15 0 -23 -6 -25 -19l-65 -329c-37 -187 -180 -252 -308 -252c-71 0 -123 13 -159 26c-21 7 -39 16 -54 27zM197 246c0 -49 23 -87 79 -87c76 0 119 84 119 149c0 60 -39 75 -83 75c-72 0 -115 -62 -115 -137zM383 560c-101 0 -180 56 -161 145l2 10h117
l-2 -11c-8 -40 18 -58 45 -58s61 18 69 58l2 11h117l-2 -10c-18 -98 -98 -145 -187 -145z" />
    <glyph glyph-name="Gdotaccent" unicode="&#x120;" horiz-adv-x="770" 
d="M43 304c0 232 196 423 444 423c97 0 298 -29 274 -140l-23 -116h-158l10 52c8 45 -66 54 -106 54c-167 0 -256 -145 -256 -266c0 -96 42 -173 178 -173c50 0 127 12 135 52l10 49h-116l26 130h275l-46 -232c-21 -112 -183 -149 -303 -149c-208 0 -344 129 -344 316z
M426 779l26 132h143l-26 -132h-143z" />
    <glyph glyph-name="gdotaccent" unicode="&#x121;" horiz-adv-x="657" 
d="M-7 -157l66 119c10 -7 22 -12 36 -17c24 -8 60 -16 105 -16c72 0 120 25 139 104c3 13 4 21 7 28l3 10h-1c-35 -36 -71 -56 -126 -56c-136 0 -200 97 -200 216c0 144 100 296 275 296c59 0 93 -16 116 -33c13 -10 22 -21 28 -34h2v4c0 2 1 6 2 11c3 15 25 40 64 40h158
l-25 -125h-38c-15 0 -23 -6 -25 -19l-65 -329c-37 -187 -180 -252 -308 -252c-71 0 -123 13 -159 26c-21 7 -39 16 -54 27zM197 246c0 -49 23 -87 79 -87c76 0 119 84 119 149c0 60 -39 75 -83 75c-72 0 -115 -62 -115 -137zM301 583l26 132h143l-26 -132h-143z" />
    <glyph glyph-name="Gcommaaccent" unicode="&#x122;" horiz-adv-x="770" 
d="M43 304c0 232 196 423 444 423c97 0 298 -29 274 -140l-23 -116h-158l10 52c8 45 -66 54 -106 54c-167 0 -256 -145 -256 -266c0 -96 42 -173 178 -173c50 0 127 12 135 52l10 49h-116l26 130h275l-46 -232c-21 -112 -183 -149 -303 -149c-208 0 -344 129 -344 316z
M266 -46h139c1 -7 1 -13 1 -20c0 -94 -67 -158 -149 -182l-51 54c47 31 63 66 63 109c0 12 -1 25 -3 39z" />
    <glyph glyph-name="gcommaaccent" unicode="&#x123;" horiz-adv-x="657" 
d="M-7 -157l66 119c10 -7 22 -12 36 -17c24 -8 60 -16 105 -16c72 0 120 25 139 104c3 13 4 21 7 28l3 10h-1c-35 -36 -71 -56 -126 -56c-136 0 -200 97 -200 216c0 144 100 296 275 296c59 0 93 -16 116 -33c13 -10 22 -21 28 -34h2v4c0 2 1 6 2 11c3 15 25 40 64 40h158
l-25 -125h-38c-15 0 -23 -6 -25 -19l-65 -329c-37 -187 -180 -252 -308 -252c-71 0 -123 13 -159 26c-21 7 -39 16 -54 27zM197 246c0 -49 23 -87 79 -87c76 0 119 84 119 149c0 60 -39 75 -83 75c-72 0 -115 -62 -115 -137zM427 572h-139c-1 7 -1 13 -1 20
c0 94 67 158 149 182l51 -54c-47 -31 -63 -66 -63 -109c0 -12 1 -25 3 -39z" />
    <glyph glyph-name="Hcircumflex" unicode="&#x124;" horiz-adv-x="875" 
d="M-7 0l25 130h79l88 455h-79l25 130h339l-25 -130h-80l-31 -160h256l31 160h-80l25 130h339l-25 -130h-80l-89 -455h80l-25 -130h-339l25 130h80l30 155h-256l-30 -155h80l-25 -130h-338zM339 761l129 150h168l69 -150h-130l-31 82h-2l-63 -82h-140z" />
    <glyph glyph-name="hcircumflex" unicode="&#x125;" horiz-adv-x="676" 
d="M15 0l114 590h-69l24 125h243l-45 -231c-2 -11 -5 -22 -8 -31c-2 -5 -4 -9 -5 -13h2c13 17 29 31 46 44c31 23 75 43 132 43c85 0 150 -48 150 -144c0 -63 -36 -184 -36 -223c0 -23 11 -36 39 -36c4 0 9 1 13 1h6l-24 -125c-3 -1 -8 -1 -14 -2c-11 -1 -24 -1 -47 -1
c-68 0 -151 8 -151 119c0 59 34 176 34 211c0 24 -10 43 -49 43c-72 0 -123 -72 -139 -152l-43 -218h-173zM60 761l129 150h168l69 -150h-130l-31 82h-2l-63 -82h-140z" />
    <glyph glyph-name="Hbar" unicode="&#x126;" horiz-adv-x="875" 
d="M-7 0l25 130h79l62 318h-80l16 80h80l11 57h-80l25 130h339l-25 -130h-80l-11 -57h256l11 57h-80l25 130h339l-25 -130h-80l-11 -57h80l-16 -80h-80l-62 -318h80l-25 -130h-339l25 130h80l28 145h-256l-28 -145h80l-25 -130h-338zM326 385h256l12 63h-256z" />
    <glyph glyph-name="hbar" unicode="&#x127;" horiz-adv-x="675" 
d="M14 0l109 559h-58l18 94h58l12 62h173l-12 -62h154l-18 -94h-154l-15 -75c-2 -11 -5 -22 -8 -31c-2 -5 -4 -9 -5 -13h2c13 17 29 31 46 44c31 23 75 43 132 43c85 0 150 -48 150 -144c0 -63 -36 -184 -36 -223c0 -23 11 -36 39 -36c4 0 9 1 13 1h6l-24 -125
c-3 -1 -8 -1 -14 -2c-11 -1 -24 -1 -47 -1c-68 0 -151 8 -151 119c0 59 34 176 34 211c0 24 -10 43 -49 43c-72 0 -123 -72 -139 -152l-43 -218h-173z" />
    <glyph glyph-name="Itilde" unicode="&#x128;" horiz-adv-x="440" 
d="M-7 0l25 130h79l88 455h-79l25 130h339l-25 -130h-81l-88 -455h80l-25 -130h-338zM228 761h-113c19 96 71 153 144 153c72 0 76 -60 113 -60c23 0 37 19 44 57h113c-17 -96 -70 -153 -142 -153s-78 60 -115 60c-21 0 -36 -19 -44 -57z" />
    <glyph glyph-name="itilde" unicode="&#x129;" horiz-adv-x="367" 
d="M65 116c0 19 2 41 7 64l41 210h-70l24 125h243l-63 -322c-3 -11 -4 -22 -4 -33c0 -23 11 -36 39 -36c4 0 9 1 13 1h6l-24 -125l-15 -2c-11 -1 -22 -1 -37 -1c-79 0 -160 7 -160 119zM152 565h-113c19 96 71 153 144 153c72 0 76 -60 113 -60c23 0 37 19 44 57h113
c-17 -96 -70 -153 -142 -153s-78 60 -115 60c-21 0 -36 -19 -44 -57z" />
    <glyph glyph-name="Imacron" unicode="&#x12a;" horiz-adv-x="440" 
d="M-7 0l25 130h79l88 455h-79l25 130h339l-25 -130h-81l-88 -455h80l-25 -130h-338zM175 782l22 112h275l-22 -112h-275z" />
    <glyph glyph-name="imacron" unicode="&#x12b;" horiz-adv-x="367" 
d="M65 116c0 19 2 41 7 64l41 210h-70l24 125h243l-63 -322c-3 -11 -4 -22 -4 -33c0 -23 11 -36 39 -36c4 0 9 1 13 1h6l-24 -125l-15 -2c-11 -1 -22 -1 -37 -1c-79 0 -160 7 -160 119zM99 586l22 112h275l-22 -112h-275z" />
    <glyph glyph-name="Ibreve" unicode="&#x12c;" horiz-adv-x="440" 
d="M-7 0l25 130h79l88 455h-79l25 130h339l-25 -130h-81l-88 -455h80l-25 -130h-338zM323 756c-101 0 -180 56 -161 145l2 10h117l-2 -11c-8 -40 18 -58 45 -58s61 18 69 58l2 11h117l-2 -10c-18 -98 -98 -145 -187 -145z" />
    <glyph glyph-name="ibreve" unicode="&#x12d;" horiz-adv-x="367" 
d="M65 116c0 19 2 41 7 64l41 210h-70l24 125h243l-63 -322c-3 -11 -4 -22 -4 -33c0 -23 11 -36 39 -36c4 0 9 1 13 1h6l-24 -125l-15 -2c-11 -1 -22 -1 -37 -1c-79 0 -160 7 -160 119zM247 560c-101 0 -180 56 -161 145l2 10h117l-2 -11c-8 -40 18 -58 45 -58s61 18 69 58
l2 11h117l-2 -10c-18 -98 -98 -145 -187 -145z" />
    <glyph glyph-name="Iogonek" unicode="&#x12e;" horiz-adv-x="440" 
d="M-7 0l25 130h79l88 455h-79l25 130h339l-25 -130h-81l-88 -455h80l-25 -130h-5c-32 0 -96 -63 -96 -103c0 -15 11 -26 50 -29l-49 -110c-84 9 -131 43 -131 96c0 59 43 111 94 146h-201z" />
    <glyph glyph-name="iogonek" unicode="&#x12f;" horiz-adv-x="367" 
d="M46 -146c0 61 45 114 100 149c-47 11 -82 40 -82 113c0 19 3 39 8 64l41 210h-70l24 125h243l-63 -322c-3 -11 -4 -22 -4 -33c0 -23 11 -36 39 -36c4 0 9 1 13 1h6l-24 -125h-4c-3 0 -7 -1 -11 -1c-28 -6 -86 -64 -86 -102c0 -15 11 -26 50 -29l-49 -110
c-84 9 -131 43 -131 96zM152 580l26 135h169l-26 -135h-169z" />
    <glyph glyph-name="Idotaccent" unicode="&#x130;" horiz-adv-x="440" 
d="M-7 0l25 130h79l88 455h-79l25 130h339l-25 -130h-81l-88 -455h80l-25 -130h-338zM241 779l26 132h143l-26 -132h-143z" />
    <glyph glyph-name="IJ" unicode="&#x132;" horiz-adv-x="820" 
d="M364 -1l27 140c41 -5 119 16 135 96l68 350h-90l25 130h339l-25 -130h-70l-65 -332c-43 -221 -194 -265 -344 -254zM-8 0l25 130h79l89 455h-80l25 130h339l-25 -130h-80l-89 -455h62l-25 -130h-320z" />
    <glyph glyph-name="ij" unicode="&#x133;" horiz-adv-x="691" 
d="M152 580l26 135h169l-26 -135h-169zM64 116c0 19 3 39 8 64l41 210h-70l24 125h243l-63 -322c-3 -11 -4 -22 -4 -33c0 -23 11 -36 39 -36c4 0 9 1 13 1h6l-24 -125l-15 -2c-11 -1 -22 -1 -37 -1c-79 0 -161 7 -161 119zM503 580l26 135h169l-26 -135h-169zM387 -8l77 398
h-71l24 125h244l-100 -516c-35 -176 -188 -207 -266 -207c-19 0 -33 0 -44 1l-17 2l26 132c1 -1 3 -1 6 -1h16c35 0 94 7 105 66z" />
    <glyph glyph-name="Jcircumflex" unicode="&#x134;" horiz-adv-x="581" 
d="M-7 177c0 25 4 47 8 66l8 29h169l-6 -26c-3 -15 -7 -33 -7 -50c0 -39 21 -53 48 -53c35 0 60 22 71 75l72 367h-94l25 130h343l-25 -130h-70l-73 -375c-30 -150 -138 -222 -255 -222c-109 0 -214 65 -214 189zM289 761l129 150h168l69 -150h-130l-31 82h-2l-63 -82h-140z
" />
    <glyph glyph-name="jcircumflex" unicode="&#x135;" horiz-adv-x="343" 
d="M36 565l129 150h168l69 -150h-130l-31 82h-2l-63 -82h-140zM39 -8l77 398h-71l24 125h244l-100 -516c-35 -176 -188 -207 -266 -207c-19 0 -33 0 -44 1l-17 2l26 132c1 -1 3 -1 6 -1h16c35 0 94 7 105 66z" />
    <glyph glyph-name="Kcommaaccent" unicode="&#x136;" horiz-adv-x="752" 
d="M-7 0l25 130h79l88 455h-79l25 130h311l-25 -130h-53l-29 -151h56l134 151h-49l25 130h292l-25 -130h-60l-193 -215v-2c5 -3 9 -8 13 -13c7 -9 15 -22 22 -41l45 -137c11 -35 17 -49 52 -49c7 0 13 0 20 1c4 1 8 1 12 1l-24 -130c-19 -3 -58 -3 -74 -3
c-108 0 -138 56 -154 108l-47 156c-7 22 -23 33 -49 33h-23l-32 -164h75l-25 -130h-333zM254 -46h139c1 -7 1 -13 1 -20c0 -94 -67 -158 -149 -182l-51 54c47 31 63 66 63 109c0 12 -1 25 -3 39z" />
    <glyph glyph-name="kcommaaccent" unicode="&#x137;" horiz-adv-x="611" 
d="M15 0l114 590h-70l24 125h243l-76 -392h50l71 67h-51l24 125h265l-24 -125h-49l-123 -118v-2c3 -3 7 -7 10 -12c7 -8 13 -19 20 -36l27 -60c11 -24 23 -37 51 -37h28l-24 -125c-17 -3 -44 -3 -64 -3c-113 0 -122 49 -144 98l-32 78c-7 17 -16 27 -33 27h-26l-39 -200
h-172zM180 -46h139c1 -7 1 -13 1 -20c0 -94 -67 -158 -149 -182l-51 54c47 31 63 66 63 109c0 12 -1 25 -3 39z" />
    <glyph glyph-name="kgreenlandic" unicode="&#x138;" horiz-adv-x="635" 
d="M41 0l75 390h-70l24 125h243l-37 -189h58l68 64h-51l24 125h255l-24 -125h-51l-123 -120v-2l13 -11c8 -7 17 -18 24 -35l27 -60c11 -24 23 -37 51 -37h28l-24 -125c-17 -3 -43 -3 -58 -3c-107 0 -122 49 -144 98l-32 78c-7 16 -20 24 -40 24h-26l-38 -197h-172z" />
    <glyph glyph-name="Lacute" unicode="&#x139;" horiz-adv-x="634" 
d="M-6 0l25 130h79l87 445h-80l27 140h339l-27 -140h-81l-84 -435h154l21 105h150l-48 -245h-562zM212 761l145 150h183l-180 -150h-148z" />
    <glyph glyph-name="lacute" unicode="&#x13a;" horiz-adv-x="339" 
d="M37 125c0 20 2 42 7 65l78 400h-70l24 125h243l-98 -510c-3 -15 -5 -28 -5 -39c0 -24 11 -33 39 -33c7 0 11 1 15 1h6l-27 -136l-15 -2c-11 -1 -22 -1 -37 -1c-79 0 -160 16 -160 130zM148 761l145 150h183l-180 -150h-148z" />
    <glyph glyph-name="Lcommaaccent" unicode="&#x13b;" horiz-adv-x="634" 
d="M-6 0l25 130h79l87 445h-80l27 140h339l-27 -140h-81l-84 -435h154l21 105h150l-48 -245h-562zM215 -46h139c1 -7 1 -13 1 -20c0 -94 -67 -158 -149 -182l-51 54c47 31 63 66 63 109c0 12 -1 25 -3 39z" />
    <glyph glyph-name="lcommaaccent" unicode="&#x13c;" horiz-adv-x="339" 
d="M37 125c0 20 2 42 7 65l78 400h-70l24 125h243l-98 -510c-3 -15 -5 -28 -5 -39c0 -24 11 -33 39 -33c7 0 11 1 15 1h6l-27 -136l-15 -2c-11 -1 -22 -1 -37 -1c-79 0 -160 16 -160 130zM55 -46h139c1 -7 1 -13 1 -20c0 -94 -67 -158 -149 -182l-51 54c47 31 63 66 63 109
c0 12 -1 25 -3 39z" />
    <glyph glyph-name="Lcaron" unicode="&#x13d;" horiz-adv-x="634" 
d="M-6 0l25 130h79l87 445h-80l27 140h339l-27 -140h-81l-84 -435h154l21 105h150l-48 -245h-562zM215 -46h139c1 -7 1 -13 1 -20c0 -94 -67 -158 -149 -182l-51 54c47 31 63 66 63 109c0 12 -1 25 -3 39z" />
    <glyph glyph-name="lcaron" unicode="&#x13e;" horiz-adv-x="341" 
d="M37 125c0 20 2 42 7 65l78 400h-70l24 125h243l-98 -510c-3 -15 -5 -28 -5 -39c0 -24 11 -33 39 -33c7 0 11 1 15 1h6l-27 -136l-15 -2c-11 -1 -22 -1 -37 -1c-79 0 -160 16 -160 130zM387 714h139c1 -7 1 -13 1 -20c0 -94 -67 -158 -149 -182l-51 54c47 31 63 66 63 109
c0 12 -1 25 -3 39z" />
    <glyph glyph-name="Ldot" unicode="&#x13f;" horiz-adv-x="634" 
d="M-6 0l25 130h79l87 445h-80l27 140h339l-27 -140h-81l-84 -435h154l21 105h150l-48 -245h-562zM406 316l31 164h158l-31 -164h-158z" />
    <glyph glyph-name="ldot" unicode="&#x140;" horiz-adv-x="506" 
d="M37 125c0 20 2 42 7 65l78 400h-70l24 125h243l-98 -510c-3 -15 -5 -28 -5 -39c0 -24 11 -33 39 -33c7 0 11 1 15 1h6l-27 -136l-15 -2c-11 -1 -22 -1 -37 -1c-79 0 -160 16 -160 130zM325 316l31 164h158l-31 -164h-158z" />
    <glyph glyph-name="Lslash" unicode="&#x141;" horiz-adv-x="633" 
d="M-7 0l25 130h79l18 95l-86 -42l27 146l88 42l39 204h-79l27 140h339l-27 -140h-81l-21 -108l182 88l-28 -146l-182 -88l-35 -181h164l21 105h140l-48 -245h-562z" />
    <glyph glyph-name="lslash" unicode="&#x142;" horiz-adv-x="367" 
d="M61 190l11 59l-75 -37l27 146l77 38l38 194h-70l24 125h243l-43 -225l98 49l-28 -146l-98 -49l-28 -145c-11 -49 -4 -66 35 -66c7 0 11 1 15 1h6l-27 -136l-15 -2c-11 -1 -22 -1 -37 -1c-92 0 -185 22 -153 195z" />
    <glyph glyph-name="Nacute" unicode="&#x143;" horiz-adv-x="858" 
d="M-8 0l25 130h79l89 455h-80l25 130h256l153 -386c7 -15 10 -31 13 -46c2 -8 3 -16 3 -24h4c0 9 1 18 2 27c2 17 5 33 8 50l49 249h-84l25 130h343l-25 -130h-80l-114 -585h-176l-155 385c-5 15 -9 30 -12 45c-2 8 -3 16 -4 24h-4c0 -9 -1 -17 -2 -26
c-3 -15 -4 -34 -7 -50l-48 -248h84l-25 -130h-342zM427 761l145 150h183l-180 -150h-148z" />
    <glyph glyph-name="nacute" unicode="&#x144;" horiz-adv-x="700" 
d="M39 0l72 368c3 15 -3 22 -18 22h-48l24 125h164c41 0 61 -16 61 -47c0 -13 -3 -26 -8 -40h2c13 19 29 35 47 50c31 25 78 49 139 49c84 0 149 -47 149 -145c0 -64 -36 -181 -36 -222c0 -23 11 -36 39 -36c4 0 9 1 13 1h6l-24 -125c-3 -1 -8 -1 -14 -2
c-11 -1 -24 -1 -47 -1c-68 0 -151 8 -151 119c0 59 34 176 34 211c0 24 -10 43 -49 43c-72 0 -123 -72 -139 -152l-43 -218h-173zM317 565l145 150h183l-180 -150h-148z" />
    <glyph glyph-name="Ncommaaccent" unicode="&#x145;" horiz-adv-x="858" 
d="M-8 0l25 130h79l89 455h-80l25 130h256l153 -386c7 -15 10 -31 13 -46c2 -8 3 -16 3 -24h4c0 9 1 18 2 27c2 17 5 33 8 50l49 249h-84l25 130h343l-25 -130h-80l-114 -585h-176l-155 385c-5 15 -9 30 -12 45c-2 8 -3 16 -4 24h-4c0 -9 -1 -17 -2 -26
c-3 -15 -4 -34 -7 -50l-48 -248h84l-25 -130h-342zM294 -46h139c1 -7 1 -13 1 -20c0 -94 -67 -158 -149 -182l-51 54c47 31 63 66 63 109c0 12 -1 25 -3 39z" />
    <glyph glyph-name="ncommaaccent" unicode="&#x146;" horiz-adv-x="700" 
d="M39 0l72 368c3 15 -3 22 -18 22h-48l24 125h164c41 0 61 -16 61 -47c0 -13 -3 -26 -8 -40h2c13 19 29 35 47 50c31 25 78 49 139 49c84 0 149 -47 149 -145c0 -64 -36 -181 -36 -222c0 -23 11 -36 39 -36c4 0 9 1 13 1h6l-24 -125c-3 -1 -8 -1 -14 -2
c-11 -1 -24 -1 -47 -1c-68 0 -151 8 -151 119c0 59 34 176 34 211c0 24 -10 43 -49 43c-72 0 -123 -72 -139 -152l-43 -218h-173zM264 -46h139c1 -7 1 -13 1 -20c0 -94 -67 -158 -149 -182l-51 54c47 31 63 66 63 109c0 12 -1 25 -3 39z" />
    <glyph glyph-name="Ncaron" unicode="&#x147;" horiz-adv-x="858" 
d="M-8 0l25 130h79l89 455h-80l25 130h256l153 -386c7 -15 10 -31 13 -46c2 -8 3 -16 3 -24h4c0 9 1 18 2 27c2 17 5 33 8 50l49 249h-84l25 130h343l-25 -130h-80l-114 -585h-176l-155 385c-5 15 -9 30 -12 45c-2 8 -3 16 -4 24h-4c0 -9 -1 -17 -2 -26
c-3 -15 -4 -34 -7 -50l-48 -248h84l-25 -130h-342zM441 761l-69 150h130l31 -82h2l63 82h140l-129 -150h-168z" />
    <glyph glyph-name="ncaron" unicode="&#x148;" horiz-adv-x="700" 
d="M39 0l72 368c3 15 -3 22 -18 22h-48l24 125h164c41 0 61 -16 61 -47c0 -13 -3 -26 -8 -40h2c13 19 29 35 47 50c31 25 78 49 139 49c84 0 149 -47 149 -145c0 -64 -36 -181 -36 -222c0 -23 11 -36 39 -36c4 0 9 1 13 1h6l-24 -125c-3 -1 -8 -1 -14 -2
c-11 -1 -24 -1 -47 -1c-68 0 -151 8 -151 119c0 59 34 176 34 211c0 24 -10 43 -49 43c-72 0 -123 -72 -139 -152l-43 -218h-173zM331 565l-69 150h130l31 -82h2l63 82h140l-129 -150h-168z" />
    <glyph glyph-name="napostrophe" unicode="&#x149;" horiz-adv-x="700" 
d="M39 0l72 368c3 15 -3 22 -18 22h-48l24 125h164c41 0 61 -16 61 -47c0 -13 -3 -26 -8 -40h2c13 19 29 35 47 50c31 25 78 49 139 49c84 0 149 -47 149 -145c0 -64 -36 -181 -36 -222c0 -23 11 -36 39 -36c4 0 9 1 13 1h6l-24 -125c-3 -1 -8 -1 -14 -2
c-11 -1 -24 -1 -47 -1c-68 0 -151 8 -151 119c0 59 34 176 34 211c0 24 -10 43 -49 43c-72 0 -123 -72 -139 -152l-43 -218h-173zM84 750h139c1 -7 1 -13 1 -20c0 -94 -67 -158 -149 -182l-51 54c47 31 63 66 63 109c0 12 -1 25 -3 39z" />
    <glyph glyph-name="Eng" unicode="&#x14a;" horiz-adv-x="858" 
d="M-8 0l25 130h79l89 455h-80l25 130h256l153 -386c7 -15 10 -31 13 -46c2 -8 3 -16 3 -24h4l3 27c3 15 4 34 7 50l49 249h-84l25 130h343l-25 -130h-80l-101 -518c-43 -227 -179 -272 -353 -272l29 148c67 0 126 18 135 57l-155 385c-5 15 -9 30 -12 45c-2 8 -3 16 -4 24
h-4c0 -9 -1 -17 -2 -26c-3 -15 -4 -34 -7 -50l-48 -248h84l-25 -130h-342z" />
    <glyph glyph-name="eng" unicode="&#x14b;" horiz-adv-x="674" 
d="M39 0l72 368c3 15 -3 22 -18 22h-48l24 125h164c41 0 61 -16 61 -47c0 -13 -3 -26 -8 -40h2c13 19 29 35 47 50c31 25 78 49 139 49c84 0 149 -47 149 -145c0 -39 -13 -98 -24 -147l-46 -236c-35 -176 -188 -207 -266 -207c-19 0 -33 0 -44 1l-17 2l26 132
c1 -1 3 -1 6 -1h16c35 0 94 7 105 66l48 244c8 39 16 74 16 91c0 24 -10 43 -49 43c-72 0 -123 -72 -139 -152l-43 -218h-173z" />
    <glyph glyph-name="Omacron" unicode="&#x14c;" horiz-adv-x="818" 
d="M43 307c0 228 201 420 429 420c194 0 327 -132 327 -312c0 -232 -204 -427 -430 -427c-195 0 -326 135 -326 319zM223 317c0 -104 64 -174 157 -174c117 0 238 114 238 261c0 101 -65 168 -158 168c-120 0 -237 -111 -237 -255zM365 782l22 112h275l-22 -112h-275z" />
    <glyph glyph-name="omacron" unicode="&#x14d;" horiz-adv-x="635" 
d="M16 219c0 181 159 308 331 308c148 0 257 -91 257 -231c0 -182 -161 -308 -331 -308c-147 0 -257 91 -257 231zM191 227c0 -60 39 -95 95 -95c69 0 143 59 143 153c0 61 -39 98 -94 98c-68 0 -144 -62 -144 -156zM237 586l22 112h275l-22 -112h-275z" />
    <glyph glyph-name="Obreve" unicode="&#x14e;" horiz-adv-x="818" 
d="M43 307c0 228 201 420 429 420c194 0 327 -132 327 -312c0 -232 -204 -427 -430 -427c-195 0 -326 135 -326 319zM223 317c0 -104 64 -174 157 -174c117 0 238 114 238 261c0 101 -65 168 -158 168c-120 0 -237 -111 -237 -255zM513 756c-101 0 -180 56 -161 145l2 10
h117l-2 -11c-8 -40 18 -58 45 -58s61 18 69 58l2 11h117l-2 -10c-18 -98 -98 -145 -187 -145z" />
    <glyph glyph-name="obreve" unicode="&#x14f;" horiz-adv-x="635" 
d="M16 219c0 181 159 308 331 308c148 0 257 -91 257 -231c0 -182 -161 -308 -331 -308c-147 0 -257 91 -257 231zM191 227c0 -60 39 -95 95 -95c69 0 143 59 143 153c0 61 -39 98 -94 98c-68 0 -144 -62 -144 -156zM385 560c-101 0 -180 56 -161 145l2 10h117l-2 -11
c-8 -40 18 -58 45 -58s61 18 69 58l2 11h117l-2 -10c-18 -98 -98 -145 -187 -145z" />
    <glyph glyph-name="Ohungarumlaut" unicode="&#x150;" horiz-adv-x="818" 
d="M43 307c0 228 201 420 429 420c194 0 327 -132 327 -312c0 -232 -204 -427 -430 -427c-195 0 -326 135 -326 319zM223 317c0 -104 64 -174 157 -174c117 0 238 114 238 261c0 101 -65 168 -158 168c-120 0 -237 -111 -237 -255zM521 761l111 150h169l-148 -150h-132z
M313 761l106 150h145l-109 -150h-142z" />
    <glyph glyph-name="ohungarumlaut" unicode="&#x151;" horiz-adv-x="635" 
d="M16 219c0 181 159 308 331 308c148 0 257 -91 257 -231c0 -182 -161 -308 -331 -308c-147 0 -257 91 -257 231zM191 227c0 -60 39 -95 95 -95c69 0 143 59 143 153c0 61 -39 98 -94 98c-68 0 -144 -62 -144 -156zM393 565l111 150h169l-148 -150h-132zM185 565l106 150
h145l-109 -150h-142z" />
    <glyph glyph-name="Racute" unicode="&#x154;" horiz-adv-x="741" 
d="M-7 0l25 130h80l89 455h-80l25 130h341c41 0 82 -3 117 -18c60 -27 104 -84 104 -172c0 -82 -40 -193 -152 -233v-3l15 -16c8 -11 16 -24 23 -41l20 -55c12 -33 18 -49 51 -49c7 0 13 0 20 1c3 1 7 1 10 1l-24 -130c-19 -3 -55 -3 -71 -3c-106 0 -138 56 -154 108
l-37 113c-7 22 -23 33 -49 33h-44l-24 -121h74l-25 -130h-334zM328 391h75c63 0 111 38 111 110c0 26 -7 45 -21 57c-13 11 -33 17 -60 17h-69zM349 761l145 150h183l-180 -150h-148z" />
    <glyph glyph-name="racute" unicode="&#x155;" horiz-adv-x="464" 
d="M41 0l71 368c3 11 -1 22 -18 22h-48l25 125h163c41 0 62 -16 62 -47c0 -15 -7 -49 -14 -72h2c33 70 105 128 178 128c11 0 18 0 21 -1s6 -1 9 -1l-33 -170l-9 2c-7 1 -14 1 -25 1c-51 0 -152 -35 -176 -171l-35 -184h-173zM201 565l145 150h183l-180 -150h-148z" />
    <glyph glyph-name="Rcommaaccent" unicode="&#x156;" horiz-adv-x="741" 
d="M-7 0l25 130h80l89 455h-80l25 130h341c41 0 82 -3 117 -18c60 -27 104 -84 104 -172c0 -82 -40 -193 -152 -233v-3l15 -16c8 -11 16 -24 23 -41l20 -55c12 -33 18 -49 51 -49c7 0 13 0 20 1c3 1 7 1 10 1l-24 -130c-19 -3 -55 -3 -71 -3c-106 0 -138 56 -154 108
l-37 113c-7 22 -23 33 -49 33h-44l-24 -121h74l-25 -130h-334zM328 391h75c63 0 111 38 111 110c0 26 -7 45 -21 57c-13 11 -33 17 -60 17h-69zM258 -46h139c1 -7 1 -13 1 -20c0 -94 -67 -158 -149 -182l-51 54c47 31 63 66 63 109c0 12 -1 25 -3 39z" />
    <glyph glyph-name="rcommaaccent" unicode="&#x157;" horiz-adv-x="464" 
d="M41 0l71 368c3 11 -1 22 -18 22h-48l25 125h163c41 0 62 -16 62 -47c0 -15 -7 -49 -14 -72h2c33 70 105 128 178 128c11 0 18 0 21 -1s6 -1 9 -1l-33 -170l-9 2c-7 1 -14 1 -25 1c-51 0 -152 -35 -176 -171l-35 -184h-173zM46 -46h139c1 -7 1 -13 1 -20
c0 -94 -67 -158 -149 -182l-51 54c47 31 63 66 63 109c0 12 -1 25 -3 39z" />
    <glyph glyph-name="Rcaron" unicode="&#x158;" horiz-adv-x="741" 
d="M-7 0l25 130h80l89 455h-80l25 130h341c41 0 82 -3 117 -18c60 -27 104 -84 104 -172c0 -82 -40 -193 -152 -233v-3l15 -16c8 -11 16 -24 23 -41l20 -55c12 -33 18 -49 51 -49c7 0 13 0 20 1c3 1 7 1 10 1l-24 -130c-19 -3 -55 -3 -71 -3c-106 0 -138 56 -154 108
l-37 113c-7 22 -23 33 -49 33h-44l-24 -121h74l-25 -130h-334zM328 391h75c63 0 111 38 111 110c0 26 -7 45 -21 57c-13 11 -33 17 -60 17h-69zM363 761l-69 150h130l31 -82h2l63 82h140l-129 -150h-168z" />
    <glyph glyph-name="rcaron" unicode="&#x159;" horiz-adv-x="464" 
d="M41 0l71 368c3 11 -1 22 -18 22h-48l25 125h163c41 0 62 -16 62 -47c0 -15 -7 -49 -14 -72h2c33 70 105 128 178 128c11 0 18 0 21 -1s6 -1 9 -1l-33 -170l-9 2c-7 1 -14 1 -25 1c-51 0 -152 -35 -176 -171l-35 -184h-173zM215 565l-69 150h130l31 -82h2l63 82h140
l-129 -150h-168z" />
    <glyph glyph-name="Sacute" unicode="&#x15a;" horiz-adv-x="630" 
d="M20 174l15 80h160l-10 -49c-11 -48 50 -62 103 -62c77 0 106 40 106 75c0 92 -301 66 -301 281c0 159 144 228 299 228c88 0 248 -26 224 -149l-19 -94h-160l9 46c8 34 -35 42 -75 42c-60 0 -99 -19 -99 -62c0 -100 302 -63 302 -283c0 -158 -145 -239 -309 -239
c-103 0 -272 46 -245 186zM309 761l145 150h183l-180 -150h-148z" />
    <glyph glyph-name="sacute" unicode="&#x15b;" horiz-adv-x="517" 
d="M-5 130l10 52h145l-4 -18c-8 -38 47 -45 79 -45c51 0 66 17 66 34c0 65 -233 38 -233 202c0 123 126 172 249 172c90 0 199 -33 183 -124l-11 -58h-145l3 20c5 28 -29 31 -50 31c-41 0 -61 -10 -61 -31c0 -72 235 -31 235 -194c0 -115 -110 -183 -258 -183
c-88 0 -229 34 -208 142zM221 565l145 150h183l-180 -150h-148z" />
    <glyph glyph-name="Scircumflex" unicode="&#x15c;" horiz-adv-x="630" 
d="M20 174l15 80h160l-10 -49c-11 -48 50 -62 103 -62c77 0 106 40 106 75c0 92 -301 66 -301 281c0 159 144 228 299 228c88 0 248 -26 224 -149l-19 -94h-160l9 46c8 34 -35 42 -75 42c-60 0 -99 -19 -99 -62c0 -100 302 -63 302 -283c0 -158 -145 -239 -309 -239
c-103 0 -272 46 -245 186zM214 761l129 150h168l69 -150h-130l-31 82h-2l-63 -82h-140z" />
    <glyph glyph-name="scircumflex" unicode="&#x15d;" horiz-adv-x="517" 
d="M-5 130l10 52h145l-4 -18c-8 -38 47 -45 79 -45c51 0 66 17 66 34c0 65 -233 38 -233 202c0 123 126 172 249 172c90 0 199 -33 183 -124l-11 -58h-145l3 20c5 28 -29 31 -50 31c-41 0 -61 -10 -61 -31c0 -72 235 -31 235 -194c0 -115 -110 -183 -258 -183
c-88 0 -229 34 -208 142zM126 565l129 150h168l69 -150h-130l-31 82h-2l-63 -82h-140z" />
    <glyph glyph-name="Scedilla" unicode="&#x15e;" horiz-adv-x="630" 
d="M160 -104l50 96c-98 13 -210 66 -189 182l15 80h160l-10 -49c-11 -48 50 -62 103 -62c77 0 106 40 106 75c0 92 -301 66 -301 281c0 159 144 228 299 228c88 0 248 -26 224 -149l-19 -94h-160l9 46c8 34 -35 42 -75 42c-60 0 -99 -19 -99 -62c0 -100 302 -63 302 -283
c0 -152 -132 -230 -287 -238l-20 -39c45 -3 80 -31 80 -74c0 -83 -92 -110 -160 -110c-17 0 -35 1 -47 4c-7 1 -14 3 -20 5l14 75l14 -4c9 -3 19 -4 34 -4c19 0 53 3 53 30c0 19 -26 24 -51 24h-25z" />
    <glyph glyph-name="scedilla" unicode="&#x15f;" horiz-adv-x="517" 
d="M111 -104l49 95c-83 8 -183 48 -165 139l10 52h145l-4 -18c-8 -38 47 -45 79 -45c51 0 66 17 66 34c0 65 -233 38 -233 202c0 123 126 172 249 172c90 0 199 -33 183 -124l-11 -58h-145l3 20c5 28 -29 31 -50 31c-41 0 -61 -10 -61 -31c0 -72 235 -31 235 -194
c0 -105 -93 -170 -221 -181l-21 -40c45 -3 80 -31 80 -74c0 -83 -92 -110 -160 -110c-17 0 -35 1 -47 4c-7 1 -14 3 -20 5l14 75l14 -4c9 -3 19 -4 34 -4c19 0 53 3 53 30c0 19 -26 24 -51 24h-25z" />
    <glyph glyph-name="Scaron" unicode="&#x160;" horiz-adv-x="630" 
d="M20 174l15 80h160l-10 -49c-11 -48 50 -62 103 -62c77 0 106 40 106 75c0 92 -301 66 -301 281c0 159 144 228 299 228c88 0 248 -26 224 -149l-19 -94h-160l9 46c8 34 -35 42 -75 42c-60 0 -99 -19 -99 -62c0 -100 302 -63 302 -283c0 -158 -145 -239 -309 -239
c-103 0 -272 46 -245 186zM323 761l-69 150h130l31 -82h2l63 82h140l-129 -150h-168z" />
    <glyph glyph-name="scaron" unicode="&#x161;" horiz-adv-x="517" 
d="M-5 130l10 52h145l-4 -18c-8 -38 47 -45 79 -45c51 0 66 17 66 34c0 65 -233 38 -233 202c0 123 126 172 249 172c90 0 199 -33 183 -124l-11 -58h-145l3 20c5 28 -29 31 -50 31c-41 0 -61 -10 -61 -31c0 -72 235 -31 235 -194c0 -115 -110 -183 -258 -183
c-88 0 -229 34 -208 142zM235 565l-69 150h130l31 -82h2l63 82h140l-129 -150h-168z" />
    <glyph glyph-name="Tcommaaccent" unicode="&#x162;" horiz-adv-x="698" 
d="M120 0l25 130h80l87 445h-86l-19 -101h-150l47 241h649l-47 -241h-150l19 101h-84l-87 -445h80l-25 -130h-134l-26 -50c45 -3 80 -31 80 -74c0 -83 -92 -110 -160 -110c-17 0 -35 1 -47 4c-7 1 -14 3 -20 5l14 75l14 -4c9 -3 19 -4 34 -4c19 0 53 3 53 30
c0 19 -26 24 -51 24h-25l54 104h-125z" />
    <glyph glyph-name="tcommaaccent" unicode="&#x163;" horiz-adv-x="411" 
d="M86 -104l65 124c-51 25 -84 68 -84 140c0 11 2 25 5 40l38 190h-70l24 125h76l27 139h166l-27 -139h109l-24 -125h-109l-34 -179c-3 -9 -3 -22 -3 -27c0 -43 38 -51 76 -51c9 0 16 0 19 1s5 1 8 1l-27 -137l-15 -2c-9 -1 -20 -1 -31 -1c-19 0 -38 1 -55 4l-26 -49
c45 -3 80 -31 80 -74c0 -83 -92 -110 -160 -110c-17 0 -35 1 -47 4c-7 1 -14 3 -20 5l14 75l14 -4c9 -3 19 -4 34 -4c19 0 53 3 53 30c0 19 -26 24 -51 24h-25z" />
    <glyph glyph-name="Tcaron" unicode="&#x164;" horiz-adv-x="698" 
d="M120 0l25 130h80l87 445h-86l-19 -101h-150l47 241h649l-47 -241h-150l19 101h-84l-87 -445h80l-25 -130h-339zM356 761l-69 150h130l31 -82h2l63 82h140l-129 -150h-168z" />
    <glyph glyph-name="tcaron" unicode="&#x165;" horiz-adv-x="409" 
d="M65 160c0 11 2 25 5 40l38 190h-70l24 125h76l27 139h166l-27 -139h109l-24 -125h-109l-34 -179c-3 -9 -3 -22 -3 -27c0 -43 38 -51 76 -51c9 0 16 0 19 1s5 1 8 1l-27 -137l-15 -2c-9 -1 -20 -1 -31 -1c-113 0 -208 46 -208 165zM433 749h139c1 -7 1 -13 1 -20
c0 -94 -67 -158 -149 -182l-51 54c47 31 63 66 63 109c0 12 -1 25 -3 39z" />
    <glyph glyph-name="Tbar" unicode="&#x166;" horiz-adv-x="698" 
d="M120 0l25 130h80l29 149h-163l22 112h163l36 184h-85l-20 -101h-150l47 241h649l-47 -241h-150l20 101h-85l-36 -184h162l-22 -112h-162l-29 -149h80l-25 -130h-339z" />
    <glyph glyph-name="tbar" unicode="&#x167;" horiz-adv-x="409" 
d="M65 160c0 11 2 25 5 40l4 21h-68l22 112h68l14 67h-70l22 115h76l27 139h166l-27 -139h109l-22 -115h-109l-13 -67h102l-22 -112h-101l-2 -10c-3 -9 -3 -22 -3 -27c0 -43 38 -51 76 -51c9 0 16 0 19 1s5 1 8 1l-27 -137l-15 -2c-9 -1 -20 -1 -31 -1
c-113 0 -208 46 -208 165z" />
    <glyph glyph-name="Utilde" unicode="&#x168;" horiz-adv-x="824" 
d="M96 212c0 19 3 45 11 86l56 287h-80l25 130h339l-25 -130h-80l-55 -287c-7 -37 -10 -48 -10 -65c0 -60 38 -90 105 -90c44 0 81 14 108 41c19 21 32 47 38 79l62 322h-80l25 130h339l-25 -130h-80l-63 -327c-19 -95 -65 -170 -133 -217c-53 -35 -118 -53 -194 -53
c-152 0 -283 73 -283 224zM421 761h-113c19 96 71 153 144 153c72 0 76 -60 113 -60c23 0 37 19 44 57h113c-17 -96 -70 -153 -142 -153s-78 60 -115 60c-21 0 -36 -19 -44 -57z" />
    <glyph glyph-name="utilde" unicode="&#x169;" horiz-adv-x="702" 
d="M65 131c0 16 2 37 6 57l39 202h-70l25 125h243l-59 -302c-3 -11 -4 -22 -4 -29c0 -29 15 -44 45 -44c71 0 123 79 137 147l20 103h-70l25 125h243l-63 -322c-3 -11 -4 -22 -4 -33c0 -23 11 -36 39 -36c4 0 9 1 13 1h6l-24 -125l-17 -2c-11 -1 -27 -1 -50 -1
c-55 0 -128 3 -139 95h-2c-43 -60 -102 -104 -186 -104s-153 44 -153 143zM301 565h-113c19 96 71 153 144 153c72 0 76 -60 113 -60c23 0 37 19 44 57h113c-17 -96 -70 -153 -142 -153s-78 60 -115 60c-21 0 -36 -19 -44 -57z" />
    <glyph glyph-name="Umacron" unicode="&#x16a;" horiz-adv-x="824" 
d="M96 212c0 19 3 45 11 86l56 287h-80l25 130h339l-25 -130h-80l-55 -287c-7 -37 -10 -48 -10 -65c0 -60 38 -90 105 -90c44 0 81 14 108 41c19 21 32 47 38 79l62 322h-80l25 130h339l-25 -130h-80l-63 -327c-19 -95 -65 -170 -133 -217c-53 -35 -118 -53 -194 -53
c-152 0 -283 73 -283 224zM368 782l22 112h275l-22 -112h-275z" />
    <glyph glyph-name="umacron" unicode="&#x16b;" horiz-adv-x="702" 
d="M65 131c0 16 2 37 6 57l39 202h-70l25 125h243l-59 -302c-3 -11 -4 -22 -4 -29c0 -29 15 -44 45 -44c71 0 123 79 137 147l20 103h-70l25 125h243l-63 -322c-3 -11 -4 -22 -4 -33c0 -23 11 -36 39 -36c4 0 9 1 13 1h6l-24 -125l-17 -2c-11 -1 -27 -1 -50 -1
c-55 0 -128 3 -139 95h-2c-43 -60 -102 -104 -186 -104s-153 44 -153 143zM248 586l22 112h275l-22 -112h-275z" />
    <glyph glyph-name="Ubreve" unicode="&#x16c;" horiz-adv-x="824" 
d="M96 212c0 19 3 45 11 86l56 287h-80l25 130h339l-25 -130h-80l-55 -287c-7 -37 -10 -48 -10 -65c0 -60 38 -90 105 -90c44 0 81 14 108 41c19 21 32 47 38 79l62 322h-80l25 130h339l-25 -130h-80l-63 -327c-19 -95 -65 -170 -133 -217c-53 -35 -118 -53 -194 -53
c-152 0 -283 73 -283 224zM516 756c-101 0 -180 56 -161 145l2 10h117l-2 -11c-8 -40 18 -58 45 -58s61 18 69 58l2 11h117l-2 -10c-18 -98 -98 -145 -187 -145z" />
    <glyph glyph-name="ubreve" unicode="&#x16d;" horiz-adv-x="702" 
d="M65 131c0 16 2 37 6 57l39 202h-70l25 125h243l-59 -302c-3 -11 -4 -22 -4 -29c0 -29 15 -44 45 -44c71 0 123 79 137 147l20 103h-70l25 125h243l-63 -322c-3 -11 -4 -22 -4 -33c0 -23 11 -36 39 -36c4 0 9 1 13 1h6l-24 -125l-17 -2c-11 -1 -27 -1 -50 -1
c-55 0 -128 3 -139 95h-2c-43 -60 -102 -104 -186 -104s-153 44 -153 143zM396 560c-101 0 -180 56 -161 145l2 10h117l-2 -11c-8 -40 18 -58 45 -58s61 18 69 58l2 11h117l-2 -10c-18 -98 -98 -145 -187 -145z" />
    <glyph glyph-name="Uring" unicode="&#x16e;" horiz-adv-x="824" 
d="M96 212c0 19 3 45 11 86l56 287h-80l25 130h339l-25 -130h-80l-55 -287c-7 -37 -10 -48 -10 -65c0 -60 38 -90 105 -90c44 0 81 14 108 41c19 21 32 47 38 79l62 322h-80l25 130h339l-25 -130h-80l-63 -327c-19 -95 -65 -170 -133 -217c-53 -35 -118 -53 -194 -53
c-152 0 -283 73 -283 224zM503 747c-51 0 -99 23 -99 73c0 69 67 98 122 98c51 0 100 -24 100 -76c0 -67 -71 -95 -123 -95zM508 797c23 0 43 18 43 43c0 19 -10 28 -29 28c-23 0 -42 -18 -42 -45c0 -17 9 -26 28 -26z" />
    <glyph glyph-name="uring" unicode="&#x16f;" horiz-adv-x="702" 
d="M65 131c0 16 2 37 6 57l39 202h-70l25 125h243l-59 -302c-3 -11 -4 -22 -4 -29c0 -29 15 -44 45 -44c71 0 123 79 137 147l20 103h-70l25 125h243l-63 -322c-3 -11 -4 -22 -4 -33c0 -23 11 -36 39 -36c4 0 9 1 13 1h6l-24 -125l-17 -2c-11 -1 -27 -1 -50 -1
c-55 0 -128 3 -139 95h-2c-43 -60 -102 -104 -186 -104s-153 44 -153 143zM383 551c-51 0 -99 23 -99 73c0 69 67 98 122 98c51 0 100 -24 100 -76c0 -67 -71 -95 -123 -95zM388 601c23 0 43 18 43 43c0 19 -10 28 -29 28c-23 0 -42 -18 -42 -45c0 -17 9 -26 28 -26z" />
    <glyph glyph-name="Uhungarumlaut" unicode="&#x170;" horiz-adv-x="824" 
d="M96 212c0 19 3 45 11 86l56 287h-80l25 130h339l-25 -130h-80l-55 -287c-7 -37 -10 -48 -10 -65c0 -60 38 -90 105 -90c44 0 81 14 108 41c19 21 32 47 38 79l62 322h-80l25 130h339l-25 -130h-80l-63 -327c-19 -95 -65 -170 -133 -217c-53 -35 -118 -53 -194 -53
c-152 0 -283 73 -283 224zM524 761l111 150h169l-148 -150h-132zM316 761l106 150h145l-109 -150h-142z" />
    <glyph glyph-name="uhungarumlaut" unicode="&#x171;" horiz-adv-x="702" 
d="M65 131c0 16 2 37 6 57l39 202h-70l25 125h243l-59 -302c-3 -11 -4 -22 -4 -29c0 -29 15 -44 45 -44c71 0 123 79 137 147l20 103h-70l25 125h243l-63 -322c-3 -11 -4 -22 -4 -33c0 -23 11 -36 39 -36c4 0 9 1 13 1h6l-24 -125l-17 -2c-11 -1 -27 -1 -50 -1
c-55 0 -128 3 -139 95h-2c-43 -60 -102 -104 -186 -104s-153 44 -153 143zM404 565l111 150h169l-148 -150h-132zM196 565l106 150h145l-109 -150h-142z" />
    <glyph glyph-name="Uogonek" unicode="&#x172;" horiz-adv-x="824" 
d="M96 215c0 19 2 38 6 58l61 312h-80l25 130h339l-25 -130h-80l-62 -322c-2 -10 -3 -19 -3 -28c0 -63 39 -92 104 -92c77 0 132 40 147 120l62 322h-80l25 130h339l-25 -130h-80l-65 -337c-24 -124 -101 -204 -216 -247c-43 -16 -84 -68 -84 -104c0 -15 11 -26 50 -29
l-49 -110c-84 9 -131 43 -131 96s35 100 79 135c-142 8 -257 78 -257 226z" />
    <glyph glyph-name="uogonek" unicode="&#x173;" horiz-adv-x="702" 
d="M381 -146c0 61 45 113 98 148c-35 9 -66 31 -73 90h-2c-43 -60 -102 -104 -186 -104s-153 44 -153 143c0 16 2 37 6 57l39 202h-70l25 125h243l-59 -302c-3 -11 -4 -22 -4 -29c0 -29 15 -44 45 -44c71 0 123 79 137 147l20 103h-70l25 125h243l-63 -322
c-3 -11 -4 -22 -4 -33c0 -23 11 -36 39 -36c4 0 9 1 13 1h6l-24 -125h-4c-3 0 -6 -1 -11 -1c-30 -5 -86 -64 -86 -102c0 -15 11 -26 50 -29l-49 -110c-84 9 -131 43 -131 96z" />
    <glyph glyph-name="Wcircumflex" unicode="&#x174;" horiz-adv-x="1036" 
d="M158 0l-28 585h-60l25 130h312l-25 -130h-83l4 -317c0 -17 -1 -36 -2 -51l-3 -24h4c2 8 4 16 7 24c5 15 11 34 19 51l197 447h138l23 -447c1 -19 1 -36 0 -51l-2 -24h4c1 8 3 16 6 24c4 15 10 34 17 51l128 317h-83l25 130h322l-25 -130h-60l-256 -585h-197l-20 366
c-1 19 0 38 1 53l3 26h-4l-8 -26c-5 -15 -12 -34 -20 -53l-162 -366h-197zM414 761l129 150h168l69 -150h-130l-31 82h-2l-63 -82h-140z" />
    <glyph glyph-name="wcircumflex" unicode="&#x175;" horiz-adv-x="876" 
d="M111 0l-22 390h-59l25 125h269l-25 -125h-51l3 -179c1 -15 -1 -32 -2 -45l-3 -23h4c1 8 3 16 6 23c4 13 8 30 15 45l131 304h148l11 -304c1 -15 1 -32 -2 -45l-3 -23h4c1 8 3 16 6 23l15 45l73 179h-51l25 125h279l-25 -125h-59l-174 -390h-200l-11 238c-1 16 0 33 1 46
l3 22h-4c-1 -7 -3 -15 -6 -22c-4 -13 -9 -30 -16 -46l-105 -238h-200zM299 565l129 150h168l69 -150h-130l-31 82h-2l-63 -82h-140z" />
    <glyph glyph-name="Ycircumflex" unicode="&#x176;" horiz-adv-x="671" 
d="M108 0l25 130h80l32 163l-118 292h-61l25 130h289l-25 -130h-60l47 -132c4 -11 6 -18 7 -25l2 -10h2c1 3 3 7 6 10c4 7 10 14 17 25l99 132h-60l25 130h302l-25 -130h-61l-232 -292l-32 -163h80l-25 -130h-339zM241 761l129 150h168l69 -150h-130l-31 82h-2l-63 -82h-140
z" />
    <glyph glyph-name="ycircumflex" unicode="&#x177;" horiz-adv-x="628" 
d="M-80 -168l74 119c6 -4 13 -8 20 -11c13 -7 34 -11 61 -11c36 0 73 10 93 42l3 5l-89 414h-58l24 125h278l-24 -125h-50l26 -191c3 -15 2 -32 1 -45l-2 -22h4l8 22c5 13 12 28 21 45l98 191h-47l24 125h272l-24 -125h-53l-251 -435c-75 -129 -163 -165 -257 -165
c-48 0 -85 10 -112 21c-15 7 -29 14 -40 21zM173 565l129 150h168l69 -150h-130l-31 82h-2l-63 -82h-140z" />
    <glyph glyph-name="Zacute" unicode="&#x179;" horiz-adv-x="664" 
d="M-7 0l21 110l381 432c10 11 19 20 26 25l13 9v2c-5 0 -9 0 -14 -1c-8 -1 -18 -2 -29 -2h-133l-20 -101h-150l47 241h549l-21 -108l-383 -434c-8 -9 -17 -17 -26 -24c-5 -3 -9 -7 -13 -10v-2l14 2c8 1 18 1 29 1h150l21 105h150l-48 -245h-564zM321 761l145 150h183
l-180 -150h-148z" />
    <glyph glyph-name="zacute" unicode="&#x17a;" horiz-adv-x="555" 
d="M-15 0l20 106l270 255c11 9 19 16 26 21c4 3 8 5 11 8v2c-5 0 -10 0 -15 -1c-9 -1 -20 -1 -31 -1h-61l-12 -62h-145l37 187h460l-21 -107l-266 -254c-9 -9 -19 -16 -26 -21c-4 -3 -8 -5 -11 -8v-2c5 0 11 0 16 1c9 1 19 1 30 1h72l12 62h145l-37 -187h-474zM226 565
l145 150h183l-180 -150h-148z" />
    <glyph glyph-name="Zdotaccent" unicode="&#x17b;" horiz-adv-x="664" 
d="M-7 0l21 110l381 432c10 11 19 20 26 25l13 9v2c-5 0 -9 0 -14 -1c-8 -1 -18 -2 -29 -2h-133l-20 -101h-150l47 241h549l-21 -108l-383 -434c-8 -9 -17 -17 -26 -24c-5 -3 -9 -7 -13 -10v-2l14 2c8 1 18 1 29 1h150l21 105h150l-48 -245h-564zM347 779l26 132h143
l-26 -132h-143z" />
    <glyph glyph-name="zdotaccent" unicode="&#x17c;" horiz-adv-x="555" 
d="M-15 0l20 106l270 255c11 9 19 16 26 21c4 3 8 5 11 8v2c-5 0 -10 0 -15 -1c-9 -1 -20 -1 -31 -1h-61l-12 -62h-145l37 187h460l-21 -107l-266 -254c-9 -9 -19 -16 -26 -21c-4 -3 -8 -5 -11 -8v-2c5 0 11 0 16 1c9 1 19 1 30 1h72l12 62h145l-37 -187h-474zM252 583
l26 132h143l-26 -132h-143z" />
    <glyph glyph-name="Zcaron" unicode="&#x17d;" horiz-adv-x="664" 
d="M-7 0l21 110l381 432c10 11 19 20 26 25l13 9v2c-5 0 -9 0 -14 -1c-8 -1 -18 -2 -29 -2h-133l-20 -101h-150l47 241h549l-21 -108l-383 -434c-8 -9 -17 -17 -26 -24c-5 -3 -9 -7 -13 -10v-2l14 2c8 1 18 1 29 1h150l21 105h150l-48 -245h-564zM335 761l-69 150h130
l31 -82h2l63 82h140l-129 -150h-168z" />
    <glyph glyph-name="zcaron" unicode="&#x17e;" horiz-adv-x="555" 
d="M-15 0l20 106l270 255c11 9 19 16 26 21c4 3 8 5 11 8v2c-5 0 -10 0 -15 -1c-9 -1 -20 -1 -31 -1h-61l-12 -62h-145l37 187h460l-21 -107l-266 -254c-9 -9 -19 -16 -26 -21c-4 -3 -8 -5 -11 -8v-2c5 0 11 0 16 1c9 1 19 1 30 1h72l12 62h145l-37 -187h-474zM240 565
l-69 150h130l31 -82h2l63 82h140l-129 -150h-168z" />
    <glyph glyph-name="longs" unicode="&#x17f;" horiz-adv-x="342" 
d="M39 0l76 390h-70l24 125h70l4 21c32 169 186 191 265 191c19 0 32 -1 43 -2l17 -2l-28 -136l-10 2c-7 1 -17 1 -29 1c-25 0 -73 -1 -84 -50l-105 -540h-173z" />
    <glyph glyph-name="Scommaaccent" unicode="&#x218;" horiz-adv-x="630" 
d="M20 174l15 80h160l-10 -49c-11 -48 50 -62 103 -62c77 0 106 40 106 75c0 92 -301 66 -301 281c0 159 144 228 299 228c88 0 248 -26 224 -149l-19 -94h-160l9 46c8 34 -35 42 -75 42c-60 0 -99 -19 -99 -62c0 -100 302 -63 302 -283c0 -158 -145 -239 -309 -239
c-103 0 -272 46 -245 186zM177 -46h139c1 -7 1 -13 1 -20c0 -94 -67 -158 -149 -182l-51 54c47 31 63 66 63 109c0 12 -1 25 -3 39z" />
    <glyph glyph-name="scommaaccent" unicode="&#x219;" horiz-adv-x="517" 
d="M-5 130l10 52h145l-4 -18c-8 -38 47 -45 79 -45c51 0 66 17 66 34c0 65 -233 38 -233 202c0 123 126 172 249 172c90 0 199 -33 183 -124l-11 -58h-145l3 20c5 28 -29 31 -50 31c-41 0 -61 -10 -61 -31c0 -72 235 -31 235 -194c0 -115 -110 -183 -258 -183
c-88 0 -229 34 -208 142zM129 -46h139c1 -7 1 -13 1 -20c0 -94 -67 -158 -149 -182l-51 54c47 31 63 66 63 109c0 12 -1 25 -3 39z" />
    <glyph glyph-name="uni021A" unicode="&#x21a;" horiz-adv-x="698" 
d="M120 0l25 130h80l87 445h-86l-19 -101h-150l47 241h649l-47 -241h-150l19 101h-84l-87 -445h80l-25 -130h-339zM209 -46h139c1 -7 1 -13 1 -20c0 -94 -67 -158 -149 -182l-51 54c47 31 63 66 63 109c0 12 -1 25 -3 39z" />
    <glyph glyph-name="uni021B" unicode="&#x21b;" horiz-adv-x="409" 
d="M65 160c0 11 2 25 5 40l38 190h-70l24 125h76l27 139h166l-27 -139h109l-24 -125h-109l-34 -179c-3 -9 -3 -22 -3 -27c0 -43 38 -51 76 -51c9 0 16 0 19 1s5 1 8 1l-27 -137l-15 -2c-9 -1 -20 -1 -31 -1c-113 0 -208 46 -208 165zM102 -46h139c1 -7 1 -13 1 -20
c0 -94 -67 -158 -149 -182l-51 54c47 31 63 66 63 109c0 12 -1 25 -3 39z" />
    <glyph glyph-name="uni1E9E" unicode="&#x1e9e;" horiz-adv-x="766" 
d="M-25 0l25 130h80l64 330c29 155 155 255 311 255h306l-23 -120l-129 -151c-7 -7 -12 -15 -19 -20l-10 -9v-2c88 -27 137 -102 137 -173c0 -110 -102 -250 -308 -250c-31 0 -67 3 -106 10l28 148c25 -7 57 -6 66 -6c130 0 138 67 138 85c0 45 -49 74 -150 74l21 103
l102 128c8 10 16 18 24 25l11 9v2c-4 0 -8 0 -12 -1c-7 -1 -16 -2 -27 -2h-77c-49 0 -92 -42 -103 -101l-90 -464h-259z" />
    <glyph glyph-name="minus" unicode="&#x2212;" horiz-adv-x="630" 
d="M39 222v130h546v-130h-546z" />
    <glyph glyph-name="commaaccent" horiz-adv-x="335" 
d="M54 -46h139c1 -7 1 -13 1 -20c0 -94 -67 -158 -149 -182l-51 54c47 31 63 66 63 109c0 12 -1 25 -3 39z" />
    <glyph glyph-name="apple" horiz-adv-x="1130" 
d="M110 -5v152l-126 72v278l126 71v151l265 142l134 -71l132 71l265 -142v-151l124 -71v-278l-124 -72v-152l-265 -141l-132 71l-134 -71zM150 30l238 -126l121 66l118 -66l238 126v139l114 64v249l-114 66v136l-238 126l-118 -64l-121 64l-238 -126v-136l-114 -66v-249
l114 -64v-139zM184 64v121l-99 60v225l99 58v123l215 114l110 -59l107 59l214 -114v-123l100 -58v-225l-100 -60v-121l-214 -114l-107 58l-110 -58zM368 91h129v171h176v108h-176v128h85c15 0 16 -6 16 -21v-21h115v102c0 33 -10 48 -47 48h-346v-108h48v-407z" />
    <glyph glyph-name="zero.tnum" 
d="M29 238c0 182 80 489 329 489c175 0 237 -101 237 -248c0 -180 -82 -491 -330 -491c-175 0 -236 103 -236 250zM210 246c0 -63 15 -103 59 -103c96 0 144 215 144 326c0 63 -16 103 -60 103c-97 0 -143 -217 -143 -326z" />
    <glyph glyph-name="one.tnum" 
d="M24 0l26 140h152l60 305c3 15 5 27 8 38l4 17h-2l-9 -12c-7 -7 -15 -17 -27 -26l-54 -43l-83 113l234 183h151l-111 -575h152l-28 -140h-473z" />
    <glyph glyph-name="two.tnum" 
d="M496 0h-501c0 344 397 369 397 511c0 43 -32 61 -67 61s-66 -20 -89 -41c-13 -12 -26 -26 -37 -41l-116 92c20 27 43 52 70 73c47 36 112 72 196 72c115 0 232 -68 232 -194c0 -215 -353 -301 -373 -393h165l17 85h150z" />
    <glyph glyph-name="three.tnum" 
d="M0 79l92 122c12 -11 26 -20 41 -29c27 -15 63 -29 104 -29c71 0 119 43 119 95c0 39 -37 67 -98 67c-8 0 -17 0 -24 -1c-4 -1 -8 -1 -12 -1l-21 80l153 164c9 9 17 16 24 21l12 8v2c-5 0 -10 0 -15 -1c-9 -1 -20 -2 -31 -2h-85l-15 -75h-150l42 215h472l-24 -124
l-168 -177c61 -21 125 -71 125 -162c0 -126 -113 -264 -306 -264c-76 0 -135 23 -175 46c-23 13 -43 28 -60 45z" />
    <glyph glyph-name="four.tnum" 
d="M-19 173l19 106l356 436h219l-79 -407h85l-26 -135h-85l-34 -173h-173l34 173h-316zM185 308h138l34 173c3 15 7 33 12 48l9 26h-4c-4 -7 -8 -15 -13 -22c-8 -13 -18 -29 -31 -44l-145 -179v-2z" />
    <glyph glyph-name="five.tnum" 
d="M-3 82l95 117c12 -11 26 -20 41 -28c27 -15 61 -28 101 -28c67 0 127 39 127 102c0 52 -40 75 -100 75c-29 0 -55 -4 -74 -11c-11 -3 -21 -7 -30 -11l-92 38l106 379h417l-42 -215h-150l15 75h-116l-24 -87l-9 -25c-2 -4 -3 -8 -4 -11h2l18 3c11 2 26 3 43 3
c124 0 223 -77 223 -211c0 -145 -142 -259 -314 -259c-76 0 -134 23 -173 47c-23 14 -43 30 -60 47z" />
    <glyph glyph-name="six.tnum" 
d="M29 258c0 209 161 469 424 469c51 0 90 -8 118 -17c17 -5 31 -11 42 -17l-64 -141c-9 4 -18 7 -29 10c-19 5 -43 10 -72 10c-91 0 -153 -54 -188 -123h2c21 16 65 25 102 25c136 0 203 -101 203 -209c0 -137 -107 -277 -279 -277c-139 0 -259 90 -259 270zM207 253
c0 -61 43 -110 94 -110c54 0 87 56 87 109c0 43 -22 81 -91 81c-67 0 -90 -33 -90 -80z" />
    <glyph glyph-name="seven.tnum" 
d="M22 0l373 538c9 13 16 21 23 28l10 10v2c-5 0 -10 0 -15 -1c-9 -1 -22 -2 -37 -2h-123l-15 -75h-150l42 215h519l-24 -122l-415 -593h-188z" />
    <glyph glyph-name="eight.tnum" 
d="M11 182c0 90 65 152 145 205c-35 31 -56 68 -56 119c0 107 92 221 263 221c132 0 230 -70 230 -179c0 -96 -80 -162 -114 -194c43 -31 71 -76 71 -133c0 -112 -109 -233 -293 -233c-160 0 -246 91 -246 194zM369 414c9 11 50 58 50 107c0 37 -21 56 -63 56
c-47 0 -84 -26 -84 -69c0 -46 45 -69 97 -94zM191 208c0 -43 26 -70 79 -70c46 0 100 24 100 76c0 54 -60 76 -114 103c-25 -22 -65 -60 -65 -109z" />
    <glyph glyph-name="nine.tnum" 
d="M13 22l64 141c9 -4 18 -7 29 -10c19 -5 41 -10 68 -10c92 0 154 54 189 126h-2c-21 -16 -65 -25 -102 -25c-135 0 -204 100 -204 206c0 137 107 277 279 277c139 0 259 -90 259 -270c0 -209 -161 -469 -424 -469c-48 0 -87 8 -114 17c-16 5 -30 11 -42 17zM326 385
c67 0 89 34 89 77c0 61 -43 110 -94 110c-53 0 -87 -56 -87 -109c0 -40 21 -78 92 -78z" />
    <glyph glyph-name="hyphen.case" horiz-adv-x="449" 
d="M61 272l29 150h314l-29 -150h-314z" />
    <glyph glyph-name="parenleft.case" horiz-adv-x="360" 
d="M254 -65h-137c-35 80 -59 172 -59 276c0 211 61 400 214 569h147c-143 -176 -211 -370 -211 -573c0 -93 14 -184 46 -272z" />
    <glyph glyph-name="parenright.case" horiz-adv-x="360" 
d="M111 -65h-147c143 176 211 370 211 573c0 93 -14 184 -46 272h137c35 -80 59 -172 59 -276c0 -211 -60 -399 -214 -569z" />
    <glyph glyph-name="bracketleft.case" horiz-adv-x="365" 
d="M13 -65l165 845h246l-24 -120h-102l-117 -605h102l-24 -120h-246z" />
    <glyph glyph-name="bracketright.case" horiz-adv-x="364" 
d="M-13 55h102l117 605h-102l24 120h246l-165 -845h-245z" />
    <glyph glyph-name="braceleft.case" horiz-adv-x="387" 
d="M70 68c0 13 1 26 4 39l16 83c2 10 3 19 3 26c0 35 -17 52 -34 61c-10 5 -22 8 -35 9l29 150c16 1 31 5 45 12c24 12 50 38 59 87l20 103c26 131 155 158 270 145l-24 -124c-37 11 -100 -5 -108 -52l-26 -132c-9 -45 -36 -74 -61 -91c-15 -10 -31 -18 -48 -23v-2
c12 -4 23 -11 32 -20c16 -16 31 -42 31 -87c0 -9 -1 -20 -3 -32l-22 -112c-1 -3 -1 -7 -1 -12c0 -44 57 -45 89 -40l-24 -124c-4 0 -8 0 -13 -1c-8 -1 -18 -1 -31 -1c-48 0 -168 18 -168 138z" />
    <glyph glyph-name="braceright.case" horiz-adv-x="387" 
d="M-38 -68l24 124c37 -11 100 6 108 52l28 139c9 45 36 74 61 91c15 10 31 18 48 23v2c-11 4 -22 11 -31 20c-16 16 -32 43 -32 87c0 9 1 20 3 32l20 105c1 3 1 7 1 12c0 44 -57 45 -89 40l24 124c86 13 212 -21 212 -136c0 -13 -1 -26 -4 -39l-14 -76
c-2 -10 -3 -19 -3 -26c0 -35 18 -52 35 -61c10 -5 21 -8 34 -9l-29 -150c-16 -1 -31 -5 -45 -12c-24 -12 -48 -36 -59 -87l-22 -110c-27 -132 -142 -147 -228 -147c-13 0 -23 0 -30 1c-4 1 -8 1 -12 1z" />
    <glyph glyph-name="at.case" horiz-adv-x="814" 
d="M35 304c0 228 201 427 469 427c179 0 257 -88 257 -201c0 -23 -3 -43 -7 -64l-33 -173h74l-23 -119h-268c-140 0 -209 78 -209 163c0 96 81 195 268 195h44c1 1 1 2 1 3v5c0 36 -65 56 -122 56c-159 0 -280 -155 -280 -293c0 -104 69 -189 210 -189l-25 -128
c-211 0 -356 124 -356 318zM467 345c0 -31 16 -52 55 -52h39l26 134h-37c-52 0 -83 -42 -83 -82z" />
    <glyph glyph-name="guillemotleft.case" horiz-adv-x="664" 
d="M427 137l-130 205l213 206h167l-227 -213l130 -198h-153zM167 137l-130 205l191 206h164l-202 -213l130 -198h-153z" />
    <glyph glyph-name="guillemotright.case" horiz-adv-x="664" 
d="M289 137l202 213l-130 198h153l130 -205l-191 -206h-164zM4 137l227 213l-130 198h153l130 -205l-213 -206h-167z" />
    <glyph glyph-name="guilsinglleft.case" horiz-adv-x="390" 
d="M167 137l-130 205l191 206h164l-202 -213l130 -198h-153z" />
    <glyph glyph-name="guilsinglright.case" horiz-adv-x="391" 
d="M16 137l202 213l-130 198h153l130 -205l-191 -206h-164z" />
    <glyph glyph-name="endash.case" horiz-adv-x="731" 
d="M63 282l25 130h596l-25 -130h-596z" />
    <glyph glyph-name="emdash.case" horiz-adv-x="931" 
d="M63 282l25 130h796l-25 -130h-796z" />
    <glyph glyph-name="periodcentered.case" horiz-adv-x="294" 
d="M60 263l31 164h158l-31 -164h-158z" />
    <glyph glyph-name="questiondown.case" horiz-adv-x="466" 
d="M243 565l29 150h158l-29 -150h-158zM-5 168c0 177 207 212 223 293l7 33h166l-9 -47c-24 -145 -205 -170 -205 -253c0 -29 25 -49 60 -49c27 0 52 11 71 22l32 21l79 -127c-18 -13 -38 -25 -60 -36c-39 -19 -90 -37 -150 -37c-109 0 -214 62 -214 180z" />
    <glyph glyph-name="exclamdown.case" horiz-adv-x="341" 
d="M142 565l29 150h158l-29 -150h-158zM23 0l112 494h148l-80 -494h-180z" />
    <glyph glyph-name="bullet.case" horiz-adv-x="467" 
d="M245 170c-103 0 -186 83 -186 186s83 186 186 186s186 -83 186 -186s-83 -186 -186 -186z" />
    <glyph glyph-name="zero.p_osf" horiz-adv-x="604" 
d="M35 210c0 160 95 357 292 357c173 0 234 -103 234 -223c0 -165 -99 -356 -291 -356c-173 0 -235 101 -235 222zM209 213c0 -47 16 -81 61 -81c83 0 117 123 117 207c0 47 -15 84 -60 84c-82 0 -118 -126 -118 -210z" />
    <glyph glyph-name="one.p_osf" horiz-adv-x="512" 
d="M-5 0l26 135h143l32 167l10 47l6 27h-2c-4 -4 -8 -8 -13 -11c-8 -7 -19 -14 -32 -21l-58 -29l-58 121l216 119h147l-81 -420h134l-26 -135h-444z" />
    <glyph glyph-name="two.p_osf" horiz-adv-x="578" 
d="M5 0l23 115c96 52 317 176 317 259c0 37 -29 50 -56 50c-35 0 -72 -16 -101 -35c-17 -11 -34 -22 -50 -35l-69 116c20 19 43 35 69 49c44 24 104 48 179 48c100 0 204 -46 204 -169c0 -130 -149 -218 -252 -266v-2l18 3c12 1 28 2 51 2h165l-29 -135h-469z" />
    <glyph glyph-name="three.p_osf" horiz-adv-x="550" 
d="M-40 -42l87 113c11 -10 24 -19 38 -27c24 -15 58 -28 98 -28c71 0 115 42 115 89c0 39 -31 64 -95 64c-9 0 -18 0 -25 -1c-4 -1 -8 -1 -12 -1l-19 75l149 160c9 9 17 16 24 21l12 8v2c-5 0 -10 0 -15 -1c-9 -1 -20 -2 -31 -2h-78l-15 -70h-140l39 195h443l-22 -112
l-156 -167c61 -21 119 -73 119 -162c0 -116 -110 -242 -293 -242c-76 0 -131 20 -168 43c-22 13 -40 27 -55 43z" />
    <glyph glyph-name="four.p_osf" horiz-adv-x="618" 
d="M-31 28l19 101l337 426h226l-77 -397h85l-26 -130h-85l-28 -144h-169l28 144h-310zM168 158h137l35 180c3 15 7 33 12 48l9 26h-4c-4 -7 -8 -15 -13 -22c-8 -13 -19 -29 -31 -44l-145 -186v-2z" />
    <glyph glyph-name="five.p_osf" horiz-adv-x="544" 
d="M-41 -42l88 114c11 -11 24 -20 38 -28c24 -15 57 -28 96 -28c59 0 120 30 120 94c0 51 -39 78 -96 78c-27 0 -49 -4 -68 -11c-11 -3 -20 -7 -29 -11l-83 33l98 356h396l-39 -195h-145l14 70h-102l-24 -90c-3 -7 -4 -15 -7 -20l-4 -8h2l15 3c11 1 23 2 42 2
c117 0 204 -75 204 -193c0 -152 -141 -252 -293 -252c-71 0 -125 20 -164 43c-22 13 -42 27 -59 43z" />
    <glyph glyph-name="six.p_osf" horiz-adv-x="609" 
d="M35 242c0 196 147 441 408 441c48 0 87 -8 115 -17c17 -5 31 -11 44 -17l-68 -128l-27 9c-17 5 -39 9 -64 9c-88 0 -149 -58 -184 -117h2c23 15 68 23 103 23c128 0 202 -91 202 -198c0 -124 -99 -259 -276 -259c-136 0 -255 78 -255 254zM209 233c0 -52 33 -101 89 -101
c53 0 93 44 93 100c0 44 -24 80 -91 80c-61 0 -91 -26 -91 -79z" />
    <glyph glyph-name="seven.p_osf" horiz-adv-x="547" 
d="M-25 -116l355 503c11 15 19 26 26 33l11 11v2c-4 0 -9 0 -15 -1c-11 -1 -23 -2 -38 -2h-116l-13 -70h-145l38 195h502l-23 -115l-395 -556h-187z" />
    <glyph glyph-name="eight.p_osf" 
d="M14 176c0 88 95 157 136 187c-27 24 -49 61 -49 104c0 104 89 215 248 215c132 0 230 -60 230 -167c0 -77 -80 -167 -102 -189c39 -27 66 -65 66 -116c0 -105 -103 -222 -281 -222c-167 0 -248 86 -248 188zM364 389c10 13 45 48 45 99c0 31 -22 51 -65 51
c-51 0 -76 -31 -76 -64c0 -39 43 -62 96 -86zM189 197c0 -37 29 -66 76 -66c55 0 103 29 103 77c0 36 -54 56 -115 85c-26 -18 -64 -51 -64 -96z" />
    <glyph glyph-name="nine.p_osf" horiz-adv-x="604" 
d="M-3 -95l68 128l26 -9c16 -5 39 -9 62 -9c88 0 149 58 184 117h-2c-23 -15 -68 -23 -103 -23c-124 0 -199 91 -199 198c0 124 99 259 273 259c136 0 255 -78 255 -254c0 -196 -147 -441 -408 -441c-47 0 -84 8 -112 17c-17 5 -31 11 -44 17zM296 242c61 0 91 26 91 79
c0 52 -33 101 -89 101c-51 0 -90 -43 -90 -100c0 -44 24 -80 88 -80z" />
    <glyph glyph-name="zero.t_osf" 
d="M33 210c0 160 95 357 292 357c173 0 234 -103 234 -223c0 -165 -99 -356 -291 -356c-173 0 -235 101 -235 222zM207 213c0 -47 16 -81 61 -81c83 0 117 123 117 207c0 47 -15 84 -60 84c-82 0 -118 -126 -118 -210z" />
    <glyph glyph-name="one.t_osf" 
d="M39 0l26 135h143l32 167l10 47l6 27h-2c-4 -4 -8 -8 -13 -11c-8 -7 -19 -14 -32 -21l-58 -29l-58 121l216 119h147l-81 -420h134l-26 -135h-444z" />
    <glyph glyph-name="two.t_osf" 
d="M16 0l23 115c96 52 317 176 317 259c0 37 -29 50 -56 50c-35 0 -72 -16 -101 -35c-17 -11 -34 -22 -50 -35l-69 116c20 19 43 35 69 49c44 24 104 48 179 48c100 0 204 -46 204 -169c0 -130 -149 -218 -252 -266v-2l18 3c12 1 28 2 51 2h165l-29 -135h-469z" />
    <glyph glyph-name="three.t_osf" 
d="M-13 -40l87 113c11 -10 24 -19 38 -27c24 -15 57 -28 97 -28c71 0 115 42 115 89c0 39 -31 63 -95 63c-9 0 -18 0 -25 -1c-4 -1 -8 -1 -12 -1l-19 75l149 159c9 9 17 16 24 21l12 8v2c-5 0 -10 0 -15 -1c-9 -1 -20 -2 -31 -2h-78l-15 -69h-139l39 194h441l-22 -112
l-155 -166c60 -21 118 -72 118 -161c0 -116 -109 -241 -292 -241c-75 0 -130 21 -167 42c-22 12 -40 26 -55 43z" />
    <glyph glyph-name="four.t_osf" 
d="M-40 28l19 101l337 426h226l-77 -397h85l-26 -130h-85l-28 -144h-169l28 144h-310zM159 158h137l35 180c3 15 7 33 12 48l9 26h-4c-4 -7 -8 -15 -13 -22c-8 -13 -19 -29 -31 -44l-145 -186v-2z" />
    <glyph glyph-name="five.t_osf" 
d="M-13 -42l88 114c11 -11 24 -20 38 -28c24 -15 57 -28 96 -28c59 0 120 30 120 94c0 51 -39 78 -96 78c-27 0 -49 -4 -68 -11c-11 -3 -20 -7 -29 -11l-83 33l98 356h396l-39 -195h-145l14 70h-102l-24 -90c-3 -7 -4 -15 -7 -20l-4 -8h2l15 3c11 1 23 2 42 2
c117 0 204 -75 204 -193c0 -152 -141 -252 -293 -252c-71 0 -125 20 -164 43c-22 13 -42 27 -59 43z" />
    <glyph glyph-name="six.t_osf" 
d="M30 242c0 196 147 441 408 441c48 0 87 -8 115 -17c17 -5 31 -11 44 -17l-68 -128l-27 9c-17 5 -39 9 -64 9c-88 0 -149 -58 -184 -117h2c23 15 68 23 103 23c128 0 202 -91 202 -198c0 -124 -99 -259 -276 -259c-136 0 -255 78 -255 254zM204 233c0 -52 33 -101 89 -101
c53 0 93 44 93 100c0 44 -24 80 -91 80c-61 0 -91 -26 -91 -79z" />
    <glyph glyph-name="seven.t_osf" 
d="M1 -116l355 503c11 15 19 26 26 33l11 11v2c-4 0 -9 0 -15 -1c-11 -1 -23 -2 -38 -2h-116l-13 -70h-145l38 195h502l-23 -115l-395 -556h-187z" />
    <glyph glyph-name="eight.t_osf" 
d="M14 176c0 88 95 157 136 187c-27 24 -49 61 -49 104c0 104 89 215 248 215c132 0 230 -60 230 -167c0 -77 -80 -167 -102 -189c39 -27 66 -65 66 -116c0 -105 -103 -222 -281 -222c-167 0 -248 86 -248 188zM364 389c10 13 45 48 45 99c0 31 -22 51 -65 51
c-51 0 -76 -31 -76 -64c0 -39 43 -62 96 -86zM189 197c0 -37 29 -66 76 -66c55 0 103 29 103 77c0 36 -54 56 -115 85c-26 -18 -64 -51 -64 -96z" />
    <glyph glyph-name="nine.t_osf" 
d="M-5 -95l68 128l26 -9c16 -5 39 -9 62 -9c88 0 149 58 184 117h-2c-23 -15 -68 -23 -103 -23c-124 0 -199 91 -199 198c0 124 99 259 273 259c136 0 255 -78 255 -254c0 -196 -147 -441 -408 -441c-47 0 -84 8 -112 17c-17 5 -31 11 -44 17zM294 242c61 0 91 26 91 79
c0 52 -33 101 -89 101c-51 0 -90 -43 -90 -100c0 -44 24 -80 88 -80z" />
    <glyph glyph-name="dollar.osf" horiz-adv-x="540" 
d="M-9 93l90 116c13 -11 27 -20 43 -29c27 -15 65 -30 106 -30c39 0 70 12 70 32c0 51 -231 66 -231 219c0 84 73 166 208 182l18 101h109l-19 -103c49 -8 85 -24 110 -39c15 -9 27 -18 38 -27l-80 -123c-11 8 -24 15 -37 22c-23 11 -55 21 -94 21c-35 0 -73 -9 -73 -31
c0 -53 231 -58 231 -217c0 -107 -102 -172 -210 -185l-17 -102h-109l19 105c-56 11 -99 33 -128 52c-17 11 -32 23 -44 36z" />
    <glyph glyph-name="cent.osf" horiz-adv-x="554" 
d="M164 -30l17 87c-102 32 -154 115 -154 212c0 124 96 254 250 280l16 80h114l-16 -79c48 -8 84 -27 111 -46c15 -11 28 -22 39 -33l-91 -111c-9 8 -18 15 -29 22c-19 11 -44 21 -77 21c-98 0 -142 -71 -142 -122c0 -44 29 -84 102 -84c33 0 62 12 85 24c13 7 25 15 36 24
l55 -129c-15 -12 -32 -23 -51 -33c-33 -17 -80 -34 -136 -38l-15 -75h-114z" />
    <glyph glyph-name="sterling.osf" horiz-adv-x="607" 
d="M-17 0l28 145h65l16 86h-53l21 108h53l10 47c30 137 144 211 280 211c63 0 110 -16 143 -33c19 -10 36 -21 51 -33l-90 -116c-8 5 -18 10 -30 15c-20 8 -48 15 -84 15c-41 0 -88 -25 -96 -64l-9 -42h180l-21 -108h-180l-16 -86h289l-29 -145h-528z" />
    <glyph glyph-name="yen.osf" horiz-adv-x="659" 
d="M42 117l19 96h161l2 8l-28 71h-120l19 96h65l-74 197h194l30 -118c7 -24 12 -52 16 -73c3 -12 5 -24 6 -37h2c6 13 13 25 20 37c12 21 29 49 44 73l76 118h204l-151 -197h74l-19 -96h-129l-54 -71l-2 -8h170l-19 -96h-169l-23 -117h-175l23 117h-162z" />
    <glyph glyph-name="florin.osf" horiz-adv-x="598" 
d="M-57 -116l29 143l24 -3c14 -2 28 -3 43 -3c33 0 89 9 105 64l49 181h-62l27 135h74l29 100c48 160 182 182 265 182c19 0 44 -1 65 -4c12 -1 24 -3 37 -5l-29 -144l-31 3c-17 3 -35 3 -43 3c-35 0 -87 -9 -103 -64l-20 -71h95l-27 -135h-107l-57 -210
c-43 -160 -190 -182 -268 -182c-19 0 -43 2 -62 5c-11 2 -22 4 -33 5z" />
    <glyph glyph-name="Euro.osf" horiz-adv-x="579" 
d="M17 184l15 81h63c1 19 5 38 10 55h-60l15 81h72c53 106 162 196 320 196c43 0 74 -5 97 -10c13 -3 24 -6 34 -10l-59 -127c-6 2 -13 4 -20 5c-12 3 -29 4 -48 4c-56 0 -103 -21 -132 -58h182l-34 -81h-193c-7 -17 -10 -36 -11 -55h185l-31 -81h-131
c19 -37 56 -55 108 -55c24 0 46 3 62 7c9 3 18 5 27 7v-139l-28 -8c-17 -4 -40 -8 -67 -8c-167 0 -259 85 -288 196h-88z" />
    <glyph glyph-name="zero.numerator" horiz-adv-x="413" 
d="M220 264c-115 0 -154 64 -154 156c0 124 55 305 203 305c115 0 155 -64 155 -156c0 -124 -56 -305 -204 -305zM221 379c43 0 74 97 74 181c0 29 -6 49 -27 49c-44 0 -74 -97 -74 -181c0 -31 7 -49 27 -49z" />
    <glyph glyph-name="one.numerator" horiz-adv-x="380" 
d="M35 274l19 98h99l29 152c3 9 4 16 7 23l4 11h-2l-7 -8c-4 -5 -9 -9 -16 -14l-33 -24l-58 79l160 124h108l-66 -343h100l-19 -98h-325z" />
    <glyph glyph-name="two.numerator" horiz-adv-x="412" 
d="M375 274h-340c0 233 253 230 253 306c0 23 -18 30 -37 30c-21 0 -42 -11 -57 -22c-9 -7 -17 -14 -25 -23l-75 78c14 15 30 29 47 41c31 21 71 41 122 41c73 0 156 -39 156 -131c0 -145 -219 -169 -235 -222h113l8 43h97z" />
    <glyph glyph-name="three.numerator" horiz-adv-x="396" 
d="M197 264c-59 0 -97 17 -124 34c-15 10 -28 21 -38 34l75 84c7 -7 14 -13 22 -18c15 -9 36 -19 64 -19c36 0 62 21 62 48c0 21 -24 30 -55 30h-30l-14 52l88 89c7 7 13 12 18 16c3 3 6 5 9 7v4l-11 -2c-7 -1 -15 -2 -23 -2h-44l-9 -47h-97l27 141h311l-15 -79l-105 -101
c47 -16 79 -55 79 -107c0 -78 -75 -164 -190 -164z" />
    <glyph glyph-name="four.numerator" horiz-adv-x="421" 
d="M211 274l18 92h-196l14 79l220 270h153l-50 -257h53l-17 -92h-53l-18 -92h-124zM162 458h84l21 105l9 33l6 17h-4l-9 -16c-5 -9 -12 -19 -20 -30l-87 -107v-2z" />
    <glyph glyph-name="five.numerator" horiz-adv-x="395" 
d="M186 264c-47 0 -87 15 -115 31c-17 9 -31 20 -43 31l70 85c9 -7 18 -13 27 -18c16 -9 38 -19 61 -19c43 0 74 18 74 54c0 25 -19 42 -60 42c-19 0 -33 -3 -44 -6c-7 -2 -12 -4 -17 -7l-60 24l65 234h278l-27 -141h-97l9 47h-79l-12 -53c-1 -5 -3 -9 -4 -12l-2 -4l1 -1
l13 2c8 1 18 2 30 2c87 0 134 -55 134 -123c0 -80 -78 -168 -202 -168z" />
    <glyph glyph-name="six.numerator" horiz-adv-x="402" 
d="M224 264c-87 0 -164 53 -164 169c0 128 103 292 258 292c35 0 62 -6 81 -13c11 -4 21 -8 30 -13l-48 -104l-19 7c-12 4 -28 7 -48 7c-35 0 -66 -15 -86 -52h2c13 4 26 6 38 6c78 0 131 -56 131 -127c0 -81 -69 -172 -175 -172zM231 379c27 0 42 28 42 52
c0 20 -11 41 -44 41c-35 0 -40 -17 -40 -41c0 -31 18 -52 42 -52z" />
    <glyph glyph-name="seven.numerator" horiz-adv-x="384" 
d="M35 274l234 323c5 7 11 13 15 17l7 7l1 4l-11 -2c-7 -1 -14 -2 -21 -2h-70l-9 -47h-97l27 141h337l-16 -85l-259 -356h-138z" />
    <glyph glyph-name="eight.numerator" horiz-adv-x="414" 
d="M214 264c-81 0 -166 44 -166 121c0 62 55 105 88 129c-19 19 -28 38 -28 69c0 95 91 142 177 142c91 0 145 -53 145 -114c0 -55 -44 -97 -73 -121c27 -20 45 -43 45 -82c0 -96 -103 -144 -188 -144zM276 533c11 9 31 34 31 57s-19 29 -36 29c-21 0 -43 -10 -43 -35
c0 -28 21 -38 48 -51zM221 370c24 0 53 13 53 38c0 31 -27 38 -63 57c-15 -13 -35 -37 -35 -60c0 -24 22 -35 45 -35z" />
    <glyph glyph-name="nine.numerator" horiz-adv-x="402" 
d="M160 264c-35 0 -62 6 -81 13c-11 4 -21 8 -30 13l49 102l18 -6c12 -3 29 -6 48 -6c35 0 66 15 86 52h-2c-13 -4 -25 -6 -38 -6c-77 0 -131 56 -131 127c0 81 69 172 175 172c89 0 164 -53 164 -169c0 -128 -103 -292 -258 -292zM249 517c35 0 40 17 40 41
c0 31 -18 52 -42 52c-27 0 -42 -28 -42 -52c0 -21 11 -41 44 -41z" />
    <glyph glyph-name="zerosuperior" unicode="&#x2070;" horiz-adv-x="414" 
d="M249 413c-115 0 -154 64 -154 156c0 124 55 305 203 305c115 0 155 -64 155 -156c0 -124 -56 -305 -204 -305zM250 528c43 0 74 97 74 181c0 29 -6 49 -27 49c-44 0 -74 -97 -74 -181c0 -31 7 -49 27 -49z" />
    <glyph glyph-name="foursuperior" unicode="&#x2074;" horiz-adv-x="420" 
d="M239 423l18 92h-196l14 79l220 270h153l-50 -257h53l-17 -92h-53l-18 -92h-124zM190 607h84l21 105l9 33l6 17h-4l-9 -16c-5 -9 -12 -19 -20 -30l-87 -107v-2z" />
    <glyph glyph-name="fivesuperior" unicode="&#x2075;" horiz-adv-x="396" 
d="M215 413c-47 0 -87 15 -115 31c-17 9 -31 20 -43 31l70 85c9 -7 18 -13 27 -18c16 -9 38 -19 61 -19c43 0 74 18 74 54c0 25 -19 42 -60 42c-19 0 -33 -3 -44 -6c-7 -2 -12 -4 -17 -7l-60 24l65 234h278l-27 -141h-97l9 47h-79l-12 -53c-1 -5 -3 -9 -4 -12l-2 -4l1 -1
l13 2c8 1 18 2 30 2c87 0 134 -55 134 -123c0 -80 -78 -168 -202 -168z" />
    <glyph glyph-name="sixsuperior" unicode="&#x2076;" horiz-adv-x="404" 
d="M254 413c-87 0 -164 53 -164 169c0 128 103 292 258 292c35 0 62 -6 81 -13c11 -4 21 -8 30 -13l-48 -104l-19 7c-12 4 -28 7 -48 7c-35 0 -66 -15 -86 -52h2c13 4 26 6 38 6c78 0 131 -56 131 -127c0 -81 -69 -172 -175 -172zM261 528c27 0 42 28 42 52
c0 20 -11 41 -44 41c-35 0 -40 -17 -40 -41c0 -31 18 -52 42 -52z" />
    <glyph glyph-name="sevensuperior" unicode="&#x2077;" horiz-adv-x="384" 
d="M64 423l234 323c5 7 11 13 15 17l7 7l1 4l-11 -2c-7 -1 -14 -2 -21 -2h-70l-9 -47h-97l27 141h337l-16 -85l-259 -356h-138z" />
    <glyph glyph-name="eightsuperior" unicode="&#x2078;" horiz-adv-x="414" 
d="M243 413c-81 0 -166 44 -166 121c0 62 55 105 88 129c-19 19 -28 38 -28 69c0 95 91 142 177 142c91 0 145 -53 145 -114c0 -55 -44 -97 -73 -121c27 -20 45 -43 45 -82c0 -96 -103 -144 -188 -144zM305 682c11 9 31 34 31 57s-19 29 -36 29c-21 0 -43 -10 -43 -35
c0 -28 21 -38 48 -51zM250 519c24 0 53 13 53 38c0 31 -27 38 -63 57c-15 -13 -35 -37 -35 -60c0 -24 22 -35 45 -35z" />
    <glyph glyph-name="ninesuperior" unicode="&#x2079;" horiz-adv-x="402" 
d="M189 413c-35 0 -62 6 -81 13c-11 4 -21 8 -30 13l49 102l18 -6c12 -3 29 -6 48 -6c35 0 66 15 86 52h-2c-13 -4 -25 -6 -38 -6c-77 0 -131 56 -131 127c0 81 69 172 175 172c89 0 164 -53 164 -169c0 -128 -103 -292 -258 -292zM278 666c35 0 40 17 40 41
c0 31 -18 52 -42 52c-27 0 -42 -28 -42 -52c0 -21 11 -41 44 -41z" />
    <glyph glyph-name="zeroinferior" unicode="&#x2080;" horiz-adv-x="413" 
d="M136 -167c-115 0 -154 64 -154 156c0 124 55 305 203 305c115 0 155 -64 155 -156c0 -124 -56 -305 -204 -305zM137 -52c43 0 74 97 74 181c0 29 -6 49 -27 49c-44 0 -74 -97 -74 -181c0 -31 7 -49 27 -49z" />
    <glyph glyph-name="oneinferior" unicode="&#x2081;" horiz-adv-x="379" 
d="M-49 -157l19 98h99l29 152c3 9 4 16 7 23l4 11h-2l-7 -8c-4 -5 -9 -9 -16 -14l-33 -24l-58 79l160 124h108l-66 -343h100l-19 -98h-325z" />
    <glyph glyph-name="twoinferior" unicode="&#x2082;" horiz-adv-x="413" 
d="M291 -157h-340c0 233 253 230 253 306c0 23 -18 30 -37 30c-21 0 -42 -11 -57 -22c-9 -7 -17 -14 -25 -23l-75 78c14 15 30 29 47 41c31 21 71 41 122 41c73 0 156 -39 156 -131c0 -145 -219 -169 -235 -222h113l8 43h97z" />
    <glyph glyph-name="threeinferior" unicode="&#x2083;" horiz-adv-x="397" 
d="M114 -167c-59 0 -98 17 -125 34c-15 10 -28 21 -37 34l75 84c7 -7 14 -14 22 -19c15 -9 36 -18 64 -18c36 0 62 21 62 48c0 21 -24 30 -55 30h-30l-14 52l88 89c7 7 13 12 18 16c3 3 6 5 9 7v4l-11 -2c-7 -1 -15 -2 -23 -2h-44l-9 -47h-97l27 141h311l-15 -79l-105 -101
c47 -16 79 -55 79 -107c0 -78 -75 -164 -190 -164z" />
    <glyph glyph-name="fourinferior" unicode="&#x2084;" horiz-adv-x="420" 
d="M126 -157l18 92h-196l14 79l220 270h153l-50 -257h53l-17 -92h-53l-18 -92h-124zM77 27h84l21 105l9 33l6 17h-4l-9 -16c-5 -9 -12 -19 -20 -30l-87 -107v-2z" />
    <glyph glyph-name="fiveinferior" unicode="&#x2085;" horiz-adv-x="396" 
d="M103 -167c-47 0 -87 15 -115 31c-17 9 -31 20 -43 31l70 85c9 -7 18 -14 27 -19c16 -9 38 -18 61 -18c43 0 74 18 74 54c0 25 -19 42 -60 42c-19 0 -33 -3 -44 -6c-7 -2 -12 -4 -17 -7l-60 24l65 234h278l-27 -141h-97l9 47h-79l-12 -53c-1 -5 -3 -9 -4 -12l-2 -4l1 -1
l13 2c8 1 18 2 30 2c87 0 134 -55 134 -123c0 -80 -78 -168 -202 -168z" />
    <glyph glyph-name="sixinferior" unicode="&#x2086;" horiz-adv-x="403" 
d="M141 -167c-87 0 -164 53 -164 169c0 128 103 292 258 292c35 0 62 -6 81 -13c11 -4 21 -8 30 -13l-48 -104l-19 7c-12 4 -28 7 -48 7c-35 0 -66 -15 -86 -52h2c13 4 26 6 38 6c78 0 131 -56 131 -127c0 -81 -69 -172 -175 -172zM148 -52c27 0 42 28 42 52
c0 20 -11 41 -44 41c-35 0 -40 -17 -40 -41c0 -31 18 -52 42 -52z" />
    <glyph glyph-name="seveninferior" unicode="&#x2087;" horiz-adv-x="384" 
d="M-49 -157l234 323c5 7 11 13 15 17l7 7l1 4l-11 -2c-7 -1 -14 -2 -21 -2h-70l-9 -47h-97l27 141h337l-16 -85l-259 -356h-138z" />
    <glyph glyph-name="eightinferior" unicode="&#x2088;" horiz-adv-x="414" 
d="M130 -167c-81 0 -166 44 -166 121c0 62 55 105 88 129c-19 19 -28 38 -28 69c0 95 91 142 177 142c91 0 145 -53 145 -114c0 -55 -44 -97 -73 -121c27 -20 45 -43 45 -82c0 -96 -103 -144 -188 -144zM192 102c11 9 31 34 31 57s-19 29 -36 29c-21 0 -43 -10 -43 -35
c0 -28 21 -38 48 -51zM137 -61c24 0 53 13 53 38c0 31 -27 38 -63 57c-15 -13 -35 -37 -35 -60c0 -24 22 -35 45 -35z" />
    <glyph glyph-name="nineinferior" unicode="&#x2089;" horiz-adv-x="402" 
d="M76 -167c-35 0 -62 6 -81 13c-11 4 -21 8 -30 13l49 102l18 -6c12 -3 29 -6 48 -6c35 0 66 15 86 52h-2c-13 -4 -25 -6 -38 -6c-77 0 -131 56 -131 127c0 81 69 172 175 172c89 0 164 -53 164 -169c0 -128 -103 -292 -258 -292zM165 86c35 0 40 17 40 41
c0 31 -18 52 -42 52c-27 0 -42 -28 -42 -52c0 -21 11 -41 44 -41z" />
    <glyph glyph-name="zero.denominator" horiz-adv-x="413" 
d="M167 -10c-115 0 -154 64 -154 156c0 124 55 305 203 305c115 0 155 -64 155 -156c0 -124 -56 -305 -204 -305zM168 105c43 0 74 97 74 181c0 29 -6 49 -27 49c-44 0 -74 -97 -74 -181c0 -31 7 -49 27 -49z" />
    <glyph glyph-name="one.denominator" horiz-adv-x="379" 
d="M-19 0l19 98h99l29 152c3 9 4 16 7 23l4 11h-2l-7 -8c-4 -5 -9 -9 -16 -14l-33 -24l-58 79l160 124h108l-66 -343h100l-19 -98h-325z" />
    <glyph glyph-name="two.denominator" horiz-adv-x="412" 
d="M321 0h-340c0 233 253 230 253 306c0 23 -18 30 -37 30c-21 0 -42 -11 -57 -22c-9 -7 -17 -14 -25 -23l-75 78c14 15 30 29 47 41c31 21 71 41 122 41c73 0 156 -39 156 -131c0 -145 -219 -169 -235 -222h113l8 43h97z" />
    <glyph glyph-name="three.denominator" horiz-adv-x="396" 
d="M144 -10c-59 0 -97 17 -124 34c-15 10 -28 21 -38 34l75 84c7 -7 14 -13 22 -18c15 -9 36 -19 64 -19c36 0 62 21 62 48c0 21 -24 30 -55 30h-30l-14 52l88 89c7 7 13 12 18 16c3 3 6 5 9 7v4l-11 -2c-7 -1 -15 -2 -23 -2h-44l-9 -47h-97l27 141h311l-15 -79l-105 -101
c47 -16 79 -55 79 -107c0 -78 -75 -164 -190 -164z" />
    <glyph glyph-name="four.denominator" horiz-adv-x="421" 
d="M157 0l18 92h-196l14 79l220 270h153l-50 -257h53l-17 -92h-53l-18 -92h-124zM108 184h84l21 105l9 33l6 17h-4l-9 -16c-5 -9 -12 -19 -20 -30l-87 -107v-2z" />
    <glyph glyph-name="five.denominator" horiz-adv-x="396" 
d="M133 -10c-47 0 -87 15 -115 31c-17 9 -31 20 -43 31l70 85c9 -7 18 -13 27 -18c16 -9 38 -19 61 -19c43 0 74 18 74 54c0 25 -19 42 -60 42c-19 0 -33 -3 -44 -6c-7 -2 -12 -4 -17 -7l-60 24l65 234h278l-27 -141h-97l9 47h-79l-12 -53c-1 -5 -3 -9 -4 -12l-2 -4l1 -1
l13 2c8 1 18 2 30 2c87 0 134 -55 134 -123c0 -80 -78 -168 -202 -168z" />
    <glyph glyph-name="six.denominator" horiz-adv-x="402" 
d="M171 -10c-87 0 -164 53 -164 169c0 128 103 292 258 292c35 0 62 -6 81 -13c11 -4 21 -8 30 -13l-48 -104l-19 7c-12 4 -28 7 -48 7c-35 0 -66 -15 -86 -52h2c13 4 26 6 38 6c78 0 131 -56 131 -127c0 -81 -69 -172 -175 -172zM178 105c27 0 42 28 42 52
c0 20 -11 41 -44 41c-35 0 -40 -17 -40 -41c0 -31 18 -52 42 -52z" />
    <glyph glyph-name="seven.denominator" horiz-adv-x="384" 
d="M-18 0l234 323c5 7 11 13 15 17l7 7l1 4l-11 -2c-7 -1 -14 -2 -21 -2h-70l-9 -47h-97l27 141h337l-16 -85l-259 -356h-138z" />
    <glyph glyph-name="eight.denominator" horiz-adv-x="414" 
d="M161 -10c-81 0 -166 44 -166 121c0 62 55 105 88 129c-19 19 -28 38 -28 69c0 95 91 142 177 142c91 0 145 -53 145 -114c0 -55 -44 -97 -73 -121c27 -20 45 -43 45 -82c0 -96 -103 -144 -188 -144zM223 259c11 9 31 34 31 57s-19 29 -36 29c-21 0 -43 -10 -43 -35
c0 -28 21 -38 48 -51zM168 96c24 0 53 13 53 38c0 31 -27 38 -63 57c-15 -13 -35 -37 -35 -60c0 -24 22 -35 45 -35z" />
    <glyph glyph-name="nine.denominator" horiz-adv-x="403" 
d="M107 -10c-35 0 -62 6 -81 13c-11 4 -21 8 -30 13l49 102l18 -6c12 -3 29 -6 48 -6c35 0 66 15 86 52h-2c-13 -4 -25 -6 -38 -6c-77 0 -131 56 -131 127c0 81 69 172 175 172c89 0 164 -53 164 -169c0 -128 -103 -292 -258 -292zM196 243c35 0 40 17 40 41
c0 31 -18 52 -42 52c-27 0 -42 -28 -42 -52c0 -21 11 -41 44 -41z" />
    <glyph glyph-name="thinspace" unicode="&#x2009;" horiz-adv-x="238" 
 />
    <glyph glyph-name="uni00AD" unicode="&#xad;" horiz-adv-x="454" 
d="M53 212l29 150h314l-29 -150h-314z" />
    </font>
</defs>
</svg>
